<mxfile host="app.diagrams.net" agent="Mozilla/5.0 (Macintosh; Intel Mac OS X 10_15_7) AppleWebKit/605.1.15 (KHTML, like Gecko) Version/17.6 Safari/605.1.15" version="24.7.10">
  <diagram name="DF" id="BleSmaJVXqo2yb7Co1eL">
    <mxGraphModel dx="17060" dy="12030" grid="0" gridSize="10" guides="0" tooltips="0" connect="1" arrows="1" fold="1" page="0" pageScale="1" pageWidth="827" pageHeight="1169" math="0" shadow="0">
      <root>
        <mxCell id="0" />
        <mxCell id="1" parent="0" />
        <mxCell id="MQtoxVUBuhqvLoLKHlp6-2100" value="" style="group" vertex="1" connectable="0" parent="1">
          <mxGeometry x="-3431.3374465327283" y="-2450.2107423580787" width="4141" height="2580" as="geometry" />
        </mxCell>
        <mxCell id="MQtoxVUBuhqvLoLKHlp6-3048" value="" style="rounded=0;whiteSpace=wrap;html=1;fillColor=#dae8fc;strokeColor=#6c8ebf;" vertex="1" parent="MQtoxVUBuhqvLoLKHlp6-2100">
          <mxGeometry x="-328.66" y="-494.79" width="4469.66" height="3074.79" as="geometry" />
        </mxCell>
        <mxCell id="MQtoxVUBuhqvLoLKHlp6-2101" value="" style="rounded=1;whiteSpace=wrap;html=1;fillColor=#1C57CD;strokeColor=none;" vertex="1" parent="MQtoxVUBuhqvLoLKHlp6-2100">
          <mxGeometry width="305.39533376539214" height="37.12663755458515" as="geometry" />
        </mxCell>
        <mxCell id="MQtoxVUBuhqvLoLKHlp6-2102" value="" style="sketch=0;outlineConnect=0;fontColor=#232F3E;gradientColor=none;fillColor=default;strokeColor=none;dashed=0;verticalLabelPosition=bottom;verticalAlign=top;align=center;html=1;fontSize=12;fontStyle=0;aspect=fixed;pointerEvents=1;shape=mxgraph.aws4.gear;rounded=1;" vertex="1" parent="MQtoxVUBuhqvLoLKHlp6-2100">
          <mxGeometry x="278.71030460142583" y="10.471615720524017" width="14.868965931944064" height="14.868965931944064" as="geometry" />
        </mxCell>
        <mxCell id="MQtoxVUBuhqvLoLKHlp6-2103" value="Нотификация об изменении состояния заказа" style="text;html=1;align=center;verticalAlign=middle;whiteSpace=wrap;rounded=1;fontSize=13;fontColor=#FFFFFF;strokeColor=none;" vertex="1" parent="MQtoxVUBuhqvLoLKHlp6-2100">
          <mxGeometry x="5.930006480881401" y="4.283842794759825" width="244.11860012961765" height="28.5589519650655" as="geometry" />
        </mxCell>
        <mxCell id="MQtoxVUBuhqvLoLKHlp6-3049" value="LAN" style="text;html=1;align=center;verticalAlign=middle;whiteSpace=wrap;rounded=1;shadow=0;fontSize=23;fontStyle=1" vertex="1" parent="MQtoxVUBuhqvLoLKHlp6-2100">
          <mxGeometry x="-328.66255346727166" y="-494.78925764192127" width="85" height="49" as="geometry" />
        </mxCell>
        <mxCell id="MQtoxVUBuhqvLoLKHlp6-3046" value="" style="rounded=0;whiteSpace=wrap;html=1;fillColor=#e1d5e7;strokeColor=#9673a6;movable=1;resizable=1;rotatable=1;deletable=1;editable=1;locked=0;connectable=1;" vertex="1" parent="1">
          <mxGeometry x="-3092" y="-3360" width="2490" height="400" as="geometry" />
        </mxCell>
        <mxCell id="MQtoxVUBuhqvLoLKHlp6-3047" value="WAN" style="text;html=1;align=center;verticalAlign=middle;whiteSpace=wrap;rounded=1;shadow=0;fontSize=23;fontStyle=1" vertex="1" parent="1">
          <mxGeometry x="-3092" y="-3360" width="85" height="49" as="geometry" />
        </mxCell>
        <mxCell id="MQtoxVUBuhqvLoLKHlp6-188" value="" style="group" vertex="1" connectable="0" parent="1">
          <mxGeometry x="-3349" y="-1154" width="697.9008198739483" height="317" as="geometry" />
        </mxCell>
        <mxCell id="MQtoxVUBuhqvLoLKHlp6-219" value="" style="rounded=1;whiteSpace=wrap;html=1;arcSize=4;movable=1;resizable=1;rotatable=1;deletable=1;editable=1;locked=0;connectable=1;fillColor=#f5f5f5;strokeColor=#1C57CD;strokeWidth=3;fontColor=#333333;" vertex="1" parent="MQtoxVUBuhqvLoLKHlp6-188">
          <mxGeometry x="-38" y="-37" width="737" height="350" as="geometry" />
        </mxCell>
        <mxCell id="MQtoxVUBuhqvLoLKHlp6-886" style="edgeStyle=orthogonalEdgeStyle;rounded=0;orthogonalLoop=1;jettySize=auto;html=1;exitX=0.5;exitY=1;exitDx=0;exitDy=0;" edge="1" parent="MQtoxVUBuhqvLoLKHlp6-188" source="MQtoxVUBuhqvLoLKHlp6-219" target="MQtoxVUBuhqvLoLKHlp6-219">
          <mxGeometry relative="1" as="geometry" />
        </mxCell>
        <mxCell id="MQtoxVUBuhqvLoLKHlp6-1" value="" style="group" vertex="1" connectable="0" parent="MQtoxVUBuhqvLoLKHlp6-188">
          <mxGeometry x="-14" y="-55" width="151" height="36" as="geometry" />
        </mxCell>
        <mxCell id="MQtoxVUBuhqvLoLKHlp6-2" value="&lt;p style=&quot;margin: 0px 0px 0px 13px; text-indent: -13px; font-variant-numeric: normal; font-variant-east-asian: normal; font-variant-alternates: normal; font-kerning: auto; font-optical-sizing: auto; font-feature-settings: normal; font-variation-settings: normal; font-variant-position: normal; font-stretch: normal; font-size: 14px; line-height: normal; color: rgb(14, 14, 14); text-align: start;&quot; class=&quot;p1&quot;&gt;&lt;br&gt;&lt;/p&gt;" style="rounded=1;whiteSpace=wrap;html=1;fillColor=#FF77BF;strokeColor=none;arcSize=33;" vertex="1" parent="MQtoxVUBuhqvLoLKHlp6-1">
          <mxGeometry y="5" width="151" height="31" as="geometry" />
        </mxCell>
        <mxCell id="MQtoxVUBuhqvLoLKHlp6-3" value="&lt;font style=&quot;font-size: 18px;&quot;&gt;&lt;i&gt;Django/Python&lt;/i&gt;&lt;/font&gt;" style="text;html=1;align=center;verticalAlign=middle;whiteSpace=wrap;rounded=1;shadow=0;fontSize=23;fontStyle=1" vertex="1" parent="MQtoxVUBuhqvLoLKHlp6-1">
          <mxGeometry x="30" width="89" height="36" as="geometry" />
        </mxCell>
        <mxCell id="MQtoxVUBuhqvLoLKHlp6-4" value="Сервис аутентификации и авторизации" style="text;html=1;align=center;verticalAlign=middle;whiteSpace=wrap;rounded=1;shadow=0;fontSize=23;fontStyle=1" vertex="1" parent="MQtoxVUBuhqvLoLKHlp6-188">
          <mxGeometry x="-33" y="-28" width="600" height="49" as="geometry" />
        </mxCell>
        <mxCell id="MQtoxVUBuhqvLoLKHlp6-31" value="" style="group" vertex="1" connectable="0" parent="MQtoxVUBuhqvLoLKHlp6-188">
          <mxGeometry x="-23" y="28" width="309" height="39" as="geometry" />
        </mxCell>
        <mxCell id="MQtoxVUBuhqvLoLKHlp6-32" value="" style="group" vertex="1" connectable="0" parent="MQtoxVUBuhqvLoLKHlp6-31">
          <mxGeometry width="309" height="39" as="geometry" />
        </mxCell>
        <mxCell id="MQtoxVUBuhqvLoLKHlp6-33" value="" style="rounded=1;whiteSpace=wrap;html=1;gradientColor=none;fillColor=#1C57CD;strokeColor=none;movable=1;resizable=1;rotatable=1;deletable=1;editable=1;locked=0;connectable=1;" vertex="1" parent="MQtoxVUBuhqvLoLKHlp6-32">
          <mxGeometry width="309" height="39" as="geometry" />
        </mxCell>
        <mxCell id="MQtoxVUBuhqvLoLKHlp6-34" value="" style="sketch=0;outlineConnect=0;dashed=0;verticalLabelPosition=bottom;verticalAlign=top;align=center;html=1;fontSize=12;fontStyle=0;aspect=fixed;pointerEvents=1;shape=mxgraph.aws4.gear;rounded=1;strokeColor=none;fillColor=default;" vertex="1" parent="MQtoxVUBuhqvLoLKHlp6-32">
          <mxGeometry x="280" y="11" width="17" height="17" as="geometry" />
        </mxCell>
        <mxCell id="MQtoxVUBuhqvLoLKHlp6-35" value="Регистрация пользователя" style="text;html=1;align=center;verticalAlign=middle;whiteSpace=wrap;rounded=1;fontSize=13;fontColor=#FFFFFF;strokeColor=none;movable=1;resizable=1;rotatable=1;deletable=1;editable=1;locked=0;connectable=1;" vertex="1" parent="MQtoxVUBuhqvLoLKHlp6-32">
          <mxGeometry x="3" y="4.5" width="172" height="30" as="geometry" />
        </mxCell>
        <mxCell id="MQtoxVUBuhqvLoLKHlp6-36" value="" style="group" vertex="1" connectable="0" parent="MQtoxVUBuhqvLoLKHlp6-188">
          <mxGeometry x="-23" y="77" width="309" height="39" as="geometry" />
        </mxCell>
        <mxCell id="MQtoxVUBuhqvLoLKHlp6-37" value="" style="rounded=1;whiteSpace=wrap;html=1;fillColor=#1C57CD;strokeColor=none;" vertex="1" parent="MQtoxVUBuhqvLoLKHlp6-36">
          <mxGeometry width="309" height="39" as="geometry" />
        </mxCell>
        <mxCell id="MQtoxVUBuhqvLoLKHlp6-38" value="" style="sketch=0;outlineConnect=0;fontColor=#232F3E;gradientColor=none;fillColor=default;strokeColor=none;dashed=0;verticalLabelPosition=bottom;verticalAlign=top;align=center;html=1;fontSize=12;fontStyle=0;aspect=fixed;pointerEvents=1;shape=mxgraph.aws4.gear;rounded=1;" vertex="1" parent="MQtoxVUBuhqvLoLKHlp6-36">
          <mxGeometry x="280" y="11" width="17" height="17" as="geometry" />
        </mxCell>
        <mxCell id="MQtoxVUBuhqvLoLKHlp6-39" value="Аутентификация" style="text;html=1;align=center;verticalAlign=middle;whiteSpace=wrap;rounded=1;fontSize=13;fontColor=#FFFFFF;strokeColor=none;" vertex="1" parent="MQtoxVUBuhqvLoLKHlp6-36">
          <mxGeometry x="2" y="4.5" width="114" height="30" as="geometry" />
        </mxCell>
        <mxCell id="MQtoxVUBuhqvLoLKHlp6-40" value="" style="group" vertex="1" connectable="0" parent="MQtoxVUBuhqvLoLKHlp6-188">
          <mxGeometry x="-23" y="122" width="309" height="39" as="geometry" />
        </mxCell>
        <mxCell id="MQtoxVUBuhqvLoLKHlp6-41" value="" style="rounded=1;whiteSpace=wrap;html=1;fillColor=#1C57CD;strokeColor=none;" vertex="1" parent="MQtoxVUBuhqvLoLKHlp6-40">
          <mxGeometry width="309" height="39" as="geometry" />
        </mxCell>
        <mxCell id="MQtoxVUBuhqvLoLKHlp6-42" value="" style="sketch=0;outlineConnect=0;fontColor=#232F3E;gradientColor=none;fillColor=default;strokeColor=none;dashed=0;verticalLabelPosition=bottom;verticalAlign=top;align=center;html=1;fontSize=12;fontStyle=0;aspect=fixed;pointerEvents=1;shape=mxgraph.aws4.gear;rounded=1;" vertex="1" parent="MQtoxVUBuhqvLoLKHlp6-40">
          <mxGeometry x="280" y="11" width="17" height="17" as="geometry" />
        </mxCell>
        <mxCell id="MQtoxVUBuhqvLoLKHlp6-43" value="Присвоение ролей" style="text;html=1;align=center;verticalAlign=middle;whiteSpace=wrap;rounded=1;fontSize=13;fontColor=#FFFFFF;strokeColor=none;" vertex="1" parent="MQtoxVUBuhqvLoLKHlp6-40">
          <mxGeometry x="3" y="5" width="122" height="30" as="geometry" />
        </mxCell>
        <mxCell id="MQtoxVUBuhqvLoLKHlp6-48" value="" style="group" vertex="1" connectable="0" parent="MQtoxVUBuhqvLoLKHlp6-188">
          <mxGeometry x="-24" y="170" width="309" height="39" as="geometry" />
        </mxCell>
        <mxCell id="MQtoxVUBuhqvLoLKHlp6-49" value="" style="rounded=1;whiteSpace=wrap;html=1;fillColor=#1C57CD;strokeColor=none;" vertex="1" parent="MQtoxVUBuhqvLoLKHlp6-48">
          <mxGeometry width="309" height="39" as="geometry" />
        </mxCell>
        <mxCell id="MQtoxVUBuhqvLoLKHlp6-50" value="" style="sketch=0;outlineConnect=0;fontColor=#232F3E;gradientColor=none;fillColor=default;strokeColor=none;dashed=0;verticalLabelPosition=bottom;verticalAlign=top;align=center;html=1;fontSize=12;fontStyle=0;aspect=fixed;pointerEvents=1;shape=mxgraph.aws4.gear;rounded=1;" vertex="1" parent="MQtoxVUBuhqvLoLKHlp6-48">
          <mxGeometry x="280" y="11" width="17" height="17" as="geometry" />
        </mxCell>
        <mxCell id="MQtoxVUBuhqvLoLKHlp6-51" value="Валидация токена безопасности" style="text;html=1;align=center;verticalAlign=middle;whiteSpace=wrap;rounded=1;fontSize=13;fontColor=#FFFFFF;strokeColor=none;" vertex="1" parent="MQtoxVUBuhqvLoLKHlp6-48">
          <mxGeometry x="3" y="4.5" width="209" height="30" as="geometry" />
        </mxCell>
        <mxCell id="MQtoxVUBuhqvLoLKHlp6-5" value="" style="strokeWidth=2;html=1;shape=mxgraph.flowchart.database;whiteSpace=wrap;rounded=1;movable=1;resizable=1;rotatable=1;deletable=1;editable=1;locked=0;connectable=1;" vertex="1" parent="MQtoxVUBuhqvLoLKHlp6-188">
          <mxGeometry x="373" y="55" width="231" height="178" as="geometry" />
        </mxCell>
        <mxCell id="MQtoxVUBuhqvLoLKHlp6-8" value="&lt;p style=&quot;margin: 0px 0px 0px 13px; text-indent: -13px; font-variant-numeric: normal; font-variant-east-asian: normal; font-variant-alternates: normal; font-kerning: auto; font-optical-sizing: auto; font-feature-settings: normal; font-variation-settings: normal; font-variant-position: normal; font-stretch: normal; line-height: normal; color: rgb(14, 14, 14); text-align: start;&quot; class=&quot;p1&quot;&gt;&lt;font face=&quot;Times New Roman&quot;&gt;&lt;span style=&quot;font-size: 14px;&quot;&gt;JWT&lt;/span&gt;&lt;/font&gt;&lt;/p&gt;" style="rounded=1;whiteSpace=wrap;html=1;fillColor=#b1ddf0;strokeColor=#10739e;" vertex="1" parent="MQtoxVUBuhqvLoLKHlp6-188">
          <mxGeometry x="453.52651328580686" y="141.12379912663755" width="34.55087491898898" height="12.930131004366812" as="geometry" />
        </mxCell>
        <mxCell id="MQtoxVUBuhqvLoLKHlp6-10" value="&lt;p style=&quot;margin: 0px 0px 0px 13px; text-indent: -13px; font-variant-numeric: normal; font-variant-east-asian: normal; font-variant-alternates: normal; font-kerning: auto; font-optical-sizing: auto; font-feature-settings: normal; font-variation-settings: normal; font-variant-position: normal; font-stretch: normal; font-size: 14px; line-height: normal; color: rgb(14, 14, 14); text-align: start;&quot; class=&quot;p1&quot;&gt;&lt;font face=&quot;Times New Roman&quot;&gt;Пользователь.ID&lt;/font&gt;&lt;/p&gt;" style="rounded=1;whiteSpace=wrap;html=1;fillColor=#b1ddf0;strokeColor=#10739e;" vertex="1" parent="MQtoxVUBuhqvLoLKHlp6-188">
          <mxGeometry x="429.79611795204147" y="119.95786026200881" width="106.47310434219052" height="12.930131004366812" as="geometry" />
        </mxCell>
        <mxCell id="MQtoxVUBuhqvLoLKHlp6-216" value="" style="group" vertex="1" connectable="0" parent="MQtoxVUBuhqvLoLKHlp6-188">
          <mxGeometry x="441.00195722618275" y="66.00445414847172" width="96.60142579390796" height="25.24454148471616" as="geometry" />
        </mxCell>
        <mxCell id="MQtoxVUBuhqvLoLKHlp6-217" value="&lt;p style=&quot;margin: 0px 0px 0px 13px; text-indent: -13px; font-variant-numeric: normal; font-variant-east-asian: normal; font-variant-alternates: normal; font-kerning: auto; font-optical-sizing: auto; font-feature-settings: normal; font-variation-settings: normal; font-variant-position: normal; font-stretch: normal; font-size: 14px; line-height: normal; color: rgb(14, 14, 14); text-align: start;&quot; class=&quot;p1&quot;&gt;&lt;br&gt;&lt;/p&gt;" style="rounded=1;whiteSpace=wrap;html=1;fillColor=#FF77BF;strokeColor=none;arcSize=50;" vertex="1" parent="MQtoxVUBuhqvLoLKHlp6-216">
          <mxGeometry y="4.636752517600927" width="96.60142579390796" height="17.001425897870067" as="geometry" />
        </mxCell>
        <mxCell id="MQtoxVUBuhqvLoLKHlp6-218" value="&lt;font style=&quot;font-size: 18px;&quot;&gt;&lt;i&gt;PostgreSQL&lt;/i&gt;&lt;/font&gt;" style="text;html=1;align=center;verticalAlign=middle;whiteSpace=wrap;rounded=1;shadow=0;fontSize=23;fontStyle=1" vertex="1" parent="MQtoxVUBuhqvLoLKHlp6-216">
          <mxGeometry x="19.8320807921268" width="56.93726420965436" height="25.24454148471616" as="geometry" />
        </mxCell>
        <mxCell id="MQtoxVUBuhqvLoLKHlp6-871" value="&lt;p style=&quot;margin: 0px 0px 0px 13px; text-indent: -13px; font-variant-numeric: normal; font-variant-east-asian: normal; font-variant-alternates: normal; font-kerning: auto; font-optical-sizing: auto; font-feature-settings: normal; font-variation-settings: normal; font-variant-position: normal; font-stretch: normal; font-size: 14px; line-height: normal; color: rgb(14, 14, 14); text-align: start;&quot; class=&quot;p1&quot;&gt;&lt;font face=&quot;Times New Roman&quot;&gt;Пользователь.Электронная почта&lt;/font&gt;&lt;/p&gt;" style="rounded=1;whiteSpace=wrap;html=1;fillColor=#b1ddf0;strokeColor=#10739e;" vertex="1" parent="MQtoxVUBuhqvLoLKHlp6-188">
          <mxGeometry x="380.94" y="165" width="207.06" height="14.14" as="geometry" />
        </mxCell>
        <mxCell id="MQtoxVUBuhqvLoLKHlp6-885" value="&lt;p style=&quot;margin: 0px 0px 0px 13px; text-indent: -13px; font-variant-numeric: normal; font-variant-east-asian: normal; font-variant-alternates: normal; font-kerning: auto; font-optical-sizing: auto; font-feature-settings: normal; font-variation-settings: normal; font-variant-position: normal; font-stretch: normal; font-size: 14px; line-height: normal; color: rgb(14, 14, 14); text-align: start;&quot; class=&quot;p1&quot;&gt;&lt;font face=&quot;Times New Roman&quot;&gt;Пользователь.Пароль&lt;/font&gt;&lt;/p&gt;" style="rounded=1;whiteSpace=wrap;html=1;fillColor=#b1ddf0;strokeColor=#9E1B11;" vertex="1" parent="MQtoxVUBuhqvLoLKHlp6-188">
          <mxGeometry x="399" y="193" width="147.37" height="13" as="geometry" />
        </mxCell>
        <mxCell id="D1CTnjmkYU0Mq4A9S6dc-23" value="" style="rounded=1;whiteSpace=wrap;html=1;arcSize=0;" parent="1" vertex="1">
          <mxGeometry x="-2789" y="156" width="1128" height="343" as="geometry" />
        </mxCell>
        <mxCell id="D1CTnjmkYU0Mq4A9S6dc-4" value="&lt;p style=&quot;margin: 0px 0px 0px 13px; text-indent: -13px; font-variant-numeric: normal; font-variant-east-asian: normal; font-variant-alternates: normal; font-kerning: auto; font-optical-sizing: auto; font-feature-settings: normal; font-variation-settings: normal; font-variant-position: normal; font-stretch: normal; font-size: 14px; line-height: normal; color: rgb(14, 14, 14); text-align: start;&quot; class=&quot;p1&quot;&gt;&lt;font face=&quot;Times New Roman&quot;&gt;Объект данных&lt;/font&gt;&lt;/p&gt;" style="rounded=1;whiteSpace=wrap;html=1;fillColor=#b1ddf0;strokeColor=#10739e;" parent="1" vertex="1">
          <mxGeometry x="-2369" y="393" width="101" height="21" as="geometry" />
        </mxCell>
        <mxCell id="D1CTnjmkYU0Mq4A9S6dc-11" value="&lt;font style=&quot;font-size: 14px;&quot;&gt;СУБД&lt;/font&gt;" style="strokeWidth=2;html=1;shape=mxgraph.flowchart.database;whiteSpace=wrap;rounded=1;movable=1;resizable=1;rotatable=1;deletable=1;editable=1;locked=0;connectable=1;" parent="1" vertex="1">
          <mxGeometry x="-2380" y="258" width="137" height="87" as="geometry" />
        </mxCell>
        <mxCell id="D1CTnjmkYU0Mq4A9S6dc-14" value="Пользователь (Роль)" style="shape=umlActor;verticalLabelPosition=bottom;verticalAlign=top;html=1;outlineConnect=0;rounded=1;" parent="1" vertex="1">
          <mxGeometry x="-1777" y="225" width="65" height="141" as="geometry" />
        </mxCell>
        <mxCell id="D1CTnjmkYU0Mq4A9S6dc-16" value="&lt;p style=&quot;margin: 0px 0px 0px 13px; text-indent: -13px; font-variant-numeric: normal; font-variant-east-asian: normal; font-variant-alternates: normal; font-kerning: auto; font-optical-sizing: auto; font-feature-settings: normal; font-variation-settings: normal; font-variant-position: normal; font-stretch: normal; line-height: normal; text-align: start;&quot; class=&quot;p1&quot;&gt;&lt;span style=&quot;text-align: center; text-indent: 0px;&quot;&gt;&lt;font style=&quot;font-size: 14px;&quot; face=&quot;Times New Roman&quot;&gt;Объект даных внешних сервисов&lt;/font&gt;&lt;/span&gt;&lt;br&gt;&lt;/p&gt;" style="rounded=1;whiteSpace=wrap;html=1;fillColor=#B8B8B8;strokeColor=#FFD966;" parent="1" vertex="1">
          <mxGeometry x="-2371" y="427" width="204" height="21" as="geometry" />
        </mxCell>
        <mxCell id="D1CTnjmkYU0Mq4A9S6dc-17" value="" style="endArrow=classic;html=1;rounded=1;curved=0;strokeWidth=2;" parent="1" edge="1">
          <mxGeometry width="50" height="50" relative="1" as="geometry">
            <mxPoint x="-2080" y="339" as="sourcePoint" />
            <mxPoint x="-1870" y="339" as="targetPoint" />
            <Array as="points">
              <mxPoint x="-2080" y="339" />
            </Array>
          </mxGeometry>
        </mxCell>
        <mxCell id="D1CTnjmkYU0Mq4A9S6dc-18" value="&lt;font style=&quot;font-size: 12px;&quot;&gt;Подтверждение отмены&amp;nbsp;&lt;/font&gt;&lt;div&gt;&lt;font style=&quot;font-size: 12px;&quot;&gt;платежа&lt;/font&gt;&lt;/div&gt;" style="edgeLabel;html=1;align=center;verticalAlign=middle;resizable=0;points=[];rounded=1;" parent="D1CTnjmkYU0Mq4A9S6dc-17" vertex="1" connectable="0">
          <mxGeometry x="0.1936" y="1" relative="1" as="geometry">
            <mxPoint x="-24" y="-39" as="offset" />
          </mxGeometry>
        </mxCell>
        <mxCell id="D1CTnjmkYU0Mq4A9S6dc-19" value="&lt;font style=&quot;font-size: 12px;&quot;&gt;[Транзакция.Статус]&lt;/font&gt;" style="text;html=1;align=center;verticalAlign=middle;whiteSpace=wrap;rounded=1;fontSize=13;labelBackgroundColor=none;fontColor=#B8B8B8;" parent="1" vertex="1">
          <mxGeometry x="-2065" y="309" width="160" height="30" as="geometry" />
        </mxCell>
        <mxCell id="D1CTnjmkYU0Mq4A9S6dc-20" value="" style="endArrow=classic;html=1;rounded=1;dashed=1;strokeWidth=2;" parent="1" edge="1">
          <mxGeometry width="50" height="50" relative="1" as="geometry">
            <mxPoint x="-2081" y="389" as="sourcePoint" />
            <mxPoint x="-1866" y="389" as="targetPoint" />
            <Array as="points" />
          </mxGeometry>
        </mxCell>
        <mxCell id="D1CTnjmkYU0Mq4A9S6dc-21" value="&lt;span style=&quot;font-size: 12px;&quot;&gt;Пользовательский поток&lt;/span&gt;" style="edgeLabel;html=1;align=center;verticalAlign=middle;resizable=0;points=[];rounded=1;" parent="1" vertex="1" connectable="0">
          <mxGeometry x="-1979.0048148148148" y="418" as="geometry">
            <mxPoint x="-2" y="-47" as="offset" />
          </mxGeometry>
        </mxCell>
        <mxCell id="jEkXnfsxQ-_I6rloK0n_-4" value="1" style="ellipse;whiteSpace=wrap;html=1;aspect=fixed;rounded=1;fillColor=#FF77BF;" parent="1" vertex="1">
          <mxGeometry x="-2072" y="443" width="23" height="23" as="geometry" />
        </mxCell>
        <mxCell id="jEkXnfsxQ-_I6rloK0n_-9" value="&lt;span style=&quot;font-size: 18px;&quot;&gt;&lt;i&gt;Номер потока&lt;/i&gt;&lt;/span&gt;" style="text;html=1;align=center;verticalAlign=middle;whiteSpace=wrap;rounded=1;shadow=0;fontSize=23;fontStyle=0" parent="1" vertex="1">
          <mxGeometry x="-2061" y="430" width="161" height="49" as="geometry" />
        </mxCell>
        <mxCell id="d3r_7VUgfL_-Ddzbqp2A-3" value="&lt;h1 style=&quot;margin-top: 0px; font-size: 15px;&quot;&gt;&lt;p class=&quot;p1&quot; style=&quot;margin: 0px 0px 0px 21px; text-indent: -21px; font-variant-numeric: normal; font-variant-east-asian: normal; font-variant-alternates: normal; font-kerning: auto; font-optical-sizing: auto; font-feature-settings: normal; font-variation-settings: normal; font-variant-position: normal; font-stretch: normal; font-size: 15px; line-height: normal; color: rgb(14, 14, 14);&quot;&gt;&lt;span class=&quot;s1&quot; style=&quot;font-weight: 400; font-variant-numeric: normal; font-variant-east-asian: normal; font-variant-alternates: normal; font-kerning: auto; font-optical-sizing: auto; font-feature-settings: normal; font-variation-settings: normal; font-variant-position: normal; font-stretch: normal; line-height: normal; font-family: &amp;quot;Times New Roman&amp;quot;; font-size: 15px;&quot;&gt;1.&amp;nbsp;&lt;/span&gt;&lt;b style=&quot;font-size: 15px;&quot;&gt;Инициировать платёж&lt;/b&gt;&lt;b style=&quot;font-weight: 400; font-size: 15px;&quot;&gt;&amp;nbsp;&lt;/b&gt;&lt;span style=&quot;background-color: initial; color: rgb(51, 51, 51); font-family: &amp;quot;YS Text&amp;quot;, -apple-system, BlinkMacSystemFont, Arial, Helvetica, sans-serif; font-size: 16px; font-weight: 400;&quot;&gt;—&lt;/span&gt;&lt;span style=&quot;background-color: initial; color: rgb(0, 0, 0); font-weight: normal;&quot;&gt;&amp;nbsp;т&lt;/span&gt;&lt;span style=&quot;background-color: initial; font-weight: 400;&quot;&gt;орговая площадка инициирует платёж, отправив необходимые данные (ID пользователя, ID заказа, сумма заказа) в платёжный сервис.&lt;/span&gt;&lt;/p&gt;&lt;p class=&quot;p1&quot; style=&quot;margin: 0px 0px 0px 21px; text-indent: -21px; font-variant-numeric: normal; font-variant-east-asian: normal; font-variant-alternates: normal; font-kerning: auto; font-optical-sizing: auto; font-feature-settings: normal; font-variation-settings: normal; font-variant-position: normal; font-weight: 400; font-stretch: normal; font-size: 15px; line-height: normal; color: rgb(14, 14, 14);&quot;&gt;&lt;span class=&quot;s1&quot; style=&quot;font-variant-numeric: normal; font-variant-east-asian: normal; font-variant-alternates: normal; font-kerning: auto; font-optical-sizing: auto; font-feature-settings: normal; font-variation-settings: normal; font-variant-position: normal; font-stretch: normal; line-height: normal; font-family: &amp;quot;Times New Roman&amp;quot;; font-size: 15px;&quot;&gt;2.&amp;nbsp;&lt;/span&gt;&lt;b style=&quot;font-size: 15px;&quot;&gt;Предоставить статус платежа&amp;nbsp;&lt;/b&gt;&lt;span style=&quot;background-color: initial; color: rgb(51, 51, 51); font-family: &amp;quot;YS Text&amp;quot;, -apple-system, BlinkMacSystemFont, Arial, Helvetica, sans-serif; font-size: 16px;&quot;&gt;— п&lt;/span&gt;&lt;span style=&quot;background-color: initial; color: rgb(0, 0, 0);&quot;&gt;латё&lt;/span&gt;&lt;span style=&quot;background-color: initial; color: rgb(0, 0, 0);&quot;&gt;жный сервис принял запрос на проведение оплаты,&lt;/span&gt;&lt;span style=&quot;background-color: initial;&quot; class=&quot;Apple-converted-space&quot;&gt;&amp;nbsp;&lt;/span&gt;&lt;span style=&quot;background-color: initial;&quot;&gt;подтвердил возможность проведения платежа со счёта клиента, назначил идентификатор для этой транзакции и установил статус.&lt;/span&gt;&lt;/p&gt;&lt;p class=&quot;p1&quot; style=&quot;margin: 0px 0px 0px 21px; text-indent: -21px; font-variant-numeric: normal; font-variant-east-asian: normal; font-variant-alternates: normal; font-kerning: auto; font-optical-sizing: auto; font-feature-settings: normal; font-variation-settings: normal; font-variant-position: normal; font-weight: 400; font-stretch: normal; font-size: 15px; line-height: normal; color: rgb(14, 14, 14);&quot;&gt;&lt;span class=&quot;s1&quot; style=&quot;font-variant-numeric: normal; font-variant-east-asian: normal; font-variant-alternates: normal; font-kerning: auto; font-optical-sizing: auto; font-feature-settings: normal; font-variation-settings: normal; font-variant-position: normal; font-stretch: normal; line-height: normal; font-family: &amp;quot;Times New Roman&amp;quot;; font-size: 15px;&quot;&gt;3.&amp;nbsp;&lt;/span&gt;&lt;b style=&quot;font-size: 15px;&quot;&gt;Подтверждение платежа&amp;nbsp;&lt;/b&gt;&lt;span style=&quot;background-color: initial; color: rgb(51, 51, 51); font-family: &amp;quot;YS Text&amp;quot;, -apple-system, BlinkMacSystemFont, Arial, Helvetica, sans-serif; font-size: 16px;&quot;&gt;— т&lt;/span&gt;&lt;span style=&quot;background-color: initial; color: rgb(0, 0, 0);&quot;&gt;орговая площадка уведомляет платёжный сервис о подтверждении операции, отправляя ID транзакции.&lt;/span&gt;&lt;/p&gt;&lt;p class=&quot;p1&quot; style=&quot;margin: 0px 0px 0px 21px; text-indent: -21px; font-variant-numeric: normal; font-variant-east-asian: normal; font-variant-alternates: normal; font-kerning: auto; font-optical-sizing: auto; font-feature-settings: normal; font-variation-settings: normal; font-variant-position: normal; font-weight: 400; font-stretch: normal; font-size: 15px; line-height: normal; color: rgb(14, 14, 14);&quot;&gt;&lt;span class=&quot;s1&quot; style=&quot;font-variant-numeric: normal; font-variant-east-asian: normal; font-variant-alternates: normal; font-kerning: auto; font-optical-sizing: auto; font-feature-settings: normal; font-variation-settings: normal; font-variant-position: normal; font-stretch: normal; line-height: normal; font-family: &amp;quot;Times New Roman&amp;quot;; font-size: 15px;&quot;&gt;4.&amp;nbsp;&lt;/span&gt;&lt;b style=&quot;font-size: 15px;&quot;&gt;Запросить статус платежа&lt;/b&gt;&amp;nbsp;&lt;span style=&quot;background-color: initial; color: rgb(51, 51, 51); font-family: &amp;quot;YS Text&amp;quot;, -apple-system, BlinkMacSystemFont, Arial, Helvetica, sans-serif; font-size: 16px;&quot;&gt;— т&lt;/span&gt;&lt;span style=&quot;background-color: initial; color: rgb(0, 0, 0);&quot;&gt;орговая площадка отправляет запрос в платёжный сервис для получения текущего статуса обработки транзакции по ID.&lt;/span&gt;&lt;/p&gt;&lt;p class=&quot;p1&quot; style=&quot;margin: 0px 0px 0px 21px; text-indent: -21px; font-variant-numeric: normal; font-variant-east-asian: normal; font-variant-alternates: normal; font-kerning: auto; font-optical-sizing: auto; font-feature-settings: normal; font-variation-settings: normal; font-variant-position: normal; font-weight: 400; font-stretch: normal; font-size: 15px; line-height: normal; color: rgb(14, 14, 14);&quot;&gt;&lt;span class=&quot;s1&quot; style=&quot;font-variant-numeric: normal; font-variant-east-asian: normal; font-variant-alternates: normal; font-kerning: auto; font-optical-sizing: auto; font-feature-settings: normal; font-variation-settings: normal; font-variant-position: normal; font-stretch: normal; line-height: normal; font-family: &amp;quot;Times New Roman&amp;quot;; font-size: 15px;&quot;&gt;5.&amp;nbsp;&lt;/span&gt;&lt;b style=&quot;font-size: 15px;&quot;&gt;Подтверждение отмены платежа (альтернативный сценарий)&amp;nbsp;&lt;/b&gt;&lt;span style=&quot;background-color: initial; color: rgb(51, 51, 51); font-family: &amp;quot;YS Text&amp;quot;, -apple-system, BlinkMacSystemFont, Arial, Helvetica, sans-serif; font-size: 16px;&quot;&gt;— п&lt;/span&gt;&lt;span style=&quot;background-color: initial; color: rgb(0, 0, 0);&quot;&gt;латёжный сервис уведомляет систему об успешной отмене платежа, предоставляя статус отменённой транзакции.&lt;/span&gt;&lt;/p&gt;&lt;/h1&gt;" style="text;html=1;whiteSpace=wrap;overflow=hidden;rounded=0;fontSize=15;" parent="1" vertex="1">
          <mxGeometry x="-1650" y="182" width="904" height="189" as="geometry" />
        </mxCell>
        <mxCell id="ro2GFgqDV0QlA6Vm-lQV-1" value="&lt;font style=&quot;font-size: 20px;&quot;&gt;Описание взаимодействий&lt;/font&gt;" style="text;html=1;align=center;verticalAlign=middle;whiteSpace=wrap;rounded=0;" parent="1" vertex="1">
          <mxGeometry x="-1380" y="143" width="310" height="30" as="geometry" />
        </mxCell>
        <mxCell id="ISwjRsLXD4yoOcMXPSiY-11" value="" style="group" parent="1" vertex="1" connectable="0">
          <mxGeometry x="-2383" y="185" width="270" height="39" as="geometry" />
        </mxCell>
        <mxCell id="D1CTnjmkYU0Mq4A9S6dc-1" value="" style="rounded=1;whiteSpace=wrap;html=1;strokeColor=none;fillColor=#1C57CD;" parent="ISwjRsLXD4yoOcMXPSiY-11" vertex="1">
          <mxGeometry width="270" height="39" as="geometry" />
        </mxCell>
        <mxCell id="D1CTnjmkYU0Mq4A9S6dc-2" value="" style="sketch=0;outlineConnect=0;fontColor=#FFFFFF;gradientColor=none;fillColor=#FFFFFF;strokeColor=none;dashed=0;verticalLabelPosition=bottom;verticalAlign=top;align=center;html=1;fontSize=12;fontStyle=0;aspect=fixed;pointerEvents=1;shape=mxgraph.aws4.gear;rounded=1;" parent="ISwjRsLXD4yoOcMXPSiY-11" vertex="1">
          <mxGeometry x="238" y="12" width="17" height="17" as="geometry" />
        </mxCell>
        <mxCell id="D1CTnjmkYU0Mq4A9S6dc-3" value="&lt;font style=&quot;font-size: 18px;&quot;&gt;Функция&lt;/font&gt;" style="text;html=1;align=center;verticalAlign=middle;whiteSpace=wrap;rounded=1;fontSize=13;fontColor=#FFFFFF;" parent="ISwjRsLXD4yoOcMXPSiY-11" vertex="1">
          <mxGeometry x="22" y="5" width="78" height="30" as="geometry" />
        </mxCell>
        <mxCell id="ISwjRsLXD4yoOcMXPSiY-12" value="" style="group" parent="1" vertex="1" connectable="0">
          <mxGeometry x="-2067" y="192" width="157" height="25" as="geometry" />
        </mxCell>
        <mxCell id="D1CTnjmkYU0Mq4A9S6dc-12" value="&lt;p style=&quot;margin: 0px 0px 0px 13px; text-indent: -13px; font-variant-numeric: normal; font-variant-east-asian: normal; font-variant-alternates: normal; font-kerning: auto; font-optical-sizing: auto; font-feature-settings: normal; font-variation-settings: normal; font-variant-position: normal; font-stretch: normal; font-size: 14px; line-height: normal; color: rgb(14, 14, 14); text-align: start;&quot; class=&quot;p1&quot;&gt;&lt;br&gt;&lt;/p&gt;" style="rounded=1;whiteSpace=wrap;html=1;fillColor=#FF77BF;strokeColor=none;arcSize=33;" parent="ISwjRsLXD4yoOcMXPSiY-12" vertex="1">
          <mxGeometry x="3" y="1" width="151" height="24" as="geometry" />
        </mxCell>
        <mxCell id="D1CTnjmkYU0Mq4A9S6dc-13" value="&lt;span style=&quot;font-size: 18px;&quot;&gt;&lt;i&gt;Стэк/Окружение&lt;/i&gt;&lt;/span&gt;" style="text;html=1;align=center;verticalAlign=middle;whiteSpace=wrap;rounded=1;shadow=0;fontSize=23;fontStyle=1" parent="ISwjRsLXD4yoOcMXPSiY-12" vertex="1">
          <mxGeometry width="157" height="17" as="geometry" />
        </mxCell>
        <mxCell id="ISwjRsLXD4yoOcMXPSiY-13" value="" style="group" parent="1" vertex="1" connectable="0">
          <mxGeometry x="-2743" y="338" width="333" height="145" as="geometry" />
        </mxCell>
        <mxCell id="D1CTnjmkYU0Mq4A9S6dc-9" value="" style="rounded=1;whiteSpace=wrap;html=1;arcSize=5;fillColor=#fff2cc;strokeColor=#d6b656;" parent="ISwjRsLXD4yoOcMXPSiY-13" vertex="1">
          <mxGeometry width="333" height="145" as="geometry" />
        </mxCell>
        <mxCell id="D1CTnjmkYU0Mq4A9S6dc-10" value="&lt;span style=&quot;font-weight: normal;&quot;&gt;Внешний/Партнёрский сервис&lt;/span&gt;" style="text;html=1;align=center;verticalAlign=middle;whiteSpace=wrap;rounded=1;shadow=0;fontSize=23;fontStyle=1" parent="ISwjRsLXD4yoOcMXPSiY-13" vertex="1">
          <mxGeometry x="2" y="1" width="331" height="49" as="geometry" />
        </mxCell>
        <mxCell id="ISwjRsLXD4yoOcMXPSiY-14" value="" style="group" parent="1" vertex="1" connectable="0">
          <mxGeometry x="-2746" y="170" width="331" height="143" as="geometry" />
        </mxCell>
        <mxCell id="D1CTnjmkYU0Mq4A9S6dc-5" value="" style="rounded=1;whiteSpace=wrap;html=1;arcSize=5;fillColor=#f5f5f5;strokeColor=#1C57CD;strokeWidth=3;" parent="ISwjRsLXD4yoOcMXPSiY-14" vertex="1">
          <mxGeometry width="331" height="143" as="geometry" />
        </mxCell>
        <mxCell id="D1CTnjmkYU0Mq4A9S6dc-6" value="&lt;font style=&quot;font-size: 23px;&quot;&gt;Система/Сервис&lt;/font&gt;" style="text;html=1;align=center;verticalAlign=middle;whiteSpace=wrap;rounded=1;fontSize=13;" parent="ISwjRsLXD4yoOcMXPSiY-14" vertex="1">
          <mxGeometry x="1" y="6" width="206" height="30" as="geometry" />
        </mxCell>
        <mxCell id="MQtoxVUBuhqvLoLKHlp6-437" value="" style="group" vertex="1" connectable="0" parent="1">
          <mxGeometry x="-2474" y="-2665" width="886" height="458" as="geometry" />
        </mxCell>
        <mxCell id="MQtoxVUBuhqvLoLKHlp6-440" value="" style="sketch=0;outlineConnect=0;fontColor=#232F3E;gradientColor=none;fillColor=#FFFFFF;strokeColor=none;dashed=0;verticalLabelPosition=bottom;verticalAlign=top;align=center;html=1;fontSize=12;fontStyle=0;aspect=fixed;pointerEvents=1;shape=mxgraph.aws4.gear;rounded=1;" vertex="1" parent="MQtoxVUBuhqvLoLKHlp6-437">
          <mxGeometry x="703" y="276" width="17" height="17" as="geometry" />
        </mxCell>
        <mxCell id="MQtoxVUBuhqvLoLKHlp6-1793" value="" style="rounded=1;whiteSpace=wrap;html=1;arcSize=4;movable=1;resizable=1;rotatable=1;deletable=1;editable=1;locked=0;connectable=1;fillColor=#f5f5f5;strokeColor=#1C57CD;strokeWidth=3;fontColor=#333333;" vertex="1" parent="MQtoxVUBuhqvLoLKHlp6-437">
          <mxGeometry x="143" y="34" width="700.5" height="406" as="geometry" />
        </mxCell>
        <mxCell id="MQtoxVUBuhqvLoLKHlp6-1986" value="" style="group" vertex="1" connectable="0" parent="MQtoxVUBuhqvLoLKHlp6-437">
          <mxGeometry x="181" y="320" width="309" height="39" as="geometry" />
        </mxCell>
        <mxCell id="MQtoxVUBuhqvLoLKHlp6-1987" value="" style="rounded=1;whiteSpace=wrap;html=1;fillColor=#1C57CD;strokeColor=none;" vertex="1" parent="MQtoxVUBuhqvLoLKHlp6-1986">
          <mxGeometry width="309" height="39" as="geometry" />
        </mxCell>
        <mxCell id="MQtoxVUBuhqvLoLKHlp6-1988" value="" style="sketch=0;outlineConnect=0;fontColor=#232F3E;gradientColor=none;fillColor=#FFFFFF;strokeColor=none;dashed=0;verticalLabelPosition=bottom;verticalAlign=top;align=center;html=1;fontSize=12;fontStyle=0;aspect=fixed;pointerEvents=1;shape=mxgraph.aws4.gear;rounded=1;" vertex="1" parent="MQtoxVUBuhqvLoLKHlp6-1986">
          <mxGeometry x="280" y="11" width="17" height="17" as="geometry" />
        </mxCell>
        <mxCell id="MQtoxVUBuhqvLoLKHlp6-1989" value="Инициировать отмену транзакции" style="text;html=1;align=center;verticalAlign=middle;whiteSpace=wrap;rounded=1;fontSize=13;fontColor=#FFFFFF;strokeColor=none;" vertex="1" parent="MQtoxVUBuhqvLoLKHlp6-1986">
          <mxGeometry x="2" y="4" width="223" height="30" as="geometry" />
        </mxCell>
        <mxCell id="MQtoxVUBuhqvLoLKHlp6-1990" value="" style="group" vertex="1" connectable="0" parent="MQtoxVUBuhqvLoLKHlp6-437">
          <mxGeometry x="181" y="273" width="309" height="39" as="geometry" />
        </mxCell>
        <mxCell id="MQtoxVUBuhqvLoLKHlp6-1991" value="" style="rounded=1;whiteSpace=wrap;html=1;fillColor=#1C57CD;strokeColor=none;" vertex="1" parent="MQtoxVUBuhqvLoLKHlp6-1990">
          <mxGeometry width="309" height="39" as="geometry" />
        </mxCell>
        <mxCell id="MQtoxVUBuhqvLoLKHlp6-1992" value="" style="sketch=0;outlineConnect=0;fontColor=#232F3E;gradientColor=none;fillColor=#FFFFFF;strokeColor=none;dashed=0;verticalLabelPosition=bottom;verticalAlign=top;align=center;html=1;fontSize=12;fontStyle=0;aspect=fixed;pointerEvents=1;shape=mxgraph.aws4.gear;rounded=1;" vertex="1" parent="MQtoxVUBuhqvLoLKHlp6-1990">
          <mxGeometry x="280" y="11" width="17" height="17" as="geometry" />
        </mxCell>
        <mxCell id="MQtoxVUBuhqvLoLKHlp6-1993" value="Предоставить список и статус операций" style="text;html=1;align=center;verticalAlign=middle;whiteSpace=wrap;rounded=1;fontSize=13;fontColor=#FFFFFF;strokeColor=none;" vertex="1" parent="MQtoxVUBuhqvLoLKHlp6-1990">
          <mxGeometry y="4.5" width="263" height="30" as="geometry" />
        </mxCell>
        <mxCell id="MQtoxVUBuhqvLoLKHlp6-1994" value="" style="group" vertex="1" connectable="0" parent="MQtoxVUBuhqvLoLKHlp6-437">
          <mxGeometry x="174" y="227" width="316" height="39" as="geometry" />
        </mxCell>
        <mxCell id="MQtoxVUBuhqvLoLKHlp6-1995" value="" style="rounded=1;whiteSpace=wrap;html=1;fillColor=#1C57CD;strokeColor=none;" vertex="1" parent="MQtoxVUBuhqvLoLKHlp6-1994">
          <mxGeometry x="7" width="309" height="39" as="geometry" />
        </mxCell>
        <mxCell id="MQtoxVUBuhqvLoLKHlp6-1996" value="" style="sketch=0;outlineConnect=0;fontColor=#232F3E;gradientColor=none;fillColor=#FFFFFF;strokeColor=none;dashed=0;verticalLabelPosition=bottom;verticalAlign=top;align=center;html=1;fontSize=12;fontStyle=0;aspect=fixed;pointerEvents=1;shape=mxgraph.aws4.gear;rounded=1;" vertex="1" parent="MQtoxVUBuhqvLoLKHlp6-1994">
          <mxGeometry x="287" y="11" width="17" height="17" as="geometry" />
        </mxCell>
        <mxCell id="MQtoxVUBuhqvLoLKHlp6-1997" value="Авторизация платёжной операции" style="text;html=1;align=center;verticalAlign=middle;whiteSpace=wrap;rounded=1;fontSize=13;fontColor=#FFFFFF;strokeColor=none;" vertex="1" parent="MQtoxVUBuhqvLoLKHlp6-1994">
          <mxGeometry y="4.5" width="243" height="30" as="geometry" />
        </mxCell>
        <mxCell id="MQtoxVUBuhqvLoLKHlp6-1998" value="" style="group" vertex="1" connectable="0" parent="MQtoxVUBuhqvLoLKHlp6-437">
          <mxGeometry x="181" y="183" width="309" height="39" as="geometry" />
        </mxCell>
        <mxCell id="MQtoxVUBuhqvLoLKHlp6-1999" value="" style="rounded=1;whiteSpace=wrap;html=1;fillColor=#1C57CD;strokeColor=none;" vertex="1" parent="MQtoxVUBuhqvLoLKHlp6-1998">
          <mxGeometry width="309" height="39" as="geometry" />
        </mxCell>
        <mxCell id="MQtoxVUBuhqvLoLKHlp6-2000" value="" style="sketch=0;outlineConnect=0;fontColor=#232F3E;gradientColor=none;fillColor=#FFFFFF;strokeColor=none;dashed=0;verticalLabelPosition=bottom;verticalAlign=top;align=center;html=1;fontSize=12;fontStyle=0;aspect=fixed;pointerEvents=1;shape=mxgraph.aws4.gear;rounded=1;" vertex="1" parent="MQtoxVUBuhqvLoLKHlp6-1998">
          <mxGeometry x="280" y="11" width="17" height="17" as="geometry" />
        </mxCell>
        <mxCell id="MQtoxVUBuhqvLoLKHlp6-2001" value="Учёт платёжной операции" style="text;html=1;align=center;verticalAlign=middle;whiteSpace=wrap;rounded=1;fontSize=13;fontColor=#FFFFFF;strokeColor=none;" vertex="1" parent="MQtoxVUBuhqvLoLKHlp6-1998">
          <mxGeometry x="5" y="4.5" width="173" height="30" as="geometry" />
        </mxCell>
        <mxCell id="MQtoxVUBuhqvLoLKHlp6-2002" value="" style="group" vertex="1" connectable="0" parent="MQtoxVUBuhqvLoLKHlp6-437">
          <mxGeometry x="184.5" y="138" width="309" height="39" as="geometry" />
        </mxCell>
        <mxCell id="MQtoxVUBuhqvLoLKHlp6-2003" value="" style="rounded=1;whiteSpace=wrap;html=1;fillColor=#1C57CD;strokeColor=none;" vertex="1" parent="MQtoxVUBuhqvLoLKHlp6-2002">
          <mxGeometry x="-3.5" width="309" height="39" as="geometry" />
        </mxCell>
        <mxCell id="MQtoxVUBuhqvLoLKHlp6-2004" value="" style="sketch=0;outlineConnect=0;fontColor=#232F3E;gradientColor=none;fillColor=#FFFFFF;strokeColor=none;dashed=0;verticalLabelPosition=bottom;verticalAlign=top;align=center;html=1;fontSize=12;fontStyle=0;aspect=fixed;pointerEvents=1;shape=mxgraph.aws4.gear;rounded=1;" vertex="1" parent="MQtoxVUBuhqvLoLKHlp6-2002">
          <mxGeometry x="280" y="11" width="17" height="17" as="geometry" />
        </mxCell>
        <mxCell id="MQtoxVUBuhqvLoLKHlp6-2005" value="Инициировать платёжную операцию" style="text;html=1;align=center;verticalAlign=middle;whiteSpace=wrap;rounded=1;fontSize=13;fontColor=#FFFFFF;strokeColor=none;" vertex="1" parent="MQtoxVUBuhqvLoLKHlp6-2002">
          <mxGeometry y="4.5" width="243" height="30" as="geometry" />
        </mxCell>
        <mxCell id="MQtoxVUBuhqvLoLKHlp6-1886" value="" style="group" vertex="1" connectable="0" parent="MQtoxVUBuhqvLoLKHlp6-437">
          <mxGeometry x="185" y="93" width="309" height="39" as="geometry" />
        </mxCell>
        <mxCell id="MQtoxVUBuhqvLoLKHlp6-1887" value="" style="rounded=1;whiteSpace=wrap;html=1;fillColor=#1C57CD;strokeColor=none;" vertex="1" parent="MQtoxVUBuhqvLoLKHlp6-1886">
          <mxGeometry width="309" height="39" as="geometry" />
        </mxCell>
        <mxCell id="MQtoxVUBuhqvLoLKHlp6-1888" value="" style="sketch=0;outlineConnect=0;fontColor=#232F3E;gradientColor=none;fillColor=#FFFFFF;strokeColor=none;dashed=0;verticalLabelPosition=bottom;verticalAlign=top;align=center;html=1;fontSize=12;fontStyle=0;aspect=fixed;pointerEvents=1;shape=mxgraph.aws4.gear;rounded=1;" vertex="1" parent="MQtoxVUBuhqvLoLKHlp6-1886">
          <mxGeometry x="286" y="11" width="17" height="17" as="geometry" />
        </mxCell>
        <mxCell id="MQtoxVUBuhqvLoLKHlp6-1889" value="Определить способ оплаты" style="text;html=1;align=center;verticalAlign=middle;whiteSpace=wrap;rounded=1;fontSize=13;fontColor=#FFFFFF;strokeColor=none;" vertex="1" parent="MQtoxVUBuhqvLoLKHlp6-1886">
          <mxGeometry x="7" y="4.5" width="173" height="30" as="geometry" />
        </mxCell>
        <mxCell id="MQtoxVUBuhqvLoLKHlp6-1801" value="" style="strokeWidth=2;html=1;shape=mxgraph.flowchart.database;whiteSpace=wrap;rounded=1;movable=1;resizable=1;rotatable=1;deletable=1;editable=1;locked=0;connectable=1;" vertex="1" parent="MQtoxVUBuhqvLoLKHlp6-437">
          <mxGeometry x="548" y="96" width="207" height="232" as="geometry" />
        </mxCell>
        <mxCell id="MQtoxVUBuhqvLoLKHlp6-1816" value="&lt;p style=&quot;margin: 0px 0px 0px 13px; text-indent: -13px; font-variant-numeric: normal; font-variant-east-asian: normal; font-variant-alternates: normal; font-kerning: auto; font-optical-sizing: auto; font-feature-settings: normal; font-variation-settings: normal; font-variant-position: normal; font-stretch: normal; font-size: 14px; line-height: normal; color: rgb(14, 14, 14); text-align: start;&quot; class=&quot;p1&quot;&gt;&lt;font face=&quot;Times New Roman&quot;&gt;Транзакция.Заказ&lt;/font&gt;&lt;/p&gt;" style="rounded=1;whiteSpace=wrap;html=1;fillColor=#b1ddf0;strokeColor=#FF0000;strokeWidth=2;" vertex="1" parent="MQtoxVUBuhqvLoLKHlp6-437">
          <mxGeometry x="570" y="234" width="147" height="21" as="geometry" />
        </mxCell>
        <mxCell id="MQtoxVUBuhqvLoLKHlp6-1823" value="&lt;p style=&quot;margin: 0px 0px 0px 13px; text-indent: -13px; font-variant-numeric: normal; font-variant-east-asian: normal; font-variant-alternates: normal; font-kerning: auto; font-optical-sizing: auto; font-feature-settings: normal; font-variation-settings: normal; font-variant-position: normal; font-stretch: normal; line-height: normal; text-align: start;&quot; class=&quot;p1&quot;&gt;&lt;span style=&quot;text-align: center; text-indent: 0px;&quot;&gt;&lt;font style=&quot;font-size: 14px;&quot; face=&quot;Times New Roman&quot;&gt;[Транзакция.ID]&lt;/font&gt;&lt;/span&gt;&lt;br&gt;&lt;/p&gt;" style="rounded=1;whiteSpace=wrap;html=1;fillColor=#B8B8B8;strokeColor=#FFD966;" vertex="1" parent="MQtoxVUBuhqvLoLKHlp6-437">
          <mxGeometry x="569" y="204" width="104" height="21" as="geometry" />
        </mxCell>
        <mxCell id="MQtoxVUBuhqvLoLKHlp6-1824" value="&lt;p style=&quot;margin: 0px 0px 0px 13px; text-indent: -13px; font-variant-numeric: normal; font-variant-east-asian: normal; font-variant-alternates: normal; font-kerning: auto; font-optical-sizing: auto; font-feature-settings: normal; font-variation-settings: normal; font-variant-position: normal; font-stretch: normal; line-height: normal; text-align: start;&quot; class=&quot;p1&quot;&gt;&lt;span style=&quot;text-align: center; text-indent: 0px;&quot;&gt;&lt;font style=&quot;font-size: 14px;&quot; face=&quot;Times New Roman&quot;&gt;[Транзакция.Статус]&lt;/font&gt;&lt;/span&gt;&lt;br&gt;&lt;/p&gt;" style="rounded=1;whiteSpace=wrap;html=1;fillColor=#B8B8B8;strokeColor=#FFD966;" vertex="1" parent="MQtoxVUBuhqvLoLKHlp6-437">
          <mxGeometry x="572" y="266" width="125" height="21" as="geometry" />
        </mxCell>
        <mxCell id="MQtoxVUBuhqvLoLKHlp6-2006" value="" style="group" vertex="1" connectable="0" parent="MQtoxVUBuhqvLoLKHlp6-437">
          <mxGeometry x="584" y="109" width="151" height="49" as="geometry" />
        </mxCell>
        <mxCell id="MQtoxVUBuhqvLoLKHlp6-2007" value="&lt;p style=&quot;margin: 0px 0px 0px 13px; text-indent: -13px; font-variant-numeric: normal; font-variant-east-asian: normal; font-variant-alternates: normal; font-kerning: auto; font-optical-sizing: auto; font-feature-settings: normal; font-variation-settings: normal; font-variant-position: normal; font-stretch: normal; font-size: 14px; line-height: normal; color: rgb(14, 14, 14); text-align: start;&quot; class=&quot;p1&quot;&gt;&lt;br&gt;&lt;/p&gt;" style="rounded=1;whiteSpace=wrap;html=1;fillColor=#FF77BF;strokeColor=none;arcSize=50;" vertex="1" parent="MQtoxVUBuhqvLoLKHlp6-2006">
          <mxGeometry y="9" width="151" height="33" as="geometry" />
        </mxCell>
        <mxCell id="MQtoxVUBuhqvLoLKHlp6-2008" value="&lt;font style=&quot;font-size: 18px;&quot;&gt;&lt;i&gt;PostgreSQL&lt;/i&gt;&lt;/font&gt;" style="text;html=1;align=center;verticalAlign=middle;whiteSpace=wrap;rounded=1;shadow=0;fontSize=23;fontStyle=1" vertex="1" parent="MQtoxVUBuhqvLoLKHlp6-2006">
          <mxGeometry x="31" width="89" height="49" as="geometry" />
        </mxCell>
        <mxCell id="MQtoxVUBuhqvLoLKHlp6-1797" value="" style="group" vertex="1" connectable="0" parent="MQtoxVUBuhqvLoLKHlp6-437">
          <mxGeometry x="182" y="14" width="151" height="36" as="geometry" />
        </mxCell>
        <mxCell id="MQtoxVUBuhqvLoLKHlp6-1798" value="&lt;p style=&quot;margin: 0px 0px 0px 13px; text-indent: -13px; font-variant-numeric: normal; font-variant-east-asian: normal; font-variant-alternates: normal; font-kerning: auto; font-optical-sizing: auto; font-feature-settings: normal; font-variation-settings: normal; font-variant-position: normal; font-stretch: normal; font-size: 14px; line-height: normal; color: rgb(14, 14, 14); text-align: start;&quot; class=&quot;p1&quot;&gt;&lt;br&gt;&lt;/p&gt;" style="rounded=1;whiteSpace=wrap;html=1;fillColor=#FF77BF;strokeColor=none;arcSize=33;" vertex="1" parent="MQtoxVUBuhqvLoLKHlp6-1797">
          <mxGeometry y="5" width="151" height="31" as="geometry" />
        </mxCell>
        <mxCell id="MQtoxVUBuhqvLoLKHlp6-1799" value="&lt;font style=&quot;font-size: 18px;&quot;&gt;&lt;i&gt;Django/Python&lt;/i&gt;&lt;/font&gt;" style="text;html=1;align=center;verticalAlign=middle;whiteSpace=wrap;rounded=1;shadow=0;fontSize=23;fontStyle=1" vertex="1" parent="MQtoxVUBuhqvLoLKHlp6-1797">
          <mxGeometry x="30" width="89" height="36" as="geometry" />
        </mxCell>
        <mxCell id="MQtoxVUBuhqvLoLKHlp6-1800" value="Сервис платежей" style="text;html=1;align=center;verticalAlign=middle;whiteSpace=wrap;rounded=1;shadow=0;fontSize=23;fontStyle=1" vertex="1" parent="MQtoxVUBuhqvLoLKHlp6-437">
          <mxGeometry x="239" y="40" width="549" height="49" as="geometry" />
        </mxCell>
        <mxCell id="MQtoxVUBuhqvLoLKHlp6-654" value="" style="group" vertex="1" connectable="0" parent="1">
          <mxGeometry x="-864" y="-2626" width="771.5" height="458" as="geometry" />
        </mxCell>
        <mxCell id="MQtoxVUBuhqvLoLKHlp6-655" value="" style="rounded=1;whiteSpace=wrap;html=1;arcSize=4;movable=1;resizable=1;rotatable=1;deletable=1;editable=1;locked=0;connectable=1;fillColor=#f5f5f5;strokeColor=#1C57CD;strokeWidth=3;fontColor=#333333;" vertex="1" parent="MQtoxVUBuhqvLoLKHlp6-654">
          <mxGeometry x="42" y="60" width="606.5" height="352" as="geometry" />
        </mxCell>
        <mxCell id="MQtoxVUBuhqvLoLKHlp6-816" value="" style="group" vertex="1" connectable="0" parent="MQtoxVUBuhqvLoLKHlp6-654">
          <mxGeometry x="64" y="121" width="309" height="39" as="geometry" />
        </mxCell>
        <mxCell id="MQtoxVUBuhqvLoLKHlp6-817" value="" style="rounded=1;whiteSpace=wrap;html=1;fillColor=#1C57CD;strokeColor=none;" vertex="1" parent="MQtoxVUBuhqvLoLKHlp6-816">
          <mxGeometry width="309" height="39" as="geometry" />
        </mxCell>
        <mxCell id="MQtoxVUBuhqvLoLKHlp6-818" value="" style="sketch=0;outlineConnect=0;fontColor=#232F3E;gradientColor=none;fillColor=#FFFFFF;strokeColor=none;dashed=0;verticalLabelPosition=bottom;verticalAlign=top;align=center;html=1;fontSize=12;fontStyle=0;aspect=fixed;pointerEvents=1;shape=mxgraph.aws4.gear;rounded=1;" vertex="1" parent="MQtoxVUBuhqvLoLKHlp6-816">
          <mxGeometry x="280" y="11" width="17" height="17" as="geometry" />
        </mxCell>
        <mxCell id="MQtoxVUBuhqvLoLKHlp6-819" value="Сгенерировать отчёт активности пользователей" style="text;html=1;align=center;verticalAlign=middle;whiteSpace=wrap;rounded=1;fontSize=13;fontColor=#FFFFFF;strokeColor=none;" vertex="1" parent="MQtoxVUBuhqvLoLKHlp6-816">
          <mxGeometry x="5" y="6" width="215" height="30" as="geometry" />
        </mxCell>
        <mxCell id="MQtoxVUBuhqvLoLKHlp6-800" value="" style="group" vertex="1" connectable="0" parent="MQtoxVUBuhqvLoLKHlp6-654">
          <mxGeometry x="63" y="215" width="309" height="39" as="geometry" />
        </mxCell>
        <mxCell id="MQtoxVUBuhqvLoLKHlp6-801" value="" style="rounded=1;whiteSpace=wrap;html=1;fillColor=#1C57CD;strokeColor=none;" vertex="1" parent="MQtoxVUBuhqvLoLKHlp6-800">
          <mxGeometry width="309" height="39" as="geometry" />
        </mxCell>
        <mxCell id="MQtoxVUBuhqvLoLKHlp6-802" value="" style="sketch=0;outlineConnect=0;fontColor=#232F3E;gradientColor=none;fillColor=#FFFFFF;strokeColor=none;dashed=0;verticalLabelPosition=bottom;verticalAlign=top;align=center;html=1;fontSize=12;fontStyle=0;aspect=fixed;pointerEvents=1;shape=mxgraph.aws4.gear;rounded=1;" vertex="1" parent="MQtoxVUBuhqvLoLKHlp6-800">
          <mxGeometry x="286" y="11" width="17" height="17" as="geometry" />
        </mxCell>
        <mxCell id="MQtoxVUBuhqvLoLKHlp6-803" value="Сгенерировать отчёт по продажам" style="text;html=1;align=center;verticalAlign=middle;whiteSpace=wrap;rounded=1;fontSize=13;fontColor=#FFFFFF;strokeColor=none;" vertex="1" parent="MQtoxVUBuhqvLoLKHlp6-800">
          <mxGeometry x="6" y="4.5" width="226" height="30" as="geometry" />
        </mxCell>
        <mxCell id="MQtoxVUBuhqvLoLKHlp6-659" value="" style="group" vertex="1" connectable="0" parent="MQtoxVUBuhqvLoLKHlp6-654">
          <mxGeometry x="68.5" y="44" width="151" height="36" as="geometry" />
        </mxCell>
        <mxCell id="MQtoxVUBuhqvLoLKHlp6-660" value="&lt;p style=&quot;margin: 0px 0px 0px 13px; text-indent: -13px; font-variant-numeric: normal; font-variant-east-asian: normal; font-variant-alternates: normal; font-kerning: auto; font-optical-sizing: auto; font-feature-settings: normal; font-variation-settings: normal; font-variant-position: normal; font-stretch: normal; font-size: 14px; line-height: normal; color: rgb(14, 14, 14); text-align: start;&quot; class=&quot;p1&quot;&gt;&lt;br&gt;&lt;/p&gt;" style="rounded=1;whiteSpace=wrap;html=1;fillColor=#FF77BF;strokeColor=none;arcSize=33;" vertex="1" parent="MQtoxVUBuhqvLoLKHlp6-659">
          <mxGeometry y="5" width="151" height="31" as="geometry" />
        </mxCell>
        <mxCell id="MQtoxVUBuhqvLoLKHlp6-661" value="&lt;font style=&quot;font-size: 18px;&quot;&gt;&lt;i&gt;Django/Python&lt;/i&gt;&lt;/font&gt;" style="text;html=1;align=center;verticalAlign=middle;whiteSpace=wrap;rounded=1;shadow=0;fontSize=23;fontStyle=1" vertex="1" parent="MQtoxVUBuhqvLoLKHlp6-659">
          <mxGeometry x="30" width="89" height="36" as="geometry" />
        </mxCell>
        <mxCell id="MQtoxVUBuhqvLoLKHlp6-662" value="Сервис отчетности и аналитики" style="text;html=1;align=center;verticalAlign=middle;whiteSpace=wrap;rounded=1;shadow=0;fontSize=23;fontStyle=1" vertex="1" parent="MQtoxVUBuhqvLoLKHlp6-654">
          <mxGeometry x="125.5" y="70" width="549" height="49" as="geometry" />
        </mxCell>
        <mxCell id="MQtoxVUBuhqvLoLKHlp6-804" value="" style="group" vertex="1" connectable="0" parent="MQtoxVUBuhqvLoLKHlp6-654">
          <mxGeometry x="62.5" y="168" width="309" height="39" as="geometry" />
        </mxCell>
        <mxCell id="MQtoxVUBuhqvLoLKHlp6-805" value="" style="rounded=1;whiteSpace=wrap;html=1;fillColor=#1C57CD;strokeColor=none;" vertex="1" parent="MQtoxVUBuhqvLoLKHlp6-804">
          <mxGeometry width="309" height="39" as="geometry" />
        </mxCell>
        <mxCell id="MQtoxVUBuhqvLoLKHlp6-806" value="" style="sketch=0;outlineConnect=0;fontColor=#232F3E;gradientColor=none;fillColor=#FFFFFF;strokeColor=none;dashed=0;verticalLabelPosition=bottom;verticalAlign=top;align=center;html=1;fontSize=12;fontStyle=0;aspect=fixed;pointerEvents=1;shape=mxgraph.aws4.gear;rounded=1;" vertex="1" parent="MQtoxVUBuhqvLoLKHlp6-804">
          <mxGeometry x="286" y="11" width="17" height="17" as="geometry" />
        </mxCell>
        <mxCell id="MQtoxVUBuhqvLoLKHlp6-807" value="Отобразить статистику заказов" style="text;html=1;align=center;verticalAlign=middle;whiteSpace=wrap;rounded=1;fontSize=13;fontColor=#FFFFFF;strokeColor=none;" vertex="1" parent="MQtoxVUBuhqvLoLKHlp6-804">
          <mxGeometry x="6.5" y="4.5" width="202" height="30" as="geometry" />
        </mxCell>
        <mxCell id="MQtoxVUBuhqvLoLKHlp6-221" value="" style="rounded=1;whiteSpace=wrap;html=1;arcSize=4;movable=1;resizable=1;rotatable=1;deletable=1;editable=1;locked=0;connectable=1;fillColor=#f5f5f5;strokeColor=#1C57CD;strokeWidth=3;fontColor=#333333;" vertex="1" parent="1">
          <mxGeometry x="-2921" y="-681" width="752" height="438" as="geometry" />
        </mxCell>
        <mxCell id="MQtoxVUBuhqvLoLKHlp6-229" value="" style="strokeWidth=2;html=1;shape=mxgraph.flowchart.database;whiteSpace=wrap;rounded=1;movable=1;resizable=1;rotatable=1;deletable=1;editable=1;locked=0;connectable=1;" vertex="1" parent="1">
          <mxGeometry x="-2586" y="-603" width="396" height="334" as="geometry" />
        </mxCell>
        <mxCell id="MQtoxVUBuhqvLoLKHlp6-233" value="&lt;p style=&quot;margin: 0px 0px 0px 13px; text-indent: -13px; font-variant-numeric: normal; font-variant-east-asian: normal; font-variant-alternates: normal; font-kerning: auto; font-optical-sizing: auto; font-feature-settings: normal; font-variation-settings: normal; font-variant-position: normal; font-stretch: normal; font-size: 14px; line-height: normal; color: rgb(14, 14, 14); text-align: start;&quot; class=&quot;p1&quot;&gt;&lt;font face=&quot;Times New Roman&quot;&gt;Пользователь.Роль&lt;/font&gt;&lt;/p&gt;" style="rounded=1;whiteSpace=wrap;html=1;fillColor=#b1ddf0;strokeColor=#10739e;movable=1;resizable=1;rotatable=1;deletable=1;editable=1;locked=0;connectable=1;" vertex="1" parent="1">
          <mxGeometry x="-2576.5" y="-402.5" width="151" height="21" as="geometry" />
        </mxCell>
        <mxCell id="MQtoxVUBuhqvLoLKHlp6-234" value="&lt;p style=&quot;margin: 0px 0px 0px 13px; text-indent: -13px; font-variant-numeric: normal; font-variant-east-asian: normal; font-variant-alternates: normal; font-kerning: auto; font-optical-sizing: auto; font-feature-settings: normal; font-variation-settings: normal; font-variant-position: normal; font-stretch: normal; font-size: 14px; line-height: normal; color: rgb(14, 14, 14); text-align: start;&quot; class=&quot;p1&quot;&gt;&lt;font face=&quot;Times New Roman&quot;&gt;Пользователь.ID&lt;/font&gt;&lt;/p&gt;" style="rounded=1;whiteSpace=wrap;html=1;fillColor=#b1ddf0;strokeColor=#10739e;movable=1;resizable=1;rotatable=1;deletable=1;editable=1;locked=0;connectable=1;" vertex="1" parent="1">
          <mxGeometry x="-2576.5" y="-374.5" width="151" height="21" as="geometry" />
        </mxCell>
        <mxCell id="MQtoxVUBuhqvLoLKHlp6-235" value="&lt;p style=&quot;margin: 0px 0px 0px 13px; text-indent: -13px; font-variant-numeric: normal; font-variant-east-asian: normal; font-variant-alternates: normal; font-kerning: auto; font-optical-sizing: auto; font-feature-settings: normal; font-variation-settings: normal; font-variant-position: normal; font-stretch: normal; font-size: 14px; line-height: normal; color: rgb(14, 14, 14); text-align: start;&quot; class=&quot;p1&quot;&gt;&lt;font face=&quot;Times New Roman&quot;&gt;Пользователь.Имя&lt;/font&gt;&lt;/p&gt;" style="rounded=1;whiteSpace=wrap;html=1;fillColor=#b1ddf0;strokeColor=#10739e;movable=1;resizable=1;rotatable=1;deletable=1;editable=1;locked=0;connectable=1;" vertex="1" parent="1">
          <mxGeometry x="-2577.5" y="-484" width="119" height="21" as="geometry" />
        </mxCell>
        <mxCell id="MQtoxVUBuhqvLoLKHlp6-236" value="&lt;p style=&quot;margin: 0px 0px 0px 13px; text-indent: -13px; font-variant-numeric: normal; font-variant-east-asian: normal; font-variant-alternates: normal; font-kerning: auto; font-optical-sizing: auto; font-feature-settings: normal; font-variation-settings: normal; font-variant-position: normal; font-stretch: normal; font-size: 14px; line-height: normal; color: rgb(14, 14, 14); text-align: start;&quot; class=&quot;p1&quot;&gt;&lt;font face=&quot;Times New Roman&quot;&gt;Пользователь.Фамилия&lt;/font&gt;&lt;/p&gt;" style="rounded=1;whiteSpace=wrap;html=1;fillColor=#b1ddf0;strokeColor=#10739e;movable=1;resizable=1;rotatable=1;deletable=1;editable=1;locked=0;connectable=1;" vertex="1" parent="1">
          <mxGeometry x="-2576.5" y="-347.5" width="151" height="21" as="geometry" />
        </mxCell>
        <mxCell id="MQtoxVUBuhqvLoLKHlp6-237" value="&lt;p style=&quot;margin: 0px 0px 0px 13px; text-indent: -13px; font-variant-numeric: normal; font-variant-east-asian: normal; font-variant-alternates: normal; font-kerning: auto; font-optical-sizing: auto; font-feature-settings: normal; font-variation-settings: normal; font-variant-position: normal; font-stretch: normal; font-size: 14px; line-height: normal; color: rgb(14, 14, 14); text-align: start;&quot; class=&quot;p1&quot;&gt;&lt;font face=&quot;Times New Roman&quot;&gt;Пользователь.Адрес&lt;/font&gt;&lt;/p&gt;" style="rounded=1;whiteSpace=wrap;html=1;fillColor=#b1ddf0;strokeColor=#10739e;movable=1;resizable=1;rotatable=1;deletable=1;editable=1;locked=0;connectable=1;" vertex="1" parent="1">
          <mxGeometry x="-2576.5" y="-322" width="130" height="21" as="geometry" />
        </mxCell>
        <mxCell id="MQtoxVUBuhqvLoLKHlp6-238" value="&lt;p style=&quot;margin: 0px 0px 0px 13px; text-indent: -13px; font-variant-numeric: normal; font-variant-east-asian: normal; font-variant-alternates: normal; font-kerning: auto; font-optical-sizing: auto; font-feature-settings: normal; font-variation-settings: normal; font-variant-position: normal; font-stretch: normal; font-size: 14px; line-height: normal; color: rgb(14, 14, 14); text-align: start;&quot; class=&quot;p1&quot;&gt;&lt;font face=&quot;Times New Roman&quot;&gt;Пользователь.Дата регистрации&lt;/font&gt;&lt;/p&gt;" style="rounded=1;whiteSpace=wrap;html=1;fillColor=#b1ddf0;strokeColor=#10739e;movable=1;resizable=1;rotatable=1;deletable=1;editable=1;locked=0;connectable=1;" vertex="1" parent="1">
          <mxGeometry x="-2425.5" y="-458.5" width="199" height="21" as="geometry" />
        </mxCell>
        <mxCell id="MQtoxVUBuhqvLoLKHlp6-239" value="&lt;p style=&quot;margin: 0px 0px 0px 13px; text-indent: -13px; font-variant-numeric: normal; font-variant-east-asian: normal; font-variant-alternates: normal; font-kerning: auto; font-optical-sizing: auto; font-feature-settings: normal; font-variation-settings: normal; font-variant-position: normal; font-stretch: normal; font-size: 14px; line-height: normal; color: rgb(14, 14, 14); text-align: start;&quot; class=&quot;p1&quot;&gt;&lt;font face=&quot;Times New Roman&quot;&gt;Пользователь.Статус&lt;/font&gt;&lt;/p&gt;" style="rounded=1;whiteSpace=wrap;html=1;fillColor=#b1ddf0;strokeColor=#10739e;movable=1;resizable=1;rotatable=1;deletable=1;editable=1;locked=0;connectable=1;" vertex="1" parent="1">
          <mxGeometry x="-2575.5" y="-459" width="136" height="21" as="geometry" />
        </mxCell>
        <mxCell id="MQtoxVUBuhqvLoLKHlp6-240" value="&lt;p style=&quot;margin: 0px 0px 0px 13px; text-indent: -13px; font-variant-numeric: normal; font-variant-east-asian: normal; font-variant-alternates: normal; font-kerning: auto; font-optical-sizing: auto; font-feature-settings: normal; font-variation-settings: normal; font-variant-position: normal; font-stretch: normal; font-size: 14px; line-height: normal; color: rgb(14, 14, 14); text-align: start;&quot; class=&quot;p1&quot;&gt;&lt;font face=&quot;Times New Roman&quot;&gt;Пользователь.Электронная почта&lt;/font&gt;&lt;/p&gt;" style="rounded=1;whiteSpace=wrap;html=1;fillColor=#b1ddf0;strokeColor=#10739e;movable=1;resizable=1;rotatable=1;deletable=1;editable=1;locked=0;connectable=1;" vertex="1" parent="1">
          <mxGeometry x="-2418.5" y="-416" width="209" height="21" as="geometry" />
        </mxCell>
        <mxCell id="MQtoxVUBuhqvLoLKHlp6-241" value="&lt;p style=&quot;margin: 0px 0px 0px 13px; text-indent: -13px; font-variant-numeric: normal; font-variant-east-asian: normal; font-variant-alternates: normal; font-kerning: auto; font-optical-sizing: auto; font-feature-settings: normal; font-variation-settings: normal; font-variant-position: normal; font-stretch: normal; font-size: 14px; line-height: normal; color: rgb(14, 14, 14); text-align: start;&quot; class=&quot;p1&quot;&gt;&lt;font face=&quot;Times New Roman&quot;&gt;Пользователь.Номер телефона&lt;/font&gt;&lt;/p&gt;" style="rounded=1;whiteSpace=wrap;html=1;fillColor=#b1ddf0;strokeColor=#10739e;movable=1;resizable=1;rotatable=1;deletable=1;editable=1;locked=0;connectable=1;" vertex="1" parent="1">
          <mxGeometry x="-2419.5" y="-375.25" width="190" height="21" as="geometry" />
        </mxCell>
        <mxCell id="MQtoxVUBuhqvLoLKHlp6-244" value="&lt;p style=&quot;margin: 0px 0px 0px 13px; text-indent: -13px; font-variant-numeric: normal; font-variant-east-asian: normal; font-variant-alternates: normal; font-kerning: auto; font-optical-sizing: auto; font-feature-settings: normal; font-variation-settings: normal; font-variant-position: normal; font-stretch: normal; font-size: 14px; line-height: normal; color: rgb(14, 14, 14); text-align: start;&quot; class=&quot;p1&quot;&gt;&lt;font face=&quot;Times New Roman&quot;&gt;Пользователь.Активен&lt;/font&gt;&lt;/p&gt;" style="rounded=1;whiteSpace=wrap;html=1;fillColor=#b1ddf0;strokeColor=#10739e;movable=1;resizable=1;rotatable=1;deletable=1;editable=1;locked=0;connectable=1;" vertex="1" parent="1">
          <mxGeometry x="-2574.5" y="-432" width="147" height="21" as="geometry" />
        </mxCell>
        <mxCell id="MQtoxVUBuhqvLoLKHlp6-434" value="" style="group;movable=1;resizable=1;rotatable=1;deletable=1;editable=1;locked=0;connectable=1;" vertex="1" connectable="0" parent="1">
          <mxGeometry x="-2489.5" y="-575" width="151" height="49" as="geometry" />
        </mxCell>
        <mxCell id="MQtoxVUBuhqvLoLKHlp6-435" value="&lt;p style=&quot;margin: 0px 0px 0px 13px; text-indent: -13px; font-variant-numeric: normal; font-variant-east-asian: normal; font-variant-alternates: normal; font-kerning: auto; font-optical-sizing: auto; font-feature-settings: normal; font-variation-settings: normal; font-variant-position: normal; font-stretch: normal; font-size: 14px; line-height: normal; color: rgb(14, 14, 14); text-align: start;&quot; class=&quot;p1&quot;&gt;&lt;br&gt;&lt;/p&gt;" style="rounded=1;whiteSpace=wrap;html=1;fillColor=#FF77BF;strokeColor=none;arcSize=50;movable=1;resizable=1;rotatable=1;deletable=1;editable=1;locked=0;connectable=1;" vertex="1" parent="MQtoxVUBuhqvLoLKHlp6-434">
          <mxGeometry y="9" width="151" height="33" as="geometry" />
        </mxCell>
        <mxCell id="MQtoxVUBuhqvLoLKHlp6-436" value="&lt;font style=&quot;font-size: 18px;&quot;&gt;&lt;i&gt;PostgreSQL&lt;/i&gt;&lt;/font&gt;" style="text;html=1;align=center;verticalAlign=middle;whiteSpace=wrap;rounded=1;shadow=0;fontSize=23;fontStyle=1;movable=1;resizable=1;rotatable=1;deletable=1;editable=1;locked=0;connectable=1;" vertex="1" parent="MQtoxVUBuhqvLoLKHlp6-434">
          <mxGeometry x="31" width="89" height="49" as="geometry" />
        </mxCell>
        <mxCell id="MQtoxVUBuhqvLoLKHlp6-225" value="" style="group;movable=1;resizable=1;rotatable=1;deletable=1;editable=1;locked=0;connectable=1;" vertex="1" connectable="0" parent="1">
          <mxGeometry x="-2897" y="-698" width="151" height="36" as="geometry" />
        </mxCell>
        <mxCell id="MQtoxVUBuhqvLoLKHlp6-226" value="&lt;p style=&quot;margin: 0px 0px 0px 13px; text-indent: -13px; font-variant-numeric: normal; font-variant-east-asian: normal; font-variant-alternates: normal; font-kerning: auto; font-optical-sizing: auto; font-feature-settings: normal; font-variation-settings: normal; font-variant-position: normal; font-stretch: normal; font-size: 14px; line-height: normal; color: rgb(14, 14, 14); text-align: start;&quot; class=&quot;p1&quot;&gt;&lt;br&gt;&lt;/p&gt;" style="rounded=1;whiteSpace=wrap;html=1;fillColor=#FF77BF;strokeColor=none;arcSize=33;movable=0;resizable=0;rotatable=0;deletable=0;editable=0;locked=1;connectable=0;" vertex="1" parent="MQtoxVUBuhqvLoLKHlp6-225">
          <mxGeometry y="5" width="151" height="31" as="geometry" />
        </mxCell>
        <mxCell id="MQtoxVUBuhqvLoLKHlp6-227" value="&lt;font style=&quot;font-size: 18px;&quot;&gt;&lt;i&gt;Django/Python&lt;/i&gt;&lt;/font&gt;" style="text;html=1;align=center;verticalAlign=middle;whiteSpace=wrap;rounded=1;shadow=0;fontSize=23;fontStyle=1;movable=0;resizable=0;rotatable=0;deletable=0;editable=0;locked=1;connectable=0;" vertex="1" parent="MQtoxVUBuhqvLoLKHlp6-225">
          <mxGeometry x="30" width="89" height="36" as="geometry" />
        </mxCell>
        <mxCell id="MQtoxVUBuhqvLoLKHlp6-228" value="Сервис управления пользователям" style="text;html=1;align=center;verticalAlign=middle;whiteSpace=wrap;rounded=1;shadow=0;fontSize=23;fontStyle=1;movable=1;resizable=1;rotatable=1;deletable=1;editable=1;locked=0;connectable=1;" vertex="1" parent="1">
          <mxGeometry x="-2848.5" y="-672" width="549" height="49" as="geometry" />
        </mxCell>
        <mxCell id="MQtoxVUBuhqvLoLKHlp6-274" value="" style="group;movable=1;resizable=1;rotatable=1;deletable=1;editable=1;locked=0;connectable=1;" vertex="1" connectable="0" parent="1">
          <mxGeometry x="-2911" y="-531" width="309" height="39" as="geometry" />
        </mxCell>
        <mxCell id="MQtoxVUBuhqvLoLKHlp6-275" value="" style="rounded=1;whiteSpace=wrap;html=1;fillColor=#1C57CD;strokeColor=none;movable=0;resizable=0;rotatable=0;deletable=0;editable=0;locked=1;connectable=0;" vertex="1" parent="MQtoxVUBuhqvLoLKHlp6-274">
          <mxGeometry width="309" height="39" as="geometry" />
        </mxCell>
        <mxCell id="MQtoxVUBuhqvLoLKHlp6-276" value="" style="sketch=0;outlineConnect=0;fontColor=#232F3E;gradientColor=none;fillColor=default;strokeColor=none;dashed=0;verticalLabelPosition=bottom;verticalAlign=top;align=center;html=1;fontSize=12;fontStyle=0;aspect=fixed;pointerEvents=1;shape=mxgraph.aws4.gear;rounded=1;movable=0;resizable=0;rotatable=0;deletable=0;editable=0;locked=1;connectable=0;" vertex="1" parent="MQtoxVUBuhqvLoLKHlp6-274">
          <mxGeometry x="282" y="11" width="17" height="17" as="geometry" />
        </mxCell>
        <mxCell id="MQtoxVUBuhqvLoLKHlp6-277" value="Удалить услугу пользователя" style="text;html=1;align=center;verticalAlign=middle;whiteSpace=wrap;rounded=1;fontSize=13;fontColor=#FFFFFF;strokeColor=none;movable=1;resizable=1;rotatable=1;deletable=1;editable=1;locked=0;connectable=1;" vertex="1" parent="MQtoxVUBuhqvLoLKHlp6-274">
          <mxGeometry x="3" y="4.5" width="189" height="30" as="geometry" />
        </mxCell>
        <mxCell id="MQtoxVUBuhqvLoLKHlp6-278" value="" style="group;movable=1;resizable=1;rotatable=1;deletable=1;editable=1;locked=0;connectable=1;" vertex="1" connectable="0" parent="1">
          <mxGeometry x="-2914.5" y="-430" width="309" height="39" as="geometry" />
        </mxCell>
        <mxCell id="MQtoxVUBuhqvLoLKHlp6-279" value="" style="rounded=1;whiteSpace=wrap;html=1;fillColor=#1C57CD;strokeColor=none;movable=0;resizable=0;rotatable=0;deletable=0;editable=0;locked=1;connectable=0;" vertex="1" parent="MQtoxVUBuhqvLoLKHlp6-278">
          <mxGeometry width="309" height="39" as="geometry" />
        </mxCell>
        <mxCell id="MQtoxVUBuhqvLoLKHlp6-280" value="" style="sketch=0;outlineConnect=0;fontColor=#232F3E;gradientColor=none;fillColor=default;strokeColor=none;dashed=0;verticalLabelPosition=bottom;verticalAlign=top;align=center;html=1;fontSize=12;fontStyle=0;aspect=fixed;pointerEvents=1;shape=mxgraph.aws4.gear;rounded=1;movable=0;resizable=0;rotatable=0;deletable=0;editable=0;locked=1;connectable=0;" vertex="1" parent="MQtoxVUBuhqvLoLKHlp6-278">
          <mxGeometry x="282" y="11" width="17" height="17" as="geometry" />
        </mxCell>
        <mxCell id="MQtoxVUBuhqvLoLKHlp6-281" value="Удалить товар пользователя" style="text;html=1;align=center;verticalAlign=middle;whiteSpace=wrap;rounded=1;fontSize=13;fontColor=#FFFFFF;strokeColor=none;movable=1;resizable=1;rotatable=1;deletable=1;editable=1;locked=0;connectable=1;" vertex="1" parent="MQtoxVUBuhqvLoLKHlp6-278">
          <mxGeometry x="2" y="4.5" width="188" height="30" as="geometry" />
        </mxCell>
        <mxCell id="MQtoxVUBuhqvLoLKHlp6-889" value="" style="group;strokeColor=#FF0000;strokeWidth=6;movable=1;resizable=1;rotatable=1;deletable=1;editable=1;locked=0;connectable=1;" vertex="1" connectable="0" parent="1">
          <mxGeometry x="-2911" y="-581" width="309" height="39" as="geometry" />
        </mxCell>
        <mxCell id="MQtoxVUBuhqvLoLKHlp6-890" value="" style="rounded=1;whiteSpace=wrap;html=1;fillColor=#1C57CD;strokeColor=none;movable=1;resizable=1;rotatable=1;deletable=1;editable=1;locked=0;connectable=1;" vertex="1" parent="MQtoxVUBuhqvLoLKHlp6-889">
          <mxGeometry width="309" height="39" as="geometry" />
        </mxCell>
        <mxCell id="MQtoxVUBuhqvLoLKHlp6-891" value="" style="sketch=0;outlineConnect=0;fontColor=#232F3E;gradientColor=none;fillColor=default;strokeColor=none;dashed=0;verticalLabelPosition=bottom;verticalAlign=top;align=center;html=1;fontSize=12;fontStyle=0;aspect=fixed;pointerEvents=1;shape=mxgraph.aws4.gear;rounded=1;movable=0;resizable=0;rotatable=0;deletable=0;editable=0;locked=1;connectable=0;" vertex="1" parent="MQtoxVUBuhqvLoLKHlp6-889">
          <mxGeometry x="280" y="11" width="17" height="17" as="geometry" />
        </mxCell>
        <mxCell id="MQtoxVUBuhqvLoLKHlp6-892" value="Редактировать пользователя" style="text;html=1;align=center;verticalAlign=middle;whiteSpace=wrap;rounded=1;fontSize=13;fontColor=#FFFFFF;strokeColor=none;movable=1;resizable=1;rotatable=1;deletable=1;editable=1;locked=0;connectable=1;" vertex="1" parent="MQtoxVUBuhqvLoLKHlp6-889">
          <mxGeometry x="3" y="4.5" width="227" height="30" as="geometry" />
        </mxCell>
        <mxCell id="MQtoxVUBuhqvLoLKHlp6-438" value="" style="rounded=1;whiteSpace=wrap;html=1;arcSize=4;movable=1;resizable=1;rotatable=1;deletable=1;editable=1;locked=0;connectable=1;fillColor=#f5f5f5;strokeColor=#1C57CD;strokeWidth=3;fontColor=#333333;" vertex="1" parent="1">
          <mxGeometry x="-1333" y="-683" width="812.5" height="525" as="geometry" />
        </mxCell>
        <mxCell id="MQtoxVUBuhqvLoLKHlp6-571" value="" style="group" vertex="1" connectable="0" parent="1">
          <mxGeometry x="-1317" y="-406" width="309" height="39" as="geometry" />
        </mxCell>
        <mxCell id="MQtoxVUBuhqvLoLKHlp6-572" value="" style="rounded=1;whiteSpace=wrap;html=1;fillColor=#1C57CD;strokeColor=none;" vertex="1" parent="MQtoxVUBuhqvLoLKHlp6-571">
          <mxGeometry width="309" height="39" as="geometry" />
        </mxCell>
        <mxCell id="MQtoxVUBuhqvLoLKHlp6-573" value="" style="sketch=0;outlineConnect=0;fontColor=#232F3E;gradientColor=none;fillColor=#FFFFFF;strokeColor=none;dashed=0;verticalLabelPosition=bottom;verticalAlign=top;align=center;html=1;fontSize=12;fontStyle=0;aspect=fixed;pointerEvents=1;shape=mxgraph.aws4.gear;rounded=1;" vertex="1" parent="MQtoxVUBuhqvLoLKHlp6-571">
          <mxGeometry x="286" y="11" width="17" height="17" as="geometry" />
        </mxCell>
        <mxCell id="MQtoxVUBuhqvLoLKHlp6-574" value="Поиск товаров" style="text;html=1;align=center;verticalAlign=middle;whiteSpace=wrap;rounded=1;fontSize=13;fontColor=#FFFFFF;strokeColor=none;" vertex="1" parent="MQtoxVUBuhqvLoLKHlp6-571">
          <mxGeometry x="3" y="4.5" width="99" height="30" as="geometry" />
        </mxCell>
        <mxCell id="MQtoxVUBuhqvLoLKHlp6-575" value="" style="group" vertex="1" connectable="0" parent="1">
          <mxGeometry x="-1317" y="-357" width="309" height="39" as="geometry" />
        </mxCell>
        <mxCell id="MQtoxVUBuhqvLoLKHlp6-576" value="" style="rounded=1;whiteSpace=wrap;html=1;fillColor=#1C57CD;strokeColor=none;" vertex="1" parent="MQtoxVUBuhqvLoLKHlp6-575">
          <mxGeometry width="309" height="39" as="geometry" />
        </mxCell>
        <mxCell id="MQtoxVUBuhqvLoLKHlp6-577" value="" style="sketch=0;outlineConnect=0;fontColor=#232F3E;gradientColor=none;fillColor=#FFFFFF;strokeColor=none;dashed=0;verticalLabelPosition=bottom;verticalAlign=top;align=center;html=1;fontSize=12;fontStyle=0;aspect=fixed;pointerEvents=1;shape=mxgraph.aws4.gear;rounded=1;" vertex="1" parent="MQtoxVUBuhqvLoLKHlp6-575">
          <mxGeometry x="286" y="11" width="17" height="17" as="geometry" />
        </mxCell>
        <mxCell id="MQtoxVUBuhqvLoLKHlp6-578" value="Поиск услуг" style="text;html=1;align=center;verticalAlign=middle;whiteSpace=wrap;rounded=1;fontSize=13;fontColor=#FFFFFF;strokeColor=none;" vertex="1" parent="MQtoxVUBuhqvLoLKHlp6-575">
          <mxGeometry x="4" y="4" width="81" height="30" as="geometry" />
        </mxCell>
        <mxCell id="MQtoxVUBuhqvLoLKHlp6-446" value="" style="strokeWidth=2;html=1;shape=mxgraph.flowchart.database;whiteSpace=wrap;rounded=1;movable=1;resizable=1;rotatable=1;deletable=1;editable=1;locked=0;connectable=1;" vertex="1" parent="1">
          <mxGeometry x="-876" y="-601" width="301" height="317" as="geometry" />
        </mxCell>
        <mxCell id="MQtoxVUBuhqvLoLKHlp6-462" value="&lt;p style=&quot;margin: 0px 0px 0px 13px; text-indent: -13px; font-variant-numeric: normal; font-variant-east-asian: normal; font-variant-alternates: normal; font-kerning: auto; font-optical-sizing: auto; font-feature-settings: normal; font-variation-settings: normal; font-variant-position: normal; font-stretch: normal; font-size: 14px; line-height: normal; color: rgb(14, 14, 14); text-align: start;&quot; class=&quot;p1&quot;&gt;&lt;font face=&quot;Times New Roman&quot;&gt;Услуга.ID&lt;/font&gt;&lt;/p&gt;" style="rounded=1;whiteSpace=wrap;html=1;fillColor=#b1ddf0;strokeColor=#10739e;" vertex="1" parent="1">
          <mxGeometry x="-853" y="-454" width="87" height="21" as="geometry" />
        </mxCell>
        <mxCell id="MQtoxVUBuhqvLoLKHlp6-463" value="&lt;p style=&quot;margin: 0px 0px 0px 13px; text-indent: -13px; font-variant-numeric: normal; font-variant-east-asian: normal; font-variant-alternates: normal; font-kerning: auto; font-optical-sizing: auto; font-feature-settings: normal; font-variation-settings: normal; font-variant-position: normal; font-stretch: normal; font-size: 14px; line-height: normal; color: rgb(14, 14, 14); text-align: start;&quot; class=&quot;p1&quot;&gt;&lt;font face=&quot;Times New Roman&quot;&gt;Услуга.Название&lt;/font&gt;&lt;/p&gt;" style="rounded=1;whiteSpace=wrap;html=1;fillColor=#b1ddf0;strokeColor=#10739e;" vertex="1" parent="1">
          <mxGeometry x="-853" y="-422" width="110" height="21" as="geometry" />
        </mxCell>
        <mxCell id="MQtoxVUBuhqvLoLKHlp6-464" value="&lt;p style=&quot;margin: 0px 0px 0px 13px; text-indent: -13px; font-variant-numeric: normal; font-variant-east-asian: normal; font-variant-alternates: normal; font-kerning: auto; font-optical-sizing: auto; font-feature-settings: normal; font-variation-settings: normal; font-variant-position: normal; font-stretch: normal; font-size: 14px; line-height: normal; color: rgb(14, 14, 14); text-align: start;&quot; class=&quot;p1&quot;&gt;&lt;font face=&quot;Times New Roman&quot;&gt;Услуга. Описание&lt;/font&gt;&lt;/p&gt;" style="rounded=1;whiteSpace=wrap;html=1;fillColor=#b1ddf0;strokeColor=#10739e;" vertex="1" parent="1">
          <mxGeometry x="-850" y="-385" width="112" height="21" as="geometry" />
        </mxCell>
        <mxCell id="MQtoxVUBuhqvLoLKHlp6-465" value="&lt;p style=&quot;margin: 0px 0px 0px 13px; text-indent: -13px; font-variant-numeric: normal; font-variant-east-asian: normal; font-variant-alternates: normal; font-kerning: auto; font-optical-sizing: auto; font-feature-settings: normal; font-variation-settings: normal; font-variant-position: normal; font-stretch: normal; font-size: 14px; line-height: normal; color: rgb(14, 14, 14); text-align: start;&quot; class=&quot;p1&quot;&gt;&lt;font face=&quot;Times New Roman&quot;&gt;Товар.ID&lt;/font&gt;&lt;/p&gt;" style="rounded=1;whiteSpace=wrap;html=1;fillColor=#b1ddf0;strokeColor=#10739e;" vertex="1" parent="1">
          <mxGeometry x="-693" y="-445" width="78" height="21" as="geometry" />
        </mxCell>
        <mxCell id="MQtoxVUBuhqvLoLKHlp6-466" value="&lt;p style=&quot;margin: 0px 0px 0px 13px; text-indent: -13px; font-variant-numeric: normal; font-variant-east-asian: normal; font-variant-alternates: normal; font-kerning: auto; font-optical-sizing: auto; font-feature-settings: normal; font-variation-settings: normal; font-variant-position: normal; font-stretch: normal; font-size: 14px; line-height: normal; color: rgb(14, 14, 14); text-align: start;&quot; class=&quot;p1&quot;&gt;&lt;font face=&quot;Times New Roman&quot;&gt;Товар.Название&lt;/font&gt;&lt;/p&gt;" style="rounded=1;whiteSpace=wrap;html=1;fillColor=#b1ddf0;strokeColor=#10739e;" vertex="1" parent="1">
          <mxGeometry x="-698" y="-387" width="111" height="21" as="geometry" />
        </mxCell>
        <mxCell id="MQtoxVUBuhqvLoLKHlp6-467" value="&lt;p style=&quot;margin: 0px 0px 0px 13px; text-indent: -13px; font-variant-numeric: normal; font-variant-east-asian: normal; font-variant-alternates: normal; font-kerning: auto; font-optical-sizing: auto; font-feature-settings: normal; font-variation-settings: normal; font-variant-position: normal; font-stretch: normal; font-size: 14px; line-height: normal; color: rgb(14, 14, 14); text-align: start;&quot; class=&quot;p1&quot;&gt;&lt;font face=&quot;Times New Roman&quot;&gt;Товар.Описание&lt;/font&gt;&lt;/p&gt;" style="rounded=1;whiteSpace=wrap;html=1;fillColor=#b1ddf0;strokeColor=#10739e;" vertex="1" parent="1">
          <mxGeometry x="-694" y="-419" width="107" height="21" as="geometry" />
        </mxCell>
        <mxCell id="MQtoxVUBuhqvLoLKHlp6-651" value="" style="group" vertex="1" connectable="0" parent="1">
          <mxGeometry x="-801" y="-570" width="151" height="49" as="geometry" />
        </mxCell>
        <mxCell id="MQtoxVUBuhqvLoLKHlp6-652" value="&lt;p style=&quot;margin: 0px 0px 0px 13px; text-indent: -13px; font-variant-numeric: normal; font-variant-east-asian: normal; font-variant-alternates: normal; font-kerning: auto; font-optical-sizing: auto; font-feature-settings: normal; font-variation-settings: normal; font-variant-position: normal; font-stretch: normal; font-size: 14px; line-height: normal; color: rgb(14, 14, 14); text-align: start;&quot; class=&quot;p1&quot;&gt;&lt;br&gt;&lt;/p&gt;" style="rounded=1;whiteSpace=wrap;html=1;fillColor=#FF77BF;strokeColor=none;arcSize=50;" vertex="1" parent="MQtoxVUBuhqvLoLKHlp6-651">
          <mxGeometry y="9" width="151" height="33" as="geometry" />
        </mxCell>
        <mxCell id="MQtoxVUBuhqvLoLKHlp6-653" value="&lt;font style=&quot;font-size: 18px;&quot;&gt;&lt;i&gt;PostgreSQL&lt;/i&gt;&lt;/font&gt;" style="text;html=1;align=center;verticalAlign=middle;whiteSpace=wrap;rounded=1;shadow=0;fontSize=23;fontStyle=1" vertex="1" parent="MQtoxVUBuhqvLoLKHlp6-651">
          <mxGeometry x="31" width="89" height="49" as="geometry" />
        </mxCell>
        <mxCell id="MQtoxVUBuhqvLoLKHlp6-442" value="" style="group" vertex="1" connectable="0" parent="1">
          <mxGeometry x="-1294" y="-703" width="151" height="36" as="geometry" />
        </mxCell>
        <mxCell id="MQtoxVUBuhqvLoLKHlp6-443" value="&lt;p style=&quot;margin: 0px 0px 0px 13px; text-indent: -13px; font-variant-numeric: normal; font-variant-east-asian: normal; font-variant-alternates: normal; font-kerning: auto; font-optical-sizing: auto; font-feature-settings: normal; font-variation-settings: normal; font-variant-position: normal; font-stretch: normal; font-size: 14px; line-height: normal; color: rgb(14, 14, 14); text-align: start;&quot; class=&quot;p1&quot;&gt;&lt;br&gt;&lt;/p&gt;" style="rounded=1;whiteSpace=wrap;html=1;fillColor=#FF77BF;strokeColor=none;arcSize=33;" vertex="1" parent="MQtoxVUBuhqvLoLKHlp6-442">
          <mxGeometry y="5" width="151" height="31" as="geometry" />
        </mxCell>
        <mxCell id="MQtoxVUBuhqvLoLKHlp6-444" value="&lt;font style=&quot;font-size: 18px;&quot;&gt;&lt;i&gt;Django/Python&lt;/i&gt;&lt;/font&gt;" style="text;html=1;align=center;verticalAlign=middle;whiteSpace=wrap;rounded=1;shadow=0;fontSize=23;fontStyle=1" vertex="1" parent="MQtoxVUBuhqvLoLKHlp6-442">
          <mxGeometry x="30" width="89" height="36" as="geometry" />
        </mxCell>
        <mxCell id="MQtoxVUBuhqvLoLKHlp6-445" value="Сервис управления товарами и услугами" style="text;html=1;align=center;verticalAlign=middle;whiteSpace=wrap;rounded=1;shadow=0;fontSize=23;fontStyle=1" vertex="1" parent="1">
          <mxGeometry x="-1237" y="-677" width="549" height="49" as="geometry" />
        </mxCell>
        <mxCell id="MQtoxVUBuhqvLoLKHlp6-318" value="" style="group" vertex="1" connectable="0" parent="1">
          <mxGeometry x="-1312" y="-608" width="309" height="39" as="geometry" />
        </mxCell>
        <mxCell id="MQtoxVUBuhqvLoLKHlp6-319" value="" style="rounded=1;whiteSpace=wrap;html=1;fillColor=#1C57CD;strokeColor=none;" vertex="1" parent="MQtoxVUBuhqvLoLKHlp6-318">
          <mxGeometry width="309" height="39" as="geometry" />
        </mxCell>
        <mxCell id="MQtoxVUBuhqvLoLKHlp6-320" value="" style="sketch=0;outlineConnect=0;fontColor=#232F3E;gradientColor=none;fillColor=#FFFFFF;strokeColor=none;dashed=0;verticalLabelPosition=bottom;verticalAlign=top;align=center;html=1;fontSize=12;fontStyle=0;aspect=fixed;pointerEvents=1;shape=mxgraph.aws4.gear;rounded=1;" vertex="1" parent="MQtoxVUBuhqvLoLKHlp6-318">
          <mxGeometry x="286" y="11" width="17" height="17" as="geometry" />
        </mxCell>
        <mxCell id="MQtoxVUBuhqvLoLKHlp6-321" value="Добавить товар в профиль пользователя" style="text;html=1;align=center;verticalAlign=middle;whiteSpace=wrap;rounded=1;fontSize=13;fontColor=#FFFFFF;strokeColor=none;" vertex="1" parent="MQtoxVUBuhqvLoLKHlp6-318">
          <mxGeometry x="8" y="4" width="262" height="30" as="geometry" />
        </mxCell>
        <mxCell id="MQtoxVUBuhqvLoLKHlp6-322" value="" style="group" vertex="1" connectable="0" parent="1">
          <mxGeometry x="-1312" y="-561" width="309" height="39" as="geometry" />
        </mxCell>
        <mxCell id="MQtoxVUBuhqvLoLKHlp6-323" value="" style="rounded=1;whiteSpace=wrap;html=1;fillColor=#1C57CD;strokeColor=none;" vertex="1" parent="MQtoxVUBuhqvLoLKHlp6-322">
          <mxGeometry width="309" height="39" as="geometry" />
        </mxCell>
        <mxCell id="MQtoxVUBuhqvLoLKHlp6-324" value="" style="sketch=0;outlineConnect=0;fontColor=#232F3E;gradientColor=none;fillColor=#FFFFFF;strokeColor=none;dashed=0;verticalLabelPosition=bottom;verticalAlign=top;align=center;html=1;fontSize=12;fontStyle=0;aspect=fixed;pointerEvents=1;shape=mxgraph.aws4.gear;rounded=1;" vertex="1" parent="MQtoxVUBuhqvLoLKHlp6-322">
          <mxGeometry x="286" y="10" width="17" height="17" as="geometry" />
        </mxCell>
        <mxCell id="MQtoxVUBuhqvLoLKHlp6-325" value="Добавить услугу в профиль пользователя" style="text;html=1;align=center;verticalAlign=middle;whiteSpace=wrap;rounded=1;fontSize=13;fontColor=#FFFFFF;strokeColor=none;" vertex="1" parent="MQtoxVUBuhqvLoLKHlp6-322">
          <mxGeometry x="2" y="5" width="273" height="30" as="geometry" />
        </mxCell>
        <mxCell id="MQtoxVUBuhqvLoLKHlp6-326" value="" style="group" vertex="1" connectable="0" parent="1">
          <mxGeometry x="-1312" y="-512" width="309" height="39" as="geometry" />
        </mxCell>
        <mxCell id="MQtoxVUBuhqvLoLKHlp6-327" value="" style="rounded=1;whiteSpace=wrap;html=1;fillColor=#1C57CD;strokeColor=none;" vertex="1" parent="MQtoxVUBuhqvLoLKHlp6-326">
          <mxGeometry width="309" height="39" as="geometry" />
        </mxCell>
        <mxCell id="MQtoxVUBuhqvLoLKHlp6-328" value="" style="sketch=0;outlineConnect=0;fontColor=#232F3E;gradientColor=none;fillColor=#FFFFFF;strokeColor=none;dashed=0;verticalLabelPosition=bottom;verticalAlign=top;align=center;html=1;fontSize=12;fontStyle=0;aspect=fixed;pointerEvents=1;shape=mxgraph.aws4.gear;rounded=1;" vertex="1" parent="MQtoxVUBuhqvLoLKHlp6-326">
          <mxGeometry x="286" y="11" width="17" height="17" as="geometry" />
        </mxCell>
        <mxCell id="MQtoxVUBuhqvLoLKHlp6-329" value="Изменить товар пользователя" style="text;html=1;align=center;verticalAlign=middle;whiteSpace=wrap;rounded=1;fontSize=13;fontColor=#FFFFFF;strokeColor=none;" vertex="1" parent="MQtoxVUBuhqvLoLKHlp6-326">
          <mxGeometry x="7" y="3" width="195" height="30" as="geometry" />
        </mxCell>
        <mxCell id="MQtoxVUBuhqvLoLKHlp6-330" value="" style="group" vertex="1" connectable="0" parent="1">
          <mxGeometry x="-1312" y="-464" width="309" height="39" as="geometry" />
        </mxCell>
        <mxCell id="MQtoxVUBuhqvLoLKHlp6-331" value="" style="rounded=1;whiteSpace=wrap;html=1;fillColor=#1C57CD;strokeColor=none;" vertex="1" parent="MQtoxVUBuhqvLoLKHlp6-330">
          <mxGeometry width="309" height="39" as="geometry" />
        </mxCell>
        <mxCell id="MQtoxVUBuhqvLoLKHlp6-332" value="" style="sketch=0;outlineConnect=0;fontColor=#232F3E;gradientColor=none;fillColor=#FFFFFF;strokeColor=none;dashed=0;verticalLabelPosition=bottom;verticalAlign=top;align=center;html=1;fontSize=12;fontStyle=0;aspect=fixed;pointerEvents=1;shape=mxgraph.aws4.gear;rounded=1;" vertex="1" parent="MQtoxVUBuhqvLoLKHlp6-330">
          <mxGeometry x="286" y="11" width="17" height="17" as="geometry" />
        </mxCell>
        <mxCell id="MQtoxVUBuhqvLoLKHlp6-333" value="Изменить услугу пользователя" style="text;html=1;align=center;verticalAlign=middle;whiteSpace=wrap;rounded=1;fontSize=13;fontColor=#FFFFFF;strokeColor=none;" vertex="1" parent="MQtoxVUBuhqvLoLKHlp6-330">
          <mxGeometry x="4" y="4.5" width="195" height="30" as="geometry" />
        </mxCell>
        <mxCell id="MQtoxVUBuhqvLoLKHlp6-1351" value="" style="rounded=1;whiteSpace=wrap;html=1;arcSize=4;movable=1;resizable=1;rotatable=1;deletable=1;editable=1;locked=0;connectable=1;fillColor=#f5f5f5;strokeColor=#1C57CD;strokeWidth=3;fontColor=#333333;" vertex="1" parent="1">
          <mxGeometry x="-2071" y="-662" width="627.38" height="517.86" as="geometry" />
        </mxCell>
        <mxCell id="MQtoxVUBuhqvLoLKHlp6-1355" value="" style="group" vertex="1" connectable="0" parent="1">
          <mxGeometry x="-2050.62" y="-681" width="151" height="36" as="geometry" />
        </mxCell>
        <mxCell id="MQtoxVUBuhqvLoLKHlp6-1356" value="&lt;p style=&quot;margin: 0px 0px 0px 13px; text-indent: -13px; font-variant-numeric: normal; font-variant-east-asian: normal; font-variant-alternates: normal; font-kerning: auto; font-optical-sizing: auto; font-feature-settings: normal; font-variation-settings: normal; font-variant-position: normal; font-stretch: normal; font-size: 14px; line-height: normal; color: rgb(14, 14, 14); text-align: start;&quot; class=&quot;p1&quot;&gt;&lt;br&gt;&lt;/p&gt;" style="rounded=1;whiteSpace=wrap;html=1;fillColor=#FF77BF;strokeColor=none;arcSize=33;" vertex="1" parent="MQtoxVUBuhqvLoLKHlp6-1355">
          <mxGeometry x="-2" y="5" width="151" height="31" as="geometry" />
        </mxCell>
        <mxCell id="MQtoxVUBuhqvLoLKHlp6-1358" value="Сервис управления заказами" style="text;html=1;align=center;verticalAlign=middle;whiteSpace=wrap;rounded=1;shadow=0;fontSize=23;fontStyle=1" vertex="1" parent="1">
          <mxGeometry x="-2001.62" y="-647" width="549" height="49" as="geometry" />
        </mxCell>
        <mxCell id="MQtoxVUBuhqvLoLKHlp6-1359" value="" style="strokeWidth=2;html=1;shape=mxgraph.flowchart.database;whiteSpace=wrap;rounded=1;movable=1;resizable=1;rotatable=1;deletable=1;editable=1;locked=0;connectable=1;" vertex="1" parent="1">
          <mxGeometry x="-1703.62" y="-578" width="209" height="271" as="geometry" />
        </mxCell>
        <mxCell id="MQtoxVUBuhqvLoLKHlp6-1412" value="" style="group" vertex="1" connectable="0" parent="1">
          <mxGeometry x="-2058.62" y="-579" width="309" height="39" as="geometry" />
        </mxCell>
        <mxCell id="MQtoxVUBuhqvLoLKHlp6-1413" value="" style="rounded=1;whiteSpace=wrap;html=1;fillColor=#1C57CD;strokeColor=none;" vertex="1" parent="MQtoxVUBuhqvLoLKHlp6-1412">
          <mxGeometry width="309" height="39" as="geometry" />
        </mxCell>
        <mxCell id="MQtoxVUBuhqvLoLKHlp6-1414" value="" style="sketch=0;outlineConnect=0;fontColor=#232F3E;gradientColor=none;fillColor=default;strokeColor=none;dashed=0;verticalLabelPosition=bottom;verticalAlign=top;align=center;html=1;fontSize=12;fontStyle=0;aspect=fixed;pointerEvents=1;shape=mxgraph.aws4.gear;rounded=1;" vertex="1" parent="MQtoxVUBuhqvLoLKHlp6-1412">
          <mxGeometry x="282" y="11" width="17" height="17" as="geometry" />
        </mxCell>
        <mxCell id="MQtoxVUBuhqvLoLKHlp6-1415" value="Создание заказа" style="text;html=1;align=center;verticalAlign=middle;whiteSpace=wrap;rounded=1;fontSize=13;fontColor=#FFFFFF;strokeColor=none;" vertex="1" parent="MQtoxVUBuhqvLoLKHlp6-1412">
          <mxGeometry x="5" y="4.5" width="110" height="30" as="geometry" />
        </mxCell>
        <mxCell id="MQtoxVUBuhqvLoLKHlp6-1416" value="" style="group" vertex="1" connectable="0" parent="1">
          <mxGeometry x="-2058.62" y="-531" width="309" height="39" as="geometry" />
        </mxCell>
        <mxCell id="MQtoxVUBuhqvLoLKHlp6-1417" value="" style="rounded=1;whiteSpace=wrap;html=1;fillColor=#1C57CD;strokeColor=none;" vertex="1" parent="MQtoxVUBuhqvLoLKHlp6-1416">
          <mxGeometry width="309" height="39" as="geometry" />
        </mxCell>
        <mxCell id="MQtoxVUBuhqvLoLKHlp6-1418" value="" style="sketch=0;outlineConnect=0;fontColor=#232F3E;gradientColor=none;fillColor=default;strokeColor=none;dashed=0;verticalLabelPosition=bottom;verticalAlign=top;align=center;html=1;fontSize=12;fontStyle=0;aspect=fixed;pointerEvents=1;shape=mxgraph.aws4.gear;rounded=1;" vertex="1" parent="MQtoxVUBuhqvLoLKHlp6-1416">
          <mxGeometry x="282" y="11" width="17" height="17" as="geometry" />
        </mxCell>
        <mxCell id="MQtoxVUBuhqvLoLKHlp6-1419" value="Редактирование заказа" style="text;html=1;align=center;verticalAlign=middle;whiteSpace=wrap;rounded=1;fontSize=13;fontColor=#FFFFFF;strokeColor=none;" vertex="1" parent="MQtoxVUBuhqvLoLKHlp6-1416">
          <mxGeometry x="3" y="4.5" width="154" height="30" as="geometry" />
        </mxCell>
        <mxCell id="MQtoxVUBuhqvLoLKHlp6-1420" value="" style="group" vertex="1" connectable="0" parent="1">
          <mxGeometry x="-2058.62" y="-483" width="309" height="39" as="geometry" />
        </mxCell>
        <mxCell id="MQtoxVUBuhqvLoLKHlp6-1421" value="" style="rounded=1;whiteSpace=wrap;html=1;fillColor=#1C57CD;strokeColor=none;" vertex="1" parent="MQtoxVUBuhqvLoLKHlp6-1420">
          <mxGeometry width="309" height="39" as="geometry" />
        </mxCell>
        <mxCell id="MQtoxVUBuhqvLoLKHlp6-1422" value="" style="sketch=0;outlineConnect=0;fontColor=#232F3E;gradientColor=none;fillColor=default;strokeColor=none;dashed=0;verticalLabelPosition=bottom;verticalAlign=top;align=center;html=1;fontSize=12;fontStyle=0;aspect=fixed;pointerEvents=1;shape=mxgraph.aws4.gear;rounded=1;" vertex="1" parent="MQtoxVUBuhqvLoLKHlp6-1420">
          <mxGeometry x="282" y="11" width="17" height="17" as="geometry" />
        </mxCell>
        <mxCell id="MQtoxVUBuhqvLoLKHlp6-1423" value="Сохранение заказа" style="text;html=1;align=center;verticalAlign=middle;whiteSpace=wrap;rounded=1;fontSize=13;fontColor=#FFFFFF;strokeColor=none;" vertex="1" parent="MQtoxVUBuhqvLoLKHlp6-1420">
          <mxGeometry x="4" y="4" width="126" height="30" as="geometry" />
        </mxCell>
        <mxCell id="MQtoxVUBuhqvLoLKHlp6-1424" value="" style="group" vertex="1" connectable="0" parent="1">
          <mxGeometry x="-2058.62" y="-434" width="309" height="39" as="geometry" />
        </mxCell>
        <mxCell id="MQtoxVUBuhqvLoLKHlp6-1425" value="" style="rounded=1;whiteSpace=wrap;html=1;fillColor=#1C57CD;strokeColor=none;" vertex="1" parent="MQtoxVUBuhqvLoLKHlp6-1424">
          <mxGeometry width="309" height="39" as="geometry" />
        </mxCell>
        <mxCell id="MQtoxVUBuhqvLoLKHlp6-1426" value="" style="sketch=0;outlineConnect=0;fontColor=#232F3E;gradientColor=none;fillColor=default;strokeColor=none;dashed=0;verticalLabelPosition=bottom;verticalAlign=top;align=center;html=1;fontSize=12;fontStyle=0;aspect=fixed;pointerEvents=1;shape=mxgraph.aws4.gear;rounded=1;" vertex="1" parent="MQtoxVUBuhqvLoLKHlp6-1424">
          <mxGeometry x="281.5" y="11" width="17" height="17" as="geometry" />
        </mxCell>
        <mxCell id="MQtoxVUBuhqvLoLKHlp6-1427" value="Подтверждение заказа" style="text;html=1;align=center;verticalAlign=middle;whiteSpace=wrap;rounded=1;fontSize=13;fontColor=#FFFFFF;strokeColor=none;" vertex="1" parent="MQtoxVUBuhqvLoLKHlp6-1424">
          <mxGeometry x="4" y="4.5" width="152" height="30" as="geometry" />
        </mxCell>
        <mxCell id="MQtoxVUBuhqvLoLKHlp6-1428" value="" style="group" vertex="1" connectable="0" parent="1">
          <mxGeometry x="-2058.62" y="-386" width="309" height="39" as="geometry" />
        </mxCell>
        <mxCell id="MQtoxVUBuhqvLoLKHlp6-1429" value="" style="rounded=1;whiteSpace=wrap;html=1;fillColor=#1C57CD;strokeColor=none;" vertex="1" parent="MQtoxVUBuhqvLoLKHlp6-1428">
          <mxGeometry width="309" height="39" as="geometry" />
        </mxCell>
        <mxCell id="MQtoxVUBuhqvLoLKHlp6-1430" value="" style="sketch=0;outlineConnect=0;fontColor=#232F3E;gradientColor=none;fillColor=default;strokeColor=none;dashed=0;verticalLabelPosition=bottom;verticalAlign=top;align=center;html=1;fontSize=12;fontStyle=0;aspect=fixed;pointerEvents=1;shape=mxgraph.aws4.gear;rounded=1;" vertex="1" parent="MQtoxVUBuhqvLoLKHlp6-1428">
          <mxGeometry x="281.5" y="11" width="17" height="17" as="geometry" />
        </mxCell>
        <mxCell id="MQtoxVUBuhqvLoLKHlp6-1431" value="Размещение заказа" style="text;html=1;align=center;verticalAlign=middle;whiteSpace=wrap;rounded=1;fontSize=13;fontColor=#FFFFFF;strokeColor=none;" vertex="1" parent="MQtoxVUBuhqvLoLKHlp6-1428">
          <mxGeometry x="3" y="4.5" width="130.5" height="30" as="geometry" />
        </mxCell>
        <mxCell id="MQtoxVUBuhqvLoLKHlp6-1432" value="" style="group" vertex="1" connectable="0" parent="1">
          <mxGeometry x="-2058.62" y="-337" width="309" height="39" as="geometry" />
        </mxCell>
        <mxCell id="MQtoxVUBuhqvLoLKHlp6-1433" value="" style="rounded=1;whiteSpace=wrap;html=1;fillColor=#1C57CD;strokeColor=none;" vertex="1" parent="MQtoxVUBuhqvLoLKHlp6-1432">
          <mxGeometry width="309" height="39" as="geometry" />
        </mxCell>
        <mxCell id="MQtoxVUBuhqvLoLKHlp6-1434" value="" style="sketch=0;outlineConnect=0;fontColor=#232F3E;gradientColor=none;fillColor=default;strokeColor=none;dashed=0;verticalLabelPosition=bottom;verticalAlign=top;align=center;html=1;fontSize=12;fontStyle=0;aspect=fixed;pointerEvents=1;shape=mxgraph.aws4.gear;rounded=1;" vertex="1" parent="MQtoxVUBuhqvLoLKHlp6-1432">
          <mxGeometry x="281.5" y="11" width="17" height="17" as="geometry" />
        </mxCell>
        <mxCell id="MQtoxVUBuhqvLoLKHlp6-1435" value="Отобразить все заказы" style="text;html=1;align=center;verticalAlign=middle;whiteSpace=wrap;rounded=1;fontSize=13;fontColor=#FFFFFF;strokeColor=none;" vertex="1" parent="MQtoxVUBuhqvLoLKHlp6-1432">
          <mxGeometry x="3" y="4.5" width="152" height="30" as="geometry" />
        </mxCell>
        <mxCell id="MQtoxVUBuhqvLoLKHlp6-1436" value="" style="group" vertex="1" connectable="0" parent="1">
          <mxGeometry x="-2058.62" y="-287" width="309" height="39" as="geometry" />
        </mxCell>
        <mxCell id="MQtoxVUBuhqvLoLKHlp6-1437" value="" style="rounded=1;whiteSpace=wrap;html=1;fillColor=#1C57CD;strokeColor=none;" vertex="1" parent="MQtoxVUBuhqvLoLKHlp6-1436">
          <mxGeometry width="309" height="39" as="geometry" />
        </mxCell>
        <mxCell id="MQtoxVUBuhqvLoLKHlp6-1438" value="" style="sketch=0;outlineConnect=0;fontColor=#232F3E;gradientColor=none;fillColor=default;strokeColor=none;dashed=0;verticalLabelPosition=bottom;verticalAlign=top;align=center;html=1;fontSize=12;fontStyle=0;aspect=fixed;pointerEvents=1;shape=mxgraph.aws4.gear;rounded=1;" vertex="1" parent="MQtoxVUBuhqvLoLKHlp6-1436">
          <mxGeometry x="282" y="11" width="17" height="17" as="geometry" />
        </mxCell>
        <mxCell id="MQtoxVUBuhqvLoLKHlp6-1439" value="Отобразить детали заказа" style="text;html=1;align=center;verticalAlign=middle;whiteSpace=wrap;rounded=1;fontSize=13;fontColor=#FFFFFF;strokeColor=none;" vertex="1" parent="MQtoxVUBuhqvLoLKHlp6-1436">
          <mxGeometry x="5" y="5" width="169" height="30" as="geometry" />
        </mxCell>
        <mxCell id="MQtoxVUBuhqvLoLKHlp6-1440" value="" style="group" vertex="1" connectable="0" parent="1">
          <mxGeometry x="-2058.62" y="-242" width="309" height="39" as="geometry" />
        </mxCell>
        <mxCell id="MQtoxVUBuhqvLoLKHlp6-1441" value="" style="rounded=1;whiteSpace=wrap;html=1;fillColor=#1C57CD;strokeColor=none;" vertex="1" parent="MQtoxVUBuhqvLoLKHlp6-1440">
          <mxGeometry width="309" height="39" as="geometry" />
        </mxCell>
        <mxCell id="MQtoxVUBuhqvLoLKHlp6-1442" value="" style="sketch=0;outlineConnect=0;fontColor=#232F3E;gradientColor=none;fillColor=default;strokeColor=none;dashed=0;verticalLabelPosition=bottom;verticalAlign=top;align=center;html=1;fontSize=12;fontStyle=0;aspect=fixed;pointerEvents=1;shape=mxgraph.aws4.gear;rounded=1;" vertex="1" parent="MQtoxVUBuhqvLoLKHlp6-1440">
          <mxGeometry x="282" y="11" width="17" height="17" as="geometry" />
        </mxCell>
        <mxCell id="MQtoxVUBuhqvLoLKHlp6-1443" value="Нотификация об изменении состояния заказа" style="text;html=1;align=center;verticalAlign=middle;whiteSpace=wrap;rounded=1;fontSize=13;fontColor=#FFFFFF;strokeColor=none;" vertex="1" parent="MQtoxVUBuhqvLoLKHlp6-1440">
          <mxGeometry x="6" y="4.5" width="247" height="30" as="geometry" />
        </mxCell>
        <mxCell id="MQtoxVUBuhqvLoLKHlp6-1564" value="" style="group" vertex="1" connectable="0" parent="1">
          <mxGeometry x="-1668.62" y="-559" width="151" height="49" as="geometry" />
        </mxCell>
        <mxCell id="MQtoxVUBuhqvLoLKHlp6-1565" value="&lt;p style=&quot;margin: 0px 0px 0px 13px; text-indent: -13px; font-variant-numeric: normal; font-variant-east-asian: normal; font-variant-alternates: normal; font-kerning: auto; font-optical-sizing: auto; font-feature-settings: normal; font-variation-settings: normal; font-variant-position: normal; font-stretch: normal; font-size: 14px; line-height: normal; color: rgb(14, 14, 14); text-align: start;&quot; class=&quot;p1&quot;&gt;&lt;br&gt;&lt;/p&gt;" style="rounded=1;whiteSpace=wrap;html=1;fillColor=#FF77BF;strokeColor=none;arcSize=50;" vertex="1" parent="MQtoxVUBuhqvLoLKHlp6-1564">
          <mxGeometry y="9" width="151" height="33" as="geometry" />
        </mxCell>
        <mxCell id="MQtoxVUBuhqvLoLKHlp6-1566" value="&lt;font style=&quot;font-size: 18px;&quot;&gt;&lt;i&gt;PostgreSQL&lt;/i&gt;&lt;/font&gt;" style="text;html=1;align=center;verticalAlign=middle;whiteSpace=wrap;rounded=1;shadow=0;fontSize=23;fontStyle=1" vertex="1" parent="MQtoxVUBuhqvLoLKHlp6-1564">
          <mxGeometry x="31" width="89" height="49" as="geometry" />
        </mxCell>
        <mxCell id="MQtoxVUBuhqvLoLKHlp6-1567" value="&lt;p style=&quot;margin: 0px 0px 0px 13px; text-indent: -13px; font-variant-numeric: normal; font-variant-east-asian: normal; font-variant-alternates: normal; font-kerning: auto; font-optical-sizing: auto; font-feature-settings: normal; font-variation-settings: normal; font-variant-position: normal; font-stretch: normal; font-size: 14px; line-height: normal; color: rgb(14, 14, 14); text-align: start;&quot; class=&quot;p1&quot;&gt;&lt;font face=&quot;Times New Roman&quot;&gt;Заказ. ID&lt;/font&gt;&lt;/p&gt;" style="rounded=1;whiteSpace=wrap;html=1;fillColor=#b1ddf0;strokeColor=#10739e;" vertex="1" parent="1">
          <mxGeometry x="-1674.62" y="-458" width="112" height="21" as="geometry" />
        </mxCell>
        <mxCell id="MQtoxVUBuhqvLoLKHlp6-1568" value="&lt;p style=&quot;margin: 0px 0px 0px 13px; text-indent: -13px; font-variant-numeric: normal; font-variant-east-asian: normal; font-variant-alternates: normal; font-kerning: auto; font-optical-sizing: auto; font-feature-settings: normal; font-variation-settings: normal; font-variant-position: normal; font-stretch: normal; font-size: 14px; line-height: normal; color: rgb(14, 14, 14); text-align: start;&quot; class=&quot;p1&quot;&gt;&lt;font face=&quot;Times New Roman&quot;&gt;Заказ. Статус&lt;/font&gt;&lt;/p&gt;" style="rounded=1;whiteSpace=wrap;html=1;fillColor=#b1ddf0;strokeColor=#10739e;" vertex="1" parent="1">
          <mxGeometry x="-1675.62" y="-425" width="112" height="21" as="geometry" />
        </mxCell>
        <mxCell id="MQtoxVUBuhqvLoLKHlp6-1571" value="&lt;p style=&quot;margin: 0px 0px 0px 13px; text-indent: -13px; font-variant-numeric: normal; font-variant-east-asian: normal; font-variant-alternates: normal; font-kerning: auto; font-optical-sizing: auto; font-feature-settings: normal; font-variation-settings: normal; font-variant-position: normal; font-stretch: normal; font-size: 14px; line-height: normal; color: rgb(14, 14, 14); text-align: start;&quot; class=&quot;p1&quot;&gt;&lt;font face=&quot;Times New Roman&quot;&gt;Заказ. Сумма&lt;/font&gt;&lt;/p&gt;" style="rounded=1;whiteSpace=wrap;html=1;fillColor=#b1ddf0;strokeColor=#FF0000;strokeWidth=3;" vertex="1" parent="1">
          <mxGeometry x="-1674.62" y="-394" width="112" height="21" as="geometry" />
        </mxCell>
        <mxCell id="MQtoxVUBuhqvLoLKHlp6-1572" value="&lt;p style=&quot;margin: 0px 0px 0px 13px; text-indent: -13px; font-variant-numeric: normal; font-variant-east-asian: normal; font-variant-alternates: normal; font-kerning: auto; font-optical-sizing: auto; font-feature-settings: normal; font-variation-settings: normal; font-variant-position: normal; font-stretch: normal; font-size: 14px; line-height: normal; color: rgb(14, 14, 14); text-align: start;&quot; class=&quot;p1&quot;&gt;&lt;font face=&quot;Times New Roman&quot;&gt;Заказ. Дата создания&lt;/font&gt;&lt;/p&gt;" style="rounded=1;whiteSpace=wrap;html=1;fillColor=#b1ddf0;strokeColor=#10739e;" vertex="1" parent="1">
          <mxGeometry x="-1673.62" y="-362" width="142" height="21" as="geometry" />
        </mxCell>
        <mxCell id="MQtoxVUBuhqvLoLKHlp6-1357" value="&lt;font style=&quot;font-size: 18px;&quot;&gt;&lt;i&gt;Django/Python&lt;/i&gt;&lt;/font&gt;" style="text;html=1;align=center;verticalAlign=middle;whiteSpace=wrap;rounded=1;shadow=0;fontSize=23;fontStyle=1" vertex="1" parent="1">
          <mxGeometry x="-2021.62" y="-681" width="89" height="36" as="geometry" />
        </mxCell>
        <mxCell id="MQtoxVUBuhqvLoLKHlp6-1573" value="" style="group" vertex="1" connectable="0" parent="1">
          <mxGeometry x="-495" y="-1234" width="771.5" height="458" as="geometry" />
        </mxCell>
        <mxCell id="MQtoxVUBuhqvLoLKHlp6-1574" value="" style="rounded=1;whiteSpace=wrap;html=1;arcSize=4;movable=1;resizable=1;rotatable=1;deletable=1;editable=1;locked=0;connectable=1;fillColor=#f5f5f5;strokeColor=#1C57CD;strokeWidth=3;fontColor=#333333;" vertex="1" parent="MQtoxVUBuhqvLoLKHlp6-1573">
          <mxGeometry x="11" y="27" width="681.5" height="422" as="geometry" />
        </mxCell>
        <mxCell id="MQtoxVUBuhqvLoLKHlp6-1687" value="" style="group" vertex="1" connectable="0" parent="MQtoxVUBuhqvLoLKHlp6-1573">
          <mxGeometry x="35" y="92" width="309" height="39" as="geometry" />
        </mxCell>
        <mxCell id="MQtoxVUBuhqvLoLKHlp6-1688" value="" style="rounded=1;whiteSpace=wrap;html=1;fillColor=#1C57CD;strokeColor=none;" vertex="1" parent="MQtoxVUBuhqvLoLKHlp6-1687">
          <mxGeometry width="309" height="39" as="geometry" />
        </mxCell>
        <mxCell id="MQtoxVUBuhqvLoLKHlp6-1689" value="" style="sketch=0;outlineConnect=0;fontColor=#232F3E;gradientColor=none;fillColor=#FFFFFF;strokeColor=none;dashed=0;verticalLabelPosition=bottom;verticalAlign=top;align=center;html=1;fontSize=12;fontStyle=0;aspect=fixed;pointerEvents=1;shape=mxgraph.aws4.gear;rounded=1;" vertex="1" parent="MQtoxVUBuhqvLoLKHlp6-1687">
          <mxGeometry x="286" y="11" width="17" height="17" as="geometry" />
        </mxCell>
        <mxCell id="MQtoxVUBuhqvLoLKHlp6-1690" value="Создать аукцион" style="text;html=1;align=center;verticalAlign=middle;whiteSpace=wrap;rounded=1;fontSize=13;fontColor=#FFFFFF;strokeColor=none;" vertex="1" parent="MQtoxVUBuhqvLoLKHlp6-1687">
          <mxGeometry x="3" y="4.5" width="113" height="30" as="geometry" />
        </mxCell>
        <mxCell id="MQtoxVUBuhqvLoLKHlp6-1691" value="" style="group" vertex="1" connectable="0" parent="MQtoxVUBuhqvLoLKHlp6-1573">
          <mxGeometry x="35" y="139.5" width="309" height="39" as="geometry" />
        </mxCell>
        <mxCell id="MQtoxVUBuhqvLoLKHlp6-1692" value="" style="rounded=1;whiteSpace=wrap;html=1;fillColor=#1C57CD;strokeColor=none;" vertex="1" parent="MQtoxVUBuhqvLoLKHlp6-1691">
          <mxGeometry width="309" height="39" as="geometry" />
        </mxCell>
        <mxCell id="MQtoxVUBuhqvLoLKHlp6-1693" value="" style="sketch=0;outlineConnect=0;fontColor=#232F3E;gradientColor=none;fillColor=#FFFFFF;strokeColor=none;dashed=0;verticalLabelPosition=bottom;verticalAlign=top;align=center;html=1;fontSize=12;fontStyle=0;aspect=fixed;pointerEvents=1;shape=mxgraph.aws4.gear;rounded=1;" vertex="1" parent="MQtoxVUBuhqvLoLKHlp6-1691">
          <mxGeometry x="286" y="11" width="17" height="17" as="geometry" />
        </mxCell>
        <mxCell id="MQtoxVUBuhqvLoLKHlp6-1694" value="Редактировать аукцион" style="text;html=1;align=center;verticalAlign=middle;whiteSpace=wrap;rounded=1;fontSize=13;fontColor=#FFFFFF;strokeColor=none;" vertex="1" parent="MQtoxVUBuhqvLoLKHlp6-1691">
          <mxGeometry x="3" y="4.5" width="160" height="30" as="geometry" />
        </mxCell>
        <mxCell id="MQtoxVUBuhqvLoLKHlp6-1695" value="" style="group" vertex="1" connectable="0" parent="MQtoxVUBuhqvLoLKHlp6-1573">
          <mxGeometry x="35" y="187" width="309" height="39" as="geometry" />
        </mxCell>
        <mxCell id="MQtoxVUBuhqvLoLKHlp6-1696" value="" style="rounded=1;whiteSpace=wrap;html=1;fillColor=#1C57CD;strokeColor=none;" vertex="1" parent="MQtoxVUBuhqvLoLKHlp6-1695">
          <mxGeometry width="309" height="39" as="geometry" />
        </mxCell>
        <mxCell id="MQtoxVUBuhqvLoLKHlp6-1697" value="" style="sketch=0;outlineConnect=0;fontColor=#232F3E;gradientColor=none;fillColor=#FFFFFF;strokeColor=none;dashed=0;verticalLabelPosition=bottom;verticalAlign=top;align=center;html=1;fontSize=12;fontStyle=0;aspect=fixed;pointerEvents=1;shape=mxgraph.aws4.gear;rounded=1;" vertex="1" parent="MQtoxVUBuhqvLoLKHlp6-1695">
          <mxGeometry x="286" y="11" width="17" height="17" as="geometry" />
        </mxCell>
        <mxCell id="MQtoxVUBuhqvLoLKHlp6-1698" value="Обработать новую заявку на аукцион" style="text;html=1;align=center;verticalAlign=middle;whiteSpace=wrap;rounded=1;fontSize=13;fontColor=#FFFFFF;strokeColor=none;" vertex="1" parent="MQtoxVUBuhqvLoLKHlp6-1695">
          <mxGeometry x="3" y="4.5" width="241" height="30" as="geometry" />
        </mxCell>
        <mxCell id="MQtoxVUBuhqvLoLKHlp6-1699" value="" style="group" vertex="1" connectable="0" parent="MQtoxVUBuhqvLoLKHlp6-1573">
          <mxGeometry x="35" y="235" width="309" height="39" as="geometry" />
        </mxCell>
        <mxCell id="MQtoxVUBuhqvLoLKHlp6-1700" value="" style="rounded=1;whiteSpace=wrap;html=1;fillColor=#1C57CD;strokeColor=none;" vertex="1" parent="MQtoxVUBuhqvLoLKHlp6-1699">
          <mxGeometry width="309" height="39" as="geometry" />
        </mxCell>
        <mxCell id="MQtoxVUBuhqvLoLKHlp6-1701" value="" style="sketch=0;outlineConnect=0;fontColor=#232F3E;gradientColor=none;fillColor=#FFFFFF;strokeColor=none;dashed=0;verticalLabelPosition=bottom;verticalAlign=top;align=center;html=1;fontSize=12;fontStyle=0;aspect=fixed;pointerEvents=1;shape=mxgraph.aws4.gear;rounded=1;" vertex="1" parent="MQtoxVUBuhqvLoLKHlp6-1699">
          <mxGeometry x="286" y="11" width="17" height="17" as="geometry" />
        </mxCell>
        <mxCell id="MQtoxVUBuhqvLoLKHlp6-1702" value="Обновление ставок аукциона" style="text;html=1;align=center;verticalAlign=middle;whiteSpace=wrap;rounded=1;fontSize=13;fontColor=#FFFFFF;strokeColor=none;" vertex="1" parent="MQtoxVUBuhqvLoLKHlp6-1699">
          <mxGeometry x="4" y="4.5" width="189" height="30" as="geometry" />
        </mxCell>
        <mxCell id="MQtoxVUBuhqvLoLKHlp6-1703" value="" style="group" vertex="1" connectable="0" parent="MQtoxVUBuhqvLoLKHlp6-1573">
          <mxGeometry x="35" y="283" width="309" height="39" as="geometry" />
        </mxCell>
        <mxCell id="MQtoxVUBuhqvLoLKHlp6-1704" value="" style="rounded=1;whiteSpace=wrap;html=1;fillColor=#1C57CD;strokeColor=none;" vertex="1" parent="MQtoxVUBuhqvLoLKHlp6-1703">
          <mxGeometry width="309" height="39" as="geometry" />
        </mxCell>
        <mxCell id="MQtoxVUBuhqvLoLKHlp6-1705" value="" style="sketch=0;outlineConnect=0;fontColor=#232F3E;gradientColor=none;fillColor=#FFFFFF;strokeColor=none;dashed=0;verticalLabelPosition=bottom;verticalAlign=top;align=center;html=1;fontSize=12;fontStyle=0;aspect=fixed;pointerEvents=1;shape=mxgraph.aws4.gear;rounded=1;" vertex="1" parent="MQtoxVUBuhqvLoLKHlp6-1703">
          <mxGeometry x="286" y="11" width="17" height="17" as="geometry" />
        </mxCell>
        <mxCell id="MQtoxVUBuhqvLoLKHlp6-1706" value="Нотификация участника аукциона" style="text;html=1;align=center;verticalAlign=middle;whiteSpace=wrap;rounded=1;fontSize=13;fontColor=#FFFFFF;strokeColor=none;" vertex="1" parent="MQtoxVUBuhqvLoLKHlp6-1703">
          <mxGeometry x="3" y="4.5" width="218" height="30" as="geometry" />
        </mxCell>
        <mxCell id="MQtoxVUBuhqvLoLKHlp6-1578" value="" style="group" vertex="1" connectable="0" parent="MQtoxVUBuhqvLoLKHlp6-1573">
          <mxGeometry x="49.5" y="5" width="151" height="36" as="geometry" />
        </mxCell>
        <mxCell id="MQtoxVUBuhqvLoLKHlp6-1579" value="&lt;p style=&quot;margin: 0px 0px 0px 13px; text-indent: -13px; font-variant-numeric: normal; font-variant-east-asian: normal; font-variant-alternates: normal; font-kerning: auto; font-optical-sizing: auto; font-feature-settings: normal; font-variation-settings: normal; font-variant-position: normal; font-stretch: normal; font-size: 14px; line-height: normal; color: rgb(14, 14, 14); text-align: start;&quot; class=&quot;p1&quot;&gt;&lt;br&gt;&lt;/p&gt;" style="rounded=1;whiteSpace=wrap;html=1;fillColor=#FF77BF;strokeColor=none;arcSize=33;" vertex="1" parent="MQtoxVUBuhqvLoLKHlp6-1578">
          <mxGeometry y="5" width="151" height="31" as="geometry" />
        </mxCell>
        <mxCell id="MQtoxVUBuhqvLoLKHlp6-1580" value="&lt;font style=&quot;font-size: 18px;&quot;&gt;&lt;i&gt;Django/Python&lt;/i&gt;&lt;/font&gt;" style="text;html=1;align=center;verticalAlign=middle;whiteSpace=wrap;rounded=1;shadow=0;fontSize=23;fontStyle=1" vertex="1" parent="MQtoxVUBuhqvLoLKHlp6-1578">
          <mxGeometry x="30" width="89" height="36" as="geometry" />
        </mxCell>
        <mxCell id="MQtoxVUBuhqvLoLKHlp6-1581" value="Сервис управления аукционами" style="text;html=1;align=center;verticalAlign=middle;whiteSpace=wrap;rounded=1;shadow=0;fontSize=23;fontStyle=1" vertex="1" parent="MQtoxVUBuhqvLoLKHlp6-1573">
          <mxGeometry x="106.5" y="31" width="549" height="49" as="geometry" />
        </mxCell>
        <mxCell id="MQtoxVUBuhqvLoLKHlp6-1727" value="" style="group" vertex="1" connectable="0" parent="MQtoxVUBuhqvLoLKHlp6-1573">
          <mxGeometry x="32.5" y="328" width="309" height="39" as="geometry" />
        </mxCell>
        <mxCell id="MQtoxVUBuhqvLoLKHlp6-1728" value="" style="rounded=1;whiteSpace=wrap;html=1;fillColor=#1C57CD;strokeColor=none;" vertex="1" parent="MQtoxVUBuhqvLoLKHlp6-1727">
          <mxGeometry width="309" height="39" as="geometry" />
        </mxCell>
        <mxCell id="MQtoxVUBuhqvLoLKHlp6-1729" value="" style="sketch=0;outlineConnect=0;fontColor=#232F3E;gradientColor=none;fillColor=#FFFFFF;strokeColor=none;dashed=0;verticalLabelPosition=bottom;verticalAlign=top;align=center;html=1;fontSize=12;fontStyle=0;aspect=fixed;pointerEvents=1;shape=mxgraph.aws4.gear;rounded=1;" vertex="1" parent="MQtoxVUBuhqvLoLKHlp6-1727">
          <mxGeometry x="280" y="11" width="17" height="17" as="geometry" />
        </mxCell>
        <mxCell id="MQtoxVUBuhqvLoLKHlp6-1730" value="Обновление статуса аукциона" style="text;html=1;align=center;verticalAlign=middle;whiteSpace=wrap;rounded=1;fontSize=13;fontColor=#FFFFFF;strokeColor=none;" vertex="1" parent="MQtoxVUBuhqvLoLKHlp6-1727">
          <mxGeometry y="4.5" width="202" height="30" as="geometry" />
        </mxCell>
        <mxCell id="MQtoxVUBuhqvLoLKHlp6-1353" value="" style="sketch=0;outlineConnect=0;fontColor=#232F3E;gradientColor=none;fillColor=#FFFFFF;strokeColor=none;dashed=0;verticalLabelPosition=bottom;verticalAlign=top;align=center;html=1;fontSize=12;fontStyle=0;aspect=fixed;pointerEvents=1;shape=mxgraph.aws4.gear;rounded=1;" vertex="1" parent="MQtoxVUBuhqvLoLKHlp6-1573">
          <mxGeometry x="586.2414128321452" y="124.32751091703062" width="15.960698689956331" height="15.960698689956331" as="geometry" />
        </mxCell>
        <mxCell id="MQtoxVUBuhqvLoLKHlp6-1582" value="" style="strokeWidth=2;html=1;shape=mxgraph.flowchart.database;whiteSpace=wrap;rounded=1;movable=1;resizable=1;rotatable=1;deletable=1;editable=1;locked=0;connectable=1;" vertex="1" parent="MQtoxVUBuhqvLoLKHlp6-1573">
          <mxGeometry x="442" y="90" width="202" height="253" as="geometry" />
        </mxCell>
        <mxCell id="MQtoxVUBuhqvLoLKHlp6-1583" value="&lt;p style=&quot;margin: 0px 0px 0px 13px; text-indent: -13px; font-variant-numeric: normal; font-variant-east-asian: normal; font-variant-alternates: normal; font-kerning: auto; font-optical-sizing: auto; font-feature-settings: normal; font-variation-settings: normal; font-variant-position: normal; font-stretch: normal; font-size: 14px; line-height: normal; color: rgb(14, 14, 14); text-align: start;&quot; class=&quot;p1&quot;&gt;&lt;font face=&quot;Times New Roman&quot;&gt;Заявка на аукцион.ID&lt;/font&gt;&lt;/p&gt;" style="rounded=1;whiteSpace=wrap;html=1;fillColor=#b1ddf0;strokeColor=#10739e;" vertex="1" parent="MQtoxVUBuhqvLoLKHlp6-1573">
          <mxGeometry x="458" y="205" width="151" height="21" as="geometry" />
        </mxCell>
        <mxCell id="MQtoxVUBuhqvLoLKHlp6-1588" value="&lt;p style=&quot;margin: 0px 0px 0px 13px; text-indent: -13px; font-variant-numeric: normal; font-variant-east-asian: normal; font-variant-alternates: normal; font-kerning: auto; font-optical-sizing: auto; font-feature-settings: normal; font-variation-settings: normal; font-variant-position: normal; font-stretch: normal; font-size: 14px; line-height: normal; color: rgb(14, 14, 14); text-align: start;&quot; class=&quot;p1&quot;&gt;&lt;font face=&quot;Times New Roman&quot;&gt;Аукцион. Статус&lt;/font&gt;&lt;/p&gt;" style="rounded=1;whiteSpace=wrap;html=1;fillColor=#b1ddf0;strokeColor=#FF0000;strokeWidth=3;" vertex="1" parent="MQtoxVUBuhqvLoLKHlp6-1573">
          <mxGeometry x="458" y="239" width="119" height="21" as="geometry" />
        </mxCell>
        <mxCell id="MQtoxVUBuhqvLoLKHlp6-1787" value="" style="group" vertex="1" connectable="0" parent="MQtoxVUBuhqvLoLKHlp6-1573">
          <mxGeometry x="469" y="108" width="151" height="49" as="geometry" />
        </mxCell>
        <mxCell id="MQtoxVUBuhqvLoLKHlp6-1788" value="&lt;p style=&quot;margin: 0px 0px 0px 13px; text-indent: -13px; font-variant-numeric: normal; font-variant-east-asian: normal; font-variant-alternates: normal; font-kerning: auto; font-optical-sizing: auto; font-feature-settings: normal; font-variation-settings: normal; font-variant-position: normal; font-stretch: normal; font-size: 14px; line-height: normal; color: rgb(14, 14, 14); text-align: start;&quot; class=&quot;p1&quot;&gt;&lt;br&gt;&lt;/p&gt;" style="rounded=1;whiteSpace=wrap;html=1;fillColor=#FF77BF;strokeColor=none;arcSize=50;" vertex="1" parent="MQtoxVUBuhqvLoLKHlp6-1787">
          <mxGeometry y="9" width="151" height="33" as="geometry" />
        </mxCell>
        <mxCell id="MQtoxVUBuhqvLoLKHlp6-1789" value="&lt;font style=&quot;font-size: 18px;&quot;&gt;&lt;i&gt;PostgreSQL&lt;/i&gt;&lt;/font&gt;" style="text;html=1;align=center;verticalAlign=middle;whiteSpace=wrap;rounded=1;shadow=0;fontSize=23;fontStyle=1" vertex="1" parent="MQtoxVUBuhqvLoLKHlp6-1787">
          <mxGeometry x="31" width="89" height="49" as="geometry" />
        </mxCell>
        <mxCell id="MQtoxVUBuhqvLoLKHlp6-1790" value="&lt;p style=&quot;margin: 0px 0px 0px 13px; text-indent: -13px; font-variant-numeric: normal; font-variant-east-asian: normal; font-variant-alternates: normal; font-kerning: auto; font-optical-sizing: auto; font-feature-settings: normal; font-variation-settings: normal; font-variant-position: normal; font-stretch: normal; font-size: 14px; line-height: normal; color: rgb(14, 14, 14); text-align: start;&quot; class=&quot;p1&quot;&gt;&lt;font face=&quot;Times New Roman&quot;&gt;Аукцион. Детали&lt;/font&gt;&lt;/p&gt;" style="rounded=1;whiteSpace=wrap;html=1;fillColor=#b1ddf0;strokeColor=#FF0000;strokeWidth=3;" vertex="1" parent="MQtoxVUBuhqvLoLKHlp6-1573">
          <mxGeometry x="460" y="273" width="119" height="21" as="geometry" />
        </mxCell>
        <mxCell id="MQtoxVUBuhqvLoLKHlp6-2230" value="" style="rounded=1;whiteSpace=wrap;html=1;arcSize=3;movable=1;resizable=1;rotatable=1;deletable=1;editable=1;locked=0;connectable=1;fillColor=#f5f5f5;strokeColor=#1C57CD;strokeWidth=3;fontColor=#333333;" vertex="1" parent="1">
          <mxGeometry x="-1234" y="-1281" width="626" height="358" as="geometry" />
        </mxCell>
        <mxCell id="MQtoxVUBuhqvLoLKHlp6-2231" value="Сервис управления заявками" style="text;html=1;align=center;verticalAlign=middle;whiteSpace=wrap;rounded=1;shadow=0;fontSize=23;fontStyle=1" vertex="1" parent="1">
          <mxGeometry x="-1154" y="-1277" width="549" height="49" as="geometry" />
        </mxCell>
        <mxCell id="MQtoxVUBuhqvLoLKHlp6-2232" value="" style="strokeWidth=2;html=1;shape=mxgraph.flowchart.database;whiteSpace=wrap;rounded=1;movable=1;resizable=1;rotatable=1;deletable=1;editable=1;locked=0;connectable=1;" vertex="1" parent="1">
          <mxGeometry x="-853" y="-1198" width="200" height="198" as="geometry" />
        </mxCell>
        <mxCell id="MQtoxVUBuhqvLoLKHlp6-2233" value="&lt;p style=&quot;margin: 0px 0px 0px 13px; text-indent: -13px; font-variant-numeric: normal; font-variant-east-asian: normal; font-variant-alternates: normal; font-kerning: auto; font-optical-sizing: auto; font-feature-settings: normal; font-variation-settings: normal; font-variant-position: normal; font-stretch: normal; font-size: 14px; line-height: normal; color: rgb(14, 14, 14); text-align: start;&quot; class=&quot;p1&quot;&gt;&lt;font face=&quot;Times New Roman&quot;&gt;Заявка на аукцион.ID&lt;/font&gt;&lt;/p&gt;" style="rounded=1;whiteSpace=wrap;html=1;fillColor=#b1ddf0;strokeColor=#10739e;" vertex="1" parent="1">
          <mxGeometry x="-837" y="-1111" width="151" height="21" as="geometry" />
        </mxCell>
        <mxCell id="MQtoxVUBuhqvLoLKHlp6-2234" value="&lt;p style=&quot;margin: 0px 0px 0px 13px; text-indent: -13px; font-variant-numeric: normal; font-variant-east-asian: normal; font-variant-alternates: normal; font-kerning: auto; font-optical-sizing: auto; font-feature-settings: normal; font-variation-settings: normal; font-variant-position: normal; font-stretch: normal; line-height: normal; color: rgb(14, 14, 14); text-align: start;&quot; class=&quot;p1&quot;&gt;&lt;font style=&quot;font-size: 14px;&quot; face=&quot;Times New Roman&quot;&gt;Заявка на регистрацию&lt;/font&gt;&lt;/p&gt;" style="rounded=1;whiteSpace=wrap;html=1;fillColor=#b1ddf0;strokeColor=#10739e;" vertex="1" parent="1">
          <mxGeometry x="-830" y="-1077.5" width="150" height="21" as="geometry" />
        </mxCell>
        <mxCell id="MQtoxVUBuhqvLoLKHlp6-2393" value="" style="group" vertex="1" connectable="0" parent="1">
          <mxGeometry x="-1208" y="-998" width="309" height="39" as="geometry" />
        </mxCell>
        <mxCell id="MQtoxVUBuhqvLoLKHlp6-2394" value="" style="rounded=1;whiteSpace=wrap;html=1;fillColor=#1C57CD;strokeColor=none;" vertex="1" parent="MQtoxVUBuhqvLoLKHlp6-2393">
          <mxGeometry width="309" height="39" as="geometry" />
        </mxCell>
        <mxCell id="MQtoxVUBuhqvLoLKHlp6-2395" value="" style="sketch=0;outlineConnect=0;fontColor=#232F3E;gradientColor=none;fillColor=#FFFFFF;strokeColor=none;dashed=0;verticalLabelPosition=bottom;verticalAlign=top;align=center;html=1;fontSize=12;fontStyle=0;aspect=fixed;pointerEvents=1;shape=mxgraph.aws4.gear;rounded=1;" vertex="1" parent="MQtoxVUBuhqvLoLKHlp6-2393">
          <mxGeometry x="280" y="11" width="17" height="17" as="geometry" />
        </mxCell>
        <mxCell id="MQtoxVUBuhqvLoLKHlp6-2396" value="Обновление статуса заявки" style="text;html=1;align=center;verticalAlign=middle;whiteSpace=wrap;rounded=1;fontSize=13;fontColor=#FFFFFF;strokeColor=none;" vertex="1" parent="MQtoxVUBuhqvLoLKHlp6-2393">
          <mxGeometry x="8" y="4" width="176" height="30" as="geometry" />
        </mxCell>
        <mxCell id="MQtoxVUBuhqvLoLKHlp6-2397" value="" style="group" vertex="1" connectable="0" parent="1">
          <mxGeometry x="-1208" y="-1043" width="309" height="39" as="geometry" />
        </mxCell>
        <mxCell id="MQtoxVUBuhqvLoLKHlp6-2398" value="" style="rounded=1;whiteSpace=wrap;html=1;fillColor=#1C57CD;strokeColor=none;" vertex="1" parent="MQtoxVUBuhqvLoLKHlp6-2397">
          <mxGeometry width="309" height="39" as="geometry" />
        </mxCell>
        <mxCell id="MQtoxVUBuhqvLoLKHlp6-2399" value="" style="sketch=0;outlineConnect=0;fontColor=#232F3E;gradientColor=none;fillColor=#FFFFFF;strokeColor=none;dashed=0;verticalLabelPosition=bottom;verticalAlign=top;align=center;html=1;fontSize=12;fontStyle=0;aspect=fixed;pointerEvents=1;shape=mxgraph.aws4.gear;rounded=1;" vertex="1" parent="MQtoxVUBuhqvLoLKHlp6-2397">
          <mxGeometry x="280" y="11" width="17" height="17" as="geometry" />
        </mxCell>
        <mxCell id="MQtoxVUBuhqvLoLKHlp6-2400" value="Регистрация заявки на техподдержку" style="text;html=1;align=center;verticalAlign=middle;whiteSpace=wrap;rounded=1;fontSize=13;fontColor=#FFFFFF;strokeColor=none;" vertex="1" parent="MQtoxVUBuhqvLoLKHlp6-2397">
          <mxGeometry x="4" y="4.5" width="249" height="30" as="geometry" />
        </mxCell>
        <mxCell id="MQtoxVUBuhqvLoLKHlp6-2401" value="" style="group" vertex="1" connectable="0" parent="1">
          <mxGeometry x="-1208" y="-1089" width="309" height="39" as="geometry" />
        </mxCell>
        <mxCell id="MQtoxVUBuhqvLoLKHlp6-2402" value="" style="rounded=1;whiteSpace=wrap;html=1;fillColor=#1C57CD;strokeColor=none;" vertex="1" parent="MQtoxVUBuhqvLoLKHlp6-2401">
          <mxGeometry width="309" height="39" as="geometry" />
        </mxCell>
        <mxCell id="MQtoxVUBuhqvLoLKHlp6-2403" value="" style="sketch=0;outlineConnect=0;fontColor=#232F3E;gradientColor=none;fillColor=#FFFFFF;strokeColor=none;dashed=0;verticalLabelPosition=bottom;verticalAlign=top;align=center;html=1;fontSize=12;fontStyle=0;aspect=fixed;pointerEvents=1;shape=mxgraph.aws4.gear;rounded=1;" vertex="1" parent="MQtoxVUBuhqvLoLKHlp6-2401">
          <mxGeometry x="280" y="11" width="17" height="17" as="geometry" />
        </mxCell>
        <mxCell id="MQtoxVUBuhqvLoLKHlp6-2404" value="Создать заявку на техподдержку" style="text;html=1;align=center;verticalAlign=middle;whiteSpace=wrap;rounded=1;fontSize=13;fontColor=#FFFFFF;strokeColor=none;" vertex="1" parent="MQtoxVUBuhqvLoLKHlp6-2401">
          <mxGeometry y="4.5" width="230" height="30" as="geometry" />
        </mxCell>
        <mxCell id="MQtoxVUBuhqvLoLKHlp6-2405" value="" style="group" vertex="1" connectable="0" parent="1">
          <mxGeometry x="-1208" y="-1133" width="309" height="39" as="geometry" />
        </mxCell>
        <mxCell id="MQtoxVUBuhqvLoLKHlp6-2406" value="" style="rounded=1;whiteSpace=wrap;html=1;fillColor=#1C57CD;strokeColor=none;" vertex="1" parent="MQtoxVUBuhqvLoLKHlp6-2405">
          <mxGeometry width="309" height="39" as="geometry" />
        </mxCell>
        <mxCell id="MQtoxVUBuhqvLoLKHlp6-2407" value="" style="sketch=0;outlineConnect=0;fontColor=#232F3E;gradientColor=none;fillColor=#FFFFFF;strokeColor=none;dashed=0;verticalLabelPosition=bottom;verticalAlign=top;align=center;html=1;fontSize=12;fontStyle=0;aspect=fixed;pointerEvents=1;shape=mxgraph.aws4.gear;rounded=1;" vertex="1" parent="MQtoxVUBuhqvLoLKHlp6-2405">
          <mxGeometry x="280" y="11" width="17" height="17" as="geometry" />
        </mxCell>
        <mxCell id="MQtoxVUBuhqvLoLKHlp6-2408" value="Обновить статус заявки на апелляцию" style="text;html=1;align=center;verticalAlign=middle;whiteSpace=wrap;rounded=1;fontSize=13;fontColor=#FFFFFF;strokeColor=none;" vertex="1" parent="MQtoxVUBuhqvLoLKHlp6-2405">
          <mxGeometry x="3" y="4.5" width="250" height="30" as="geometry" />
        </mxCell>
        <mxCell id="MQtoxVUBuhqvLoLKHlp6-2409" value="" style="group" vertex="1" connectable="0" parent="1">
          <mxGeometry x="-1208" y="-1178" width="309" height="39" as="geometry" />
        </mxCell>
        <mxCell id="MQtoxVUBuhqvLoLKHlp6-2410" value="" style="rounded=1;whiteSpace=wrap;html=1;fillColor=#1C57CD;strokeColor=none;" vertex="1" parent="MQtoxVUBuhqvLoLKHlp6-2409">
          <mxGeometry width="309" height="39" as="geometry" />
        </mxCell>
        <mxCell id="MQtoxVUBuhqvLoLKHlp6-2411" value="" style="sketch=0;outlineConnect=0;fontColor=#232F3E;gradientColor=none;fillColor=#FFFFFF;strokeColor=none;dashed=0;verticalLabelPosition=bottom;verticalAlign=top;align=center;html=1;fontSize=12;fontStyle=0;aspect=fixed;pointerEvents=1;shape=mxgraph.aws4.gear;rounded=1;" vertex="1" parent="MQtoxVUBuhqvLoLKHlp6-2409">
          <mxGeometry x="280" y="11" width="17" height="17" as="geometry" />
        </mxCell>
        <mxCell id="MQtoxVUBuhqvLoLKHlp6-2412" value="Регистрация заявки на апелляцию" style="text;html=1;align=center;verticalAlign=middle;whiteSpace=wrap;rounded=1;fontSize=13;fontColor=#FFFFFF;strokeColor=none;" vertex="1" parent="MQtoxVUBuhqvLoLKHlp6-2409">
          <mxGeometry x="1" y="4.5" width="227" height="30" as="geometry" />
        </mxCell>
        <mxCell id="MQtoxVUBuhqvLoLKHlp6-2413" value="" style="group" vertex="1" connectable="0" parent="1">
          <mxGeometry x="-1208" y="-1225" width="309" height="39" as="geometry" />
        </mxCell>
        <mxCell id="MQtoxVUBuhqvLoLKHlp6-2414" value="" style="rounded=1;whiteSpace=wrap;html=1;fillColor=#1C57CD;strokeColor=none;" vertex="1" parent="MQtoxVUBuhqvLoLKHlp6-2413">
          <mxGeometry width="309" height="39" as="geometry" />
        </mxCell>
        <mxCell id="MQtoxVUBuhqvLoLKHlp6-2415" value="" style="sketch=0;outlineConnect=0;fontColor=#232F3E;gradientColor=none;fillColor=#FFFFFF;strokeColor=none;dashed=0;verticalLabelPosition=bottom;verticalAlign=top;align=center;html=1;fontSize=12;fontStyle=0;aspect=fixed;pointerEvents=1;shape=mxgraph.aws4.gear;rounded=1;" vertex="1" parent="MQtoxVUBuhqvLoLKHlp6-2413">
          <mxGeometry x="280" y="11" width="17" height="17" as="geometry" />
        </mxCell>
        <mxCell id="MQtoxVUBuhqvLoLKHlp6-2416" value="Создать заявку на апелляцию&amp;nbsp;" style="text;html=1;align=center;verticalAlign=middle;whiteSpace=wrap;rounded=1;fontSize=13;fontColor=#FFFFFF;strokeColor=none;" vertex="1" parent="MQtoxVUBuhqvLoLKHlp6-2413">
          <mxGeometry x="4" y="4.5" width="202" height="30" as="geometry" />
        </mxCell>
        <mxCell id="MQtoxVUBuhqvLoLKHlp6-2445" value="" style="group" vertex="1" connectable="0" parent="1">
          <mxGeometry x="-821" y="-1180" width="121" height="37" as="geometry" />
        </mxCell>
        <mxCell id="MQtoxVUBuhqvLoLKHlp6-2446" value="&lt;p style=&quot;margin: 0px 0px 0px 13px; text-indent: -13px; font-variant-numeric: normal; font-variant-east-asian: normal; font-variant-alternates: normal; font-kerning: auto; font-optical-sizing: auto; font-feature-settings: normal; font-variation-settings: normal; font-variant-position: normal; font-stretch: normal; font-size: 14px; line-height: normal; color: rgb(14, 14, 14); text-align: start;&quot; class=&quot;p1&quot;&gt;&lt;br&gt;&lt;/p&gt;" style="rounded=1;whiteSpace=wrap;html=1;fillColor=#FF77BF;strokeColor=none;arcSize=50;" vertex="1" parent="MQtoxVUBuhqvLoLKHlp6-2445">
          <mxGeometry y="6.795918367346938" width="121" height="24.918367346938773" as="geometry" />
        </mxCell>
        <mxCell id="MQtoxVUBuhqvLoLKHlp6-2447" value="&lt;font style=&quot;font-size: 18px;&quot;&gt;&lt;i&gt;PostgreSQL&lt;/i&gt;&lt;/font&gt;" style="text;html=1;align=center;verticalAlign=middle;whiteSpace=wrap;rounded=1;shadow=0;fontSize=23;fontStyle=1" vertex="1" parent="MQtoxVUBuhqvLoLKHlp6-2445">
          <mxGeometry x="42.84" y="8" width="33.16" height="17" as="geometry" />
        </mxCell>
        <mxCell id="MQtoxVUBuhqvLoLKHlp6-2448" value="" style="group" vertex="1" connectable="0" parent="1">
          <mxGeometry x="-16" y="-1907" width="151" height="36" as="geometry" />
        </mxCell>
        <mxCell id="MQtoxVUBuhqvLoLKHlp6-2449" value="&lt;p style=&quot;margin: 0px 0px 0px 13px; text-indent: -13px; font-variant-numeric: normal; font-variant-east-asian: normal; font-variant-alternates: normal; font-kerning: auto; font-optical-sizing: auto; font-feature-settings: normal; font-variation-settings: normal; font-variant-position: normal; font-stretch: normal; font-size: 14px; line-height: normal; color: rgb(14, 14, 14); text-align: start;&quot; class=&quot;p1&quot;&gt;&lt;br&gt;&lt;/p&gt;" style="rounded=1;whiteSpace=wrap;html=1;fillColor=#FF77BF;strokeColor=none;arcSize=33;" vertex="1" parent="MQtoxVUBuhqvLoLKHlp6-2448">
          <mxGeometry y="5" width="151" height="31" as="geometry" />
        </mxCell>
        <mxCell id="MQtoxVUBuhqvLoLKHlp6-2450" value="&lt;font style=&quot;font-size: 18px;&quot;&gt;&lt;i&gt;Django/Python&lt;/i&gt;&lt;/font&gt;" style="text;html=1;align=center;verticalAlign=middle;whiteSpace=wrap;rounded=1;shadow=0;fontSize=23;fontStyle=1" vertex="1" parent="MQtoxVUBuhqvLoLKHlp6-2448">
          <mxGeometry x="30" width="89" height="36" as="geometry" />
        </mxCell>
        <mxCell id="MQtoxVUBuhqvLoLKHlp6-2451" value="" style="rounded=1;whiteSpace=wrap;html=1;arcSize=3;movable=1;resizable=1;rotatable=1;deletable=1;editable=1;locked=0;connectable=1;fillColor=#f5f5f5;strokeColor=#1C57CD;strokeWidth=3;fontColor=#333333;" vertex="1" parent="1">
          <mxGeometry x="-39" y="-1876" width="578" height="410" as="geometry" />
        </mxCell>
        <mxCell id="MQtoxVUBuhqvLoLKHlp6-2452" value="Сервис управления торговыми площадками" style="text;html=1;align=center;verticalAlign=middle;whiteSpace=wrap;rounded=1;shadow=0;fontSize=23;fontStyle=1" vertex="1" parent="1">
          <mxGeometry x="-26" y="-1876" width="549" height="49" as="geometry" />
        </mxCell>
        <mxCell id="MQtoxVUBuhqvLoLKHlp6-2453" value="" style="strokeWidth=2;html=1;shape=mxgraph.flowchart.database;whiteSpace=wrap;rounded=1;movable=1;resizable=1;rotatable=1;deletable=1;editable=1;locked=0;connectable=1;" vertex="1" parent="1">
          <mxGeometry x="26" y="-1751" width="287" height="238" as="geometry" />
        </mxCell>
        <mxCell id="MQtoxVUBuhqvLoLKHlp6-2466" value="&lt;p style=&quot;margin: 0px 0px 0px 13px; text-indent: -13px; font-variant-numeric: normal; font-variant-east-asian: normal; font-variant-alternates: normal; font-kerning: auto; font-optical-sizing: auto; font-feature-settings: normal; font-variation-settings: normal; font-variant-position: normal; font-stretch: normal; font-size: 14px; line-height: normal; color: rgb(14, 14, 14); text-align: start;&quot; class=&quot;p1&quot;&gt;&lt;font face=&quot;Times New Roman&quot;&gt;Торговая площадка.ID&lt;/font&gt;&lt;/p&gt;" style="rounded=1;whiteSpace=wrap;html=1;fillColor=#b1ddf0;strokeColor=#10739e;" vertex="1" parent="1">
          <mxGeometry x="68" y="-1632" width="144.5" height="21" as="geometry" />
        </mxCell>
        <mxCell id="MQtoxVUBuhqvLoLKHlp6-2467" value="&lt;p style=&quot;margin: 0px 0px 0px 13px; text-indent: -13px; font-variant-numeric: normal; font-variant-east-asian: normal; font-variant-alternates: normal; font-kerning: auto; font-optical-sizing: auto; font-feature-settings: normal; font-variation-settings: normal; font-variant-position: normal; font-stretch: normal; font-size: 14px; line-height: normal; color: rgb(14, 14, 14); text-align: start;&quot; class=&quot;p1&quot;&gt;&lt;font face=&quot;Times New Roman&quot;&gt;Торговая площадка.Наименование&lt;/font&gt;&lt;/p&gt;" style="rounded=1;whiteSpace=wrap;html=1;fillColor=#b1ddf0;strokeColor=#10739e;" vertex="1" parent="1">
          <mxGeometry x="63" y="-1598" width="214" height="21" as="geometry" />
        </mxCell>
        <mxCell id="MQtoxVUBuhqvLoLKHlp6-2481" value="" style="group" vertex="1" connectable="0" parent="1">
          <mxGeometry x="26" y="-1815" width="309" height="39" as="geometry" />
        </mxCell>
        <mxCell id="MQtoxVUBuhqvLoLKHlp6-2482" value="" style="group" vertex="1" connectable="0" parent="MQtoxVUBuhqvLoLKHlp6-2481">
          <mxGeometry width="309" height="39" as="geometry" />
        </mxCell>
        <mxCell id="MQtoxVUBuhqvLoLKHlp6-2483" value="" style="rounded=1;whiteSpace=wrap;html=1;gradientColor=none;fillColor=#1C57CD;strokeColor=#FF0000;movable=1;resizable=1;rotatable=1;deletable=1;editable=1;locked=0;connectable=1;strokeWidth=3;" vertex="1" parent="MQtoxVUBuhqvLoLKHlp6-2482">
          <mxGeometry width="309" height="39" as="geometry" />
        </mxCell>
        <mxCell id="MQtoxVUBuhqvLoLKHlp6-2484" value="" style="sketch=0;outlineConnect=0;dashed=0;verticalLabelPosition=bottom;verticalAlign=top;align=center;html=1;fontSize=12;fontStyle=0;aspect=fixed;pointerEvents=1;shape=mxgraph.aws4.gear;rounded=1;strokeColor=none;fillColor=default;" vertex="1" parent="MQtoxVUBuhqvLoLKHlp6-2482">
          <mxGeometry x="280" y="11" width="17" height="17" as="geometry" />
        </mxCell>
        <mxCell id="MQtoxVUBuhqvLoLKHlp6-2485" value="Регистрация торговой площадки" style="text;html=1;align=center;verticalAlign=middle;whiteSpace=wrap;rounded=1;fontSize=13;fontColor=#FFFFFF;strokeColor=none;movable=1;resizable=1;rotatable=1;deletable=1;editable=1;locked=0;connectable=1;" vertex="1" parent="MQtoxVUBuhqvLoLKHlp6-2482">
          <mxGeometry x="3" y="4.5" width="219" height="30" as="geometry" />
        </mxCell>
        <mxCell id="MQtoxVUBuhqvLoLKHlp6-2666" value="" style="group" vertex="1" connectable="0" parent="1">
          <mxGeometry x="93" y="-1731" width="151" height="49" as="geometry" />
        </mxCell>
        <mxCell id="MQtoxVUBuhqvLoLKHlp6-2667" value="&lt;p style=&quot;margin: 0px 0px 0px 13px; text-indent: -13px; font-variant-numeric: normal; font-variant-east-asian: normal; font-variant-alternates: normal; font-kerning: auto; font-optical-sizing: auto; font-feature-settings: normal; font-variation-settings: normal; font-variant-position: normal; font-stretch: normal; font-size: 14px; line-height: normal; color: rgb(14, 14, 14); text-align: start;&quot; class=&quot;p1&quot;&gt;&lt;br&gt;&lt;/p&gt;" style="rounded=1;whiteSpace=wrap;html=1;fillColor=#FF77BF;strokeColor=none;arcSize=50;" vertex="1" parent="MQtoxVUBuhqvLoLKHlp6-2666">
          <mxGeometry y="9" width="151" height="33" as="geometry" />
        </mxCell>
        <mxCell id="MQtoxVUBuhqvLoLKHlp6-2668" value="&lt;font style=&quot;font-size: 18px;&quot;&gt;&lt;i&gt;PostgreSQL&lt;/i&gt;&lt;/font&gt;" style="text;html=1;align=center;verticalAlign=middle;whiteSpace=wrap;rounded=1;shadow=0;fontSize=23;fontStyle=1" vertex="1" parent="MQtoxVUBuhqvLoLKHlp6-2666">
          <mxGeometry x="31" width="89" height="49" as="geometry" />
        </mxCell>
        <mxCell id="MQtoxVUBuhqvLoLKHlp6-2227" value="" style="group" vertex="1" connectable="0" parent="1">
          <mxGeometry x="-1211" y="-1303" width="151" height="36" as="geometry" />
        </mxCell>
        <mxCell id="MQtoxVUBuhqvLoLKHlp6-2228" value="&lt;p style=&quot;margin: 0px 0px 0px 13px; text-indent: -13px; font-variant-numeric: normal; font-variant-east-asian: normal; font-variant-alternates: normal; font-kerning: auto; font-optical-sizing: auto; font-feature-settings: normal; font-variation-settings: normal; font-variant-position: normal; font-stretch: normal; font-size: 14px; line-height: normal; color: rgb(14, 14, 14); text-align: start;&quot; class=&quot;p1&quot;&gt;&lt;br&gt;&lt;/p&gt;" style="rounded=1;whiteSpace=wrap;html=1;fillColor=#FF77BF;strokeColor=none;arcSize=33;" vertex="1" parent="MQtoxVUBuhqvLoLKHlp6-2227">
          <mxGeometry y="5" width="151" height="31" as="geometry" />
        </mxCell>
        <mxCell id="MQtoxVUBuhqvLoLKHlp6-2229" value="&lt;font style=&quot;font-size: 18px;&quot;&gt;&lt;i&gt;Django/Python&lt;/i&gt;&lt;/font&gt;" style="text;html=1;align=center;verticalAlign=middle;whiteSpace=wrap;rounded=1;shadow=0;fontSize=23;fontStyle=1" vertex="1" parent="MQtoxVUBuhqvLoLKHlp6-2227">
          <mxGeometry x="30" width="89" height="36" as="geometry" />
        </mxCell>
        <mxCell id="MQtoxVUBuhqvLoLKHlp6-2670" value="" style="endArrow=classic;html=1;rounded=1;dashed=1;entryX=1;entryY=0;entryDx=0;entryDy=0;fontSize=12;" edge="1" source="MQtoxVUBuhqvLoLKHlp6-2676" parent="1" target="MQtoxVUBuhqvLoLKHlp6-2675">
          <mxGeometry width="50" height="50" relative="1" as="geometry">
            <mxPoint x="-2005" y="-1686" as="sourcePoint" />
            <mxPoint x="-2003.7399999999998" y="-1422.4809999999998" as="targetPoint" />
            <Array as="points" />
          </mxGeometry>
        </mxCell>
        <mxCell id="MQtoxVUBuhqvLoLKHlp6-2671" value="" style="group" vertex="1" connectable="0" parent="1">
          <mxGeometry x="-3029" y="-2604" width="155" height="49" as="geometry" />
        </mxCell>
        <mxCell id="MQtoxVUBuhqvLoLKHlp6-2672" value="&lt;p style=&quot;margin: 0px 0px 0px 13px; text-indent: -13px; font-variant-numeric: normal; font-variant-east-asian: normal; font-variant-alternates: normal; font-kerning: auto; font-optical-sizing: auto; font-feature-settings: normal; font-variation-settings: normal; font-variant-position: normal; font-stretch: normal; font-size: 14px; line-height: normal; color: rgb(14, 14, 14); text-align: start;&quot; class=&quot;p1&quot;&gt;&lt;br&gt;&lt;/p&gt;" style="rounded=1;whiteSpace=wrap;html=1;fillColor=#FF77BF;strokeColor=none;arcSize=33;" vertex="1" parent="MQtoxVUBuhqvLoLKHlp6-2671">
          <mxGeometry y="13" width="155" height="34" as="geometry" />
        </mxCell>
        <mxCell id="MQtoxVUBuhqvLoLKHlp6-2673" value="&lt;font style=&quot;font-size: 18px;&quot;&gt;&lt;i&gt;React/HTML/CSS&lt;/i&gt;&lt;/font&gt;" style="text;html=1;align=center;verticalAlign=middle;whiteSpace=wrap;rounded=1;shadow=0;fontSize=23;fontStyle=1" vertex="1" parent="MQtoxVUBuhqvLoLKHlp6-2671">
          <mxGeometry x="29" width="89" height="49" as="geometry" />
        </mxCell>
        <mxCell id="MQtoxVUBuhqvLoLKHlp6-2674" value="" style="rounded=1;whiteSpace=wrap;html=1;arcSize=3;fillColor=#f5f5f5;strokeColor=#1C57CD;strokeWidth=3;align=center;verticalAlign=middle;fontFamily=Helvetica;fontSize=12;fontColor=#333333;resizable=1;" vertex="1" parent="1">
          <mxGeometry x="-3050" y="-2561" width="650" height="210" as="geometry" />
        </mxCell>
        <mxCell id="MQtoxVUBuhqvLoLKHlp6-2675" value="Портал электронной площадки" style="text;html=1;align=center;verticalAlign=middle;whiteSpace=wrap;rounded=1;shadow=0;fontSize=23;fontStyle=1" vertex="1" parent="1">
          <mxGeometry x="-2983" y="-2559" width="380" height="49" as="geometry" />
        </mxCell>
        <mxCell id="MQtoxVUBuhqvLoLKHlp6-2676" value="Клиент" style="shape=umlActor;verticalLabelPosition=bottom;verticalAlign=top;html=1;outlineConnect=0;rounded=1;" vertex="1" parent="1">
          <mxGeometry x="-2627" y="-3203" width="65" height="141" as="geometry" />
        </mxCell>
        <mxCell id="MQtoxVUBuhqvLoLKHlp6-2677" value="" style="group" vertex="1" connectable="0" parent="1">
          <mxGeometry x="-3040" y="-2501" width="309" height="39" as="geometry" />
        </mxCell>
        <mxCell id="MQtoxVUBuhqvLoLKHlp6-2678" value="" style="group" vertex="1" connectable="0" parent="MQtoxVUBuhqvLoLKHlp6-2677">
          <mxGeometry width="309" height="39" as="geometry" />
        </mxCell>
        <mxCell id="MQtoxVUBuhqvLoLKHlp6-2679" value="" style="rounded=1;whiteSpace=wrap;html=1;fillColor=#1C57CD;strokeColor=none;" vertex="1" parent="MQtoxVUBuhqvLoLKHlp6-2678">
          <mxGeometry width="309" height="39" as="geometry" />
        </mxCell>
        <mxCell id="MQtoxVUBuhqvLoLKHlp6-2680" value="" style="sketch=0;outlineConnect=0;fontColor=#FFFFFF;gradientColor=none;fillColor=#FFFFFF;strokeColor=none;dashed=0;verticalLabelPosition=bottom;verticalAlign=top;align=center;html=1;fontSize=12;fontStyle=0;aspect=fixed;pointerEvents=1;shape=mxgraph.aws4.gear;rounded=1;" vertex="1" parent="MQtoxVUBuhqvLoLKHlp6-2678">
          <mxGeometry x="280" y="11" width="17" height="17" as="geometry" />
        </mxCell>
        <mxCell id="MQtoxVUBuhqvLoLKHlp6-2681" value="Зарегистрироваться на площадке" style="text;html=1;align=center;verticalAlign=middle;whiteSpace=wrap;rounded=1;fontSize=13;fontColor=#FFFFFF;" vertex="1" parent="MQtoxVUBuhqvLoLKHlp6-2678">
          <mxGeometry x="9" y="4.5" width="218" height="30" as="geometry" />
        </mxCell>
        <mxCell id="MQtoxVUBuhqvLoLKHlp6-2682" value="" style="group" vertex="1" connectable="0" parent="1">
          <mxGeometry x="-3040" y="-2451" width="309" height="39" as="geometry" />
        </mxCell>
        <mxCell id="MQtoxVUBuhqvLoLKHlp6-2683" value="" style="group" vertex="1" connectable="0" parent="MQtoxVUBuhqvLoLKHlp6-2682">
          <mxGeometry width="309" height="39" as="geometry" />
        </mxCell>
        <mxCell id="MQtoxVUBuhqvLoLKHlp6-2684" value="" style="rounded=1;whiteSpace=wrap;html=1;fillColor=#1C57CD;strokeColor=none;" vertex="1" parent="MQtoxVUBuhqvLoLKHlp6-2683">
          <mxGeometry width="309" height="39" as="geometry" />
        </mxCell>
        <mxCell id="MQtoxVUBuhqvLoLKHlp6-2685" value="" style="sketch=0;outlineConnect=0;fontColor=#FFFFFF;gradientColor=none;fillColor=#FFFFFF;strokeColor=none;dashed=0;verticalLabelPosition=bottom;verticalAlign=top;align=center;html=1;fontSize=12;fontStyle=0;aspect=fixed;pointerEvents=1;shape=mxgraph.aws4.gear;rounded=1;" vertex="1" parent="MQtoxVUBuhqvLoLKHlp6-2683">
          <mxGeometry x="280" y="11" width="17" height="17" as="geometry" />
        </mxCell>
        <mxCell id="MQtoxVUBuhqvLoLKHlp6-2686" value="Редактировать профиль" style="text;html=1;align=center;verticalAlign=middle;whiteSpace=wrap;rounded=1;fontSize=13;fontColor=#FFFFFF;" vertex="1" parent="MQtoxVUBuhqvLoLKHlp6-2683">
          <mxGeometry x="8" y="4.5" width="164" height="30" as="geometry" />
        </mxCell>
        <mxCell id="MQtoxVUBuhqvLoLKHlp6-2687" value="" style="group" vertex="1" connectable="0" parent="1">
          <mxGeometry x="-3040" y="-2401" width="309" height="39" as="geometry" />
        </mxCell>
        <mxCell id="MQtoxVUBuhqvLoLKHlp6-2688" value="" style="group" vertex="1" connectable="0" parent="MQtoxVUBuhqvLoLKHlp6-2687">
          <mxGeometry width="309" height="39" as="geometry" />
        </mxCell>
        <mxCell id="MQtoxVUBuhqvLoLKHlp6-2689" value="" style="rounded=1;whiteSpace=wrap;html=1;fillColor=#1C57CD;strokeColor=none;" vertex="1" parent="MQtoxVUBuhqvLoLKHlp6-2688">
          <mxGeometry width="309" height="39" as="geometry" />
        </mxCell>
        <mxCell id="MQtoxVUBuhqvLoLKHlp6-2690" value="" style="sketch=0;outlineConnect=0;fontColor=#FFFFFF;gradientColor=none;fillColor=#FFFFFF;strokeColor=none;dashed=0;verticalLabelPosition=bottom;verticalAlign=top;align=center;html=1;fontSize=12;fontStyle=0;aspect=fixed;pointerEvents=1;shape=mxgraph.aws4.gear;rounded=1;" vertex="1" parent="MQtoxVUBuhqvLoLKHlp6-2688">
          <mxGeometry x="280" y="11" width="17" height="17" as="geometry" />
        </mxCell>
        <mxCell id="MQtoxVUBuhqvLoLKHlp6-2691" value="Разместить заказ" style="text;html=1;align=center;verticalAlign=middle;whiteSpace=wrap;rounded=1;fontSize=13;fontColor=#FFFFFF;" vertex="1" parent="MQtoxVUBuhqvLoLKHlp6-2688">
          <mxGeometry x="14" y="3" width="117" height="30" as="geometry" />
        </mxCell>
        <mxCell id="MQtoxVUBuhqvLoLKHlp6-2692" value="" style="group" vertex="1" connectable="0" parent="1">
          <mxGeometry x="-2720" y="-2501" width="309" height="39" as="geometry" />
        </mxCell>
        <mxCell id="MQtoxVUBuhqvLoLKHlp6-2693" value="" style="group" vertex="1" connectable="0" parent="MQtoxVUBuhqvLoLKHlp6-2692">
          <mxGeometry width="309" height="39" as="geometry" />
        </mxCell>
        <mxCell id="MQtoxVUBuhqvLoLKHlp6-2694" value="" style="rounded=1;whiteSpace=wrap;html=1;fillColor=#1C57CD;strokeColor=none;" vertex="1" parent="MQtoxVUBuhqvLoLKHlp6-2693">
          <mxGeometry width="309" height="39" as="geometry" />
        </mxCell>
        <mxCell id="MQtoxVUBuhqvLoLKHlp6-2695" value="" style="sketch=0;outlineConnect=0;fontColor=#FFFFFF;gradientColor=none;fillColor=#FFFFFF;strokeColor=none;dashed=0;verticalLabelPosition=bottom;verticalAlign=top;align=center;html=1;fontSize=12;fontStyle=0;aspect=fixed;pointerEvents=1;shape=mxgraph.aws4.gear;rounded=1;" vertex="1" parent="MQtoxVUBuhqvLoLKHlp6-2693">
          <mxGeometry x="280" y="11" width="17" height="17" as="geometry" />
        </mxCell>
        <mxCell id="MQtoxVUBuhqvLoLKHlp6-2696" value="Разместить услугу" style="text;html=1;align=center;verticalAlign=middle;whiteSpace=wrap;rounded=1;fontSize=13;fontColor=#FFFFFF;" vertex="1" parent="MQtoxVUBuhqvLoLKHlp6-2693">
          <mxGeometry x="6" y="4.5" width="132" height="30" as="geometry" />
        </mxCell>
        <mxCell id="MQtoxVUBuhqvLoLKHlp6-2697" value="" style="group" vertex="1" connectable="0" parent="1">
          <mxGeometry x="-2720" y="-2451" width="309" height="39" as="geometry" />
        </mxCell>
        <mxCell id="MQtoxVUBuhqvLoLKHlp6-2698" value="" style="group" vertex="1" connectable="0" parent="MQtoxVUBuhqvLoLKHlp6-2697">
          <mxGeometry width="309" height="39" as="geometry" />
        </mxCell>
        <mxCell id="MQtoxVUBuhqvLoLKHlp6-2699" value="" style="rounded=1;whiteSpace=wrap;html=1;fillColor=#1C57CD;strokeColor=none;" vertex="1" parent="MQtoxVUBuhqvLoLKHlp6-2698">
          <mxGeometry width="309" height="39" as="geometry" />
        </mxCell>
        <mxCell id="MQtoxVUBuhqvLoLKHlp6-2700" value="" style="sketch=0;outlineConnect=0;fontColor=#FFFFFF;gradientColor=none;fillColor=#FFFFFF;strokeColor=none;dashed=0;verticalLabelPosition=bottom;verticalAlign=top;align=center;html=1;fontSize=12;fontStyle=0;aspect=fixed;pointerEvents=1;shape=mxgraph.aws4.gear;rounded=1;" vertex="1" parent="MQtoxVUBuhqvLoLKHlp6-2698">
          <mxGeometry x="280" y="11" width="17" height="17" as="geometry" />
        </mxCell>
        <mxCell id="MQtoxVUBuhqvLoLKHlp6-2701" value="Создать аукцион" style="text;html=1;align=center;verticalAlign=middle;whiteSpace=wrap;rounded=1;fontSize=13;fontColor=#FFFFFF;" vertex="1" parent="MQtoxVUBuhqvLoLKHlp6-2698">
          <mxGeometry x="10" y="4.5" width="110" height="30" as="geometry" />
        </mxCell>
        <mxCell id="MQtoxVUBuhqvLoLKHlp6-2702" value="" style="group" vertex="1" connectable="0" parent="1">
          <mxGeometry x="-2720" y="-2401" width="309" height="39" as="geometry" />
        </mxCell>
        <mxCell id="MQtoxVUBuhqvLoLKHlp6-2703" value="" style="group" vertex="1" connectable="0" parent="MQtoxVUBuhqvLoLKHlp6-2702">
          <mxGeometry width="309" height="39" as="geometry" />
        </mxCell>
        <mxCell id="MQtoxVUBuhqvLoLKHlp6-2704" value="" style="rounded=1;whiteSpace=wrap;html=1;fillColor=#1C57CD;strokeColor=none;" vertex="1" parent="MQtoxVUBuhqvLoLKHlp6-2703">
          <mxGeometry width="309" height="39" as="geometry" />
        </mxCell>
        <mxCell id="MQtoxVUBuhqvLoLKHlp6-2705" value="" style="sketch=0;outlineConnect=0;fontColor=#FFFFFF;gradientColor=none;fillColor=#FFFFFF;strokeColor=none;dashed=0;verticalLabelPosition=bottom;verticalAlign=top;align=center;html=1;fontSize=12;fontStyle=0;aspect=fixed;pointerEvents=1;shape=mxgraph.aws4.gear;rounded=1;" vertex="1" parent="MQtoxVUBuhqvLoLKHlp6-2703">
          <mxGeometry x="280" y="11" width="17" height="17" as="geometry" />
        </mxCell>
        <mxCell id="MQtoxVUBuhqvLoLKHlp6-2706" value="Подать заявку на аукцион" style="text;html=1;align=center;verticalAlign=middle;whiteSpace=wrap;rounded=1;fontSize=13;fontColor=#FFFFFF;" vertex="1" parent="MQtoxVUBuhqvLoLKHlp6-2703">
          <mxGeometry x="10" y="4.5" width="167" height="30" as="geometry" />
        </mxCell>
        <mxCell id="MQtoxVUBuhqvLoLKHlp6-2708" value="" style="rounded=1;whiteSpace=wrap;html=1;arcSize=3;fillColor=#f5f5f5;strokeColor=#FF0000;strokeWidth=3;align=center;verticalAlign=middle;fontFamily=Helvetica;fontSize=12;fontColor=#333333;resizable=1;" vertex="1" parent="1">
          <mxGeometry x="-2318" y="-1062" width="650" height="210" as="geometry" />
        </mxCell>
        <mxCell id="MQtoxVUBuhqvLoLKHlp6-2709" value="API Gateway" style="text;html=1;align=center;verticalAlign=middle;whiteSpace=wrap;rounded=1;shadow=0;fontSize=23;fontStyle=1" vertex="1" parent="1">
          <mxGeometry x="-2251" y="-1040" width="380" height="49" as="geometry" />
        </mxCell>
        <mxCell id="MQtoxVUBuhqvLoLKHlp6-2710" value="" style="endArrow=classic;html=1;rounded=0;" edge="1" parent="1">
          <mxGeometry width="50" height="50" relative="1" as="geometry">
            <mxPoint x="-2324" y="-968" as="sourcePoint" />
            <mxPoint x="-2642" y="-968" as="targetPoint" />
          </mxGeometry>
        </mxCell>
        <mxCell id="MQtoxVUBuhqvLoLKHlp6-2714" value="" style="endArrow=classic;html=1;rounded=0;entryX=0.458;entryY=-0.019;entryDx=0;entryDy=0;entryPerimeter=0;exitX=0.459;exitY=1.001;exitDx=0;exitDy=0;exitPerimeter=0;" edge="1" parent="1" source="MQtoxVUBuhqvLoLKHlp6-2674" target="MQtoxVUBuhqvLoLKHlp6-2708">
          <mxGeometry width="50" height="50" relative="1" as="geometry">
            <mxPoint x="-2028" y="-1212" as="sourcePoint" />
            <mxPoint x="-2013" y="-1176" as="targetPoint" />
          </mxGeometry>
        </mxCell>
        <mxCell id="MQtoxVUBuhqvLoLKHlp6-2715" value="" style="endArrow=classic;html=1;rounded=0;" edge="1" parent="1">
          <mxGeometry width="50" height="50" relative="1" as="geometry">
            <mxPoint x="-2243" y="-850" as="sourcePoint" />
            <mxPoint x="-2386" y="-692" as="targetPoint" />
          </mxGeometry>
        </mxCell>
        <mxCell id="MQtoxVUBuhqvLoLKHlp6-2718" value="" style="endArrow=classic;html=1;rounded=0;" edge="1" parent="1">
          <mxGeometry width="50" height="50" relative="1" as="geometry">
            <mxPoint x="-1861" y="-848" as="sourcePoint" />
            <mxPoint x="-1857" y="-679" as="targetPoint" />
          </mxGeometry>
        </mxCell>
        <mxCell id="MQtoxVUBuhqvLoLKHlp6-2720" value="" style="endArrow=classic;html=1;rounded=0;exitX=1;exitY=1;exitDx=0;exitDy=0;entryX=0.033;entryY=0.006;entryDx=0;entryDy=0;entryPerimeter=0;" edge="1" parent="1">
          <mxGeometry width="50" height="50" relative="1" as="geometry">
            <mxPoint x="-1666" y="-865" as="sourcePoint" />
            <mxPoint x="-1304.187499999999" y="-692.8499999999999" as="targetPoint" />
          </mxGeometry>
        </mxCell>
        <mxCell id="MQtoxVUBuhqvLoLKHlp6-2722" value="" style="endArrow=classic;html=1;rounded=0;" edge="1" parent="1">
          <mxGeometry width="50" height="50" relative="1" as="geometry">
            <mxPoint x="-1664" y="-884" as="sourcePoint" />
            <mxPoint x="-491" y="-873" as="targetPoint" />
          </mxGeometry>
        </mxCell>
        <mxCell id="MQtoxVUBuhqvLoLKHlp6-2724" value="" style="endArrow=classic;html=1;rounded=0;exitX=1.004;exitY=0.336;exitDx=0;exitDy=0;exitPerimeter=0;" edge="1" parent="1" source="MQtoxVUBuhqvLoLKHlp6-2708">
          <mxGeometry width="50" height="50" relative="1" as="geometry">
            <mxPoint x="-1321" y="-991.5" as="sourcePoint" />
            <mxPoint x="-1245" y="-991" as="targetPoint" />
          </mxGeometry>
        </mxCell>
        <mxCell id="MQtoxVUBuhqvLoLKHlp6-2725" value="Администратор" style="shape=umlActor;verticalLabelPosition=bottom;verticalAlign=top;html=1;outlineConnect=0;rounded=1;" vertex="1" parent="1">
          <mxGeometry x="-581" y="-1671" width="65" height="141" as="geometry" />
        </mxCell>
        <mxCell id="MQtoxVUBuhqvLoLKHlp6-2726" value="" style="endArrow=classic;html=1;rounded=1;dashed=1;exitX=1;exitY=1;exitDx=0;exitDy=0;exitPerimeter=0;" edge="1" source="MQtoxVUBuhqvLoLKHlp6-2725" parent="1">
          <mxGeometry width="50" height="50" relative="1" as="geometry">
            <mxPoint x="-415" y="-1507" as="sourcePoint" />
            <mxPoint x="-366" y="-1253" as="targetPoint" />
            <Array as="points" />
          </mxGeometry>
        </mxCell>
        <mxCell id="MQtoxVUBuhqvLoLKHlp6-2727" value="Редактировать аукцион" style="text;html=1;align=center;verticalAlign=middle;whiteSpace=wrap;rounded=1;fontSize=13;rotation=60;arcSize=50;" vertex="1" parent="1">
          <mxGeometry x="-545" y="-1418" width="243" height="30" as="geometry" />
        </mxCell>
        <mxCell id="MQtoxVUBuhqvLoLKHlp6-2731" value="" style="endArrow=classic;html=1;rounded=1;dashed=1;" edge="1" parent="1">
          <mxGeometry width="50" height="50" relative="1" as="geometry">
            <mxPoint x="-579" y="-1504" as="sourcePoint" />
            <mxPoint x="-700" y="-1293" as="targetPoint" />
            <Array as="points" />
          </mxGeometry>
        </mxCell>
        <mxCell id="MQtoxVUBuhqvLoLKHlp6-2732" value="Валидировать заявку" style="text;html=1;align=center;verticalAlign=middle;whiteSpace=wrap;rounded=1;fontSize=13;rotation=-60;arcSize=50;" vertex="1" parent="1">
          <mxGeometry x="-777" y="-1426" width="243" height="30" as="geometry" />
        </mxCell>
        <mxCell id="MQtoxVUBuhqvLoLKHlp6-2740" value="Специалист поддержки" style="shape=umlActor;verticalLabelPosition=bottom;verticalAlign=top;html=1;outlineConnect=0;rounded=1;" vertex="1" parent="1">
          <mxGeometry x="-981" y="-1715" width="65" height="141" as="geometry" />
        </mxCell>
        <mxCell id="MQtoxVUBuhqvLoLKHlp6-2741" value="&lt;div&gt;Изменить статус заявки&lt;/div&gt;&lt;div&gt;на поддержку&lt;/div&gt;" style="text;html=1;align=center;verticalAlign=middle;whiteSpace=wrap;rounded=1;fontSize=13;rotation=-90;" vertex="1" parent="1">
          <mxGeometry x="-1116" y="-1448" width="243" height="30" as="geometry" />
        </mxCell>
        <mxCell id="MQtoxVUBuhqvLoLKHlp6-2742" value="" style="endArrow=classic;html=1;rounded=1;dashed=1;" edge="1" parent="1">
          <mxGeometry width="50" height="50" relative="1" as="geometry">
            <mxPoint x="-961" y="-1548" as="sourcePoint" />
            <mxPoint x="-963" y="-1293" as="targetPoint" />
            <Array as="points" />
          </mxGeometry>
        </mxCell>
        <mxCell id="MQtoxVUBuhqvLoLKHlp6-2743" value="" style="endArrow=classic;html=1;rounded=0;exitX=1;exitY=0.25;exitDx=0;exitDy=0;" edge="1" parent="1" source="MQtoxVUBuhqvLoLKHlp6-2708">
          <mxGeometry width="50" height="50" relative="1" as="geometry">
            <mxPoint x="-2128" y="-846" as="sourcePoint" />
            <mxPoint x="-1725" y="-2200" as="targetPoint" />
            <Array as="points">
              <mxPoint x="-1510" y="-1560" />
            </Array>
          </mxGeometry>
        </mxCell>
        <mxCell id="MQtoxVUBuhqvLoLKHlp6-2981" value="" style="endArrow=classic;html=1;rounded=1;curved=0;entryX=1.001;entryY=0.222;entryDx=0;entryDy=0;entryPerimeter=0;" edge="1" parent="1">
          <mxGeometry width="50" height="50" relative="1" as="geometry">
            <mxPoint x="-1206" y="-2972" as="sourcePoint" />
            <mxPoint x="-1590" y="-2482" as="targetPoint" />
            <Array as="points">
              <mxPoint x="-1206" y="-2482" />
            </Array>
          </mxGeometry>
        </mxCell>
        <mxCell id="MQtoxVUBuhqvLoLKHlp6-2982" value="&lt;p style=&quot;margin: 0px 0px 0px 21px; text-indent: -21px; font-variant-numeric: normal; font-variant-east-asian: normal; font-variant-alternates: normal; font-kerning: auto; font-optical-sizing: auto; font-feature-settings: normal; font-variation-settings: normal; font-variant-position: normal; font-stretch: normal; line-height: normal; color: rgb(14, 14, 14); text-align: start; text-wrap: wrap;&quot; class=&quot;p1&quot;&gt;&lt;font style=&quot;font-size: 12px;&quot; face=&quot;Helvetica&quot;&gt;Подтверждение платежа&lt;/font&gt;&lt;/p&gt;" style="edgeLabel;html=1;align=center;verticalAlign=middle;resizable=0;points=[];rounded=1;" vertex="1" connectable="0" parent="MQtoxVUBuhqvLoLKHlp6-2981">
          <mxGeometry x="0.1936" y="1" relative="1" as="geometry">
            <mxPoint x="-269" y="39" as="offset" />
          </mxGeometry>
        </mxCell>
        <mxCell id="MQtoxVUBuhqvLoLKHlp6-2983" value="" style="endArrow=classic;html=1;rounded=1;exitX=1.001;exitY=0.325;exitDx=0;exitDy=0;exitPerimeter=0;curved=0;entryX=0.68;entryY=1.001;entryDx=0;entryDy=0;entryPerimeter=0;" edge="1" target="MQtoxVUBuhqvLoLKHlp6-3006" parent="1">
          <mxGeometry width="50" height="50" relative="1" as="geometry">
            <mxPoint x="-1590" y="-2402" as="sourcePoint" />
            <mxPoint x="-1126" y="-2782" as="targetPoint" />
            <Array as="points">
              <mxPoint x="-1126" y="-2402" />
            </Array>
          </mxGeometry>
        </mxCell>
        <mxCell id="MQtoxVUBuhqvLoLKHlp6-2984" value="&lt;font style=&quot;font-size: 12px;&quot;&gt;Предоставить статус платежа&lt;/font&gt;" style="edgeLabel;html=1;align=center;verticalAlign=middle;resizable=0;points=[];rounded=1;" vertex="1" connectable="0" parent="MQtoxVUBuhqvLoLKHlp6-2983">
          <mxGeometry x="0.1936" y="1" relative="1" as="geometry">
            <mxPoint x="-209" y="46" as="offset" />
          </mxGeometry>
        </mxCell>
        <mxCell id="MQtoxVUBuhqvLoLKHlp6-2985" value="" style="endArrow=classic;html=1;rounded=1;curved=0;entryX=1;entryY=0.532;entryDx=0;entryDy=0;entryPerimeter=0;" edge="1" parent="1">
          <mxGeometry width="50" height="50" relative="1" as="geometry">
            <mxPoint x="-966" y="-2972" as="sourcePoint" />
            <mxPoint x="-1591" y="-2243" as="targetPoint" />
            <Array as="points">
              <mxPoint x="-966" y="-2242" />
            </Array>
          </mxGeometry>
        </mxCell>
        <mxCell id="MQtoxVUBuhqvLoLKHlp6-2986" value="&lt;font style=&quot;font-size: 12px;&quot;&gt;Подтверждение отмены&amp;nbsp;&lt;/font&gt;&lt;div&gt;&lt;font style=&quot;font-size: 12px;&quot;&gt;платежа&lt;/font&gt;&lt;/div&gt;" style="edgeLabel;html=1;align=center;verticalAlign=middle;resizable=0;points=[];rounded=1;" vertex="1" connectable="0" parent="MQtoxVUBuhqvLoLKHlp6-2985">
          <mxGeometry x="0.1936" y="1" relative="1" as="geometry">
            <mxPoint x="-262" y="-41" as="offset" />
          </mxGeometry>
        </mxCell>
        <mxCell id="MQtoxVUBuhqvLoLKHlp6-2987" value="" style="endArrow=classic;html=1;rounded=1;exitX=1;exitY=0.117;exitDx=0;exitDy=0;exitPerimeter=0;curved=0;entryX=0.214;entryY=1.007;entryDx=0;entryDy=0;entryPerimeter=0;" edge="1" target="MQtoxVUBuhqvLoLKHlp6-3006" parent="1">
          <mxGeometry width="50" height="50" relative="1" as="geometry">
            <mxPoint x="-1591" y="-2563" as="sourcePoint" />
            <mxPoint x="-1371" y="-2941" as="targetPoint" />
            <Array as="points">
              <mxPoint x="-1366" y="-2562" />
            </Array>
          </mxGeometry>
        </mxCell>
        <mxCell id="MQtoxVUBuhqvLoLKHlp6-2988" value="&lt;span style=&quot;text-wrap: wrap;&quot;&gt;&lt;font style=&quot;font-size: 12px;&quot;&gt;Инициировать платёж&lt;/font&gt;&lt;/span&gt;" style="edgeLabel;html=1;align=center;verticalAlign=middle;resizable=0;points=[];rounded=1;" vertex="1" connectable="0" parent="MQtoxVUBuhqvLoLKHlp6-2987">
          <mxGeometry x="0.1936" y="1" relative="1" as="geometry">
            <mxPoint x="-119" y="87" as="offset" />
          </mxGeometry>
        </mxCell>
        <mxCell id="MQtoxVUBuhqvLoLKHlp6-2996" value="" style="endArrow=classic;html=1;rounded=1;exitX=1;exitY=0.429;exitDx=0;exitDy=0;exitPerimeter=0;curved=0;entryX=0.837;entryY=1.005;entryDx=0;entryDy=0;entryPerimeter=0;" edge="1" source="MQtoxVUBuhqvLoLKHlp6-3019" target="MQtoxVUBuhqvLoLKHlp6-3006" parent="1">
          <mxGeometry width="50" height="50" relative="1" as="geometry">
            <mxPoint x="-1586" y="-2318" as="sourcePoint" />
            <mxPoint x="-1122" y="-2702" as="targetPoint" />
            <Array as="points">
              <mxPoint x="-1046" y="-2322" />
            </Array>
          </mxGeometry>
        </mxCell>
        <mxCell id="MQtoxVUBuhqvLoLKHlp6-2997" value="&lt;font style=&quot;font-size: 12px;&quot;&gt;Запросить статус платежа&lt;/font&gt;" style="edgeLabel;html=1;align=center;verticalAlign=middle;resizable=0;points=[];rounded=1;" vertex="1" connectable="0" parent="MQtoxVUBuhqvLoLKHlp6-2996">
          <mxGeometry x="-0.4407" y="-1" relative="1" as="geometry">
            <mxPoint x="-246" y="-31" as="offset" />
          </mxGeometry>
        </mxCell>
        <mxCell id="MQtoxVUBuhqvLoLKHlp6-2998" value="" style="endArrow=classic;html=1;rounded=1;exitX=1;exitY=0.429;exitDx=0;exitDy=0;exitPerimeter=0;curved=0;entryX=0.837;entryY=1.005;entryDx=0;entryDy=0;entryPerimeter=0;" edge="1" target="MQtoxVUBuhqvLoLKHlp6-3019" parent="1">
          <mxGeometry width="50" height="50" relative="1" as="geometry">
            <mxPoint x="-1591" y="-2322" as="sourcePoint" />
            <mxPoint x="-1046" y="-2787" as="targetPoint" />
            <Array as="points" />
          </mxGeometry>
        </mxCell>
        <mxCell id="MQtoxVUBuhqvLoLKHlp6-2999" value="" style="group" vertex="1" connectable="0" parent="1">
          <mxGeometry x="-1556" y="-3342" width="535" height="220" as="geometry" />
        </mxCell>
        <mxCell id="MQtoxVUBuhqvLoLKHlp6-3000" value="" style="rounded=1;whiteSpace=wrap;html=1;arcSize=5;fillColor=#fff2cc;strokeColor=#d6b656;" vertex="1" parent="MQtoxVUBuhqvLoLKHlp6-2999">
          <mxGeometry x="17" width="518" height="220" as="geometry" />
        </mxCell>
        <mxCell id="MQtoxVUBuhqvLoLKHlp6-3001" value="TurboPay" style="text;html=1;align=center;verticalAlign=middle;whiteSpace=wrap;rounded=1;shadow=0;fontSize=23;fontStyle=1" vertex="1" parent="MQtoxVUBuhqvLoLKHlp6-2999">
          <mxGeometry width="177" height="49" as="geometry" />
        </mxCell>
        <mxCell id="MQtoxVUBuhqvLoLKHlp6-3002" value="" style="group" vertex="1" connectable="0" parent="1">
          <mxGeometry x="-1506" y="-3282" width="518" height="224" as="geometry" />
        </mxCell>
        <mxCell id="MQtoxVUBuhqvLoLKHlp6-3003" value="" style="rounded=1;whiteSpace=wrap;html=1;arcSize=5;fillColor=#fff2cc;strokeColor=#d6b656;" vertex="1" parent="MQtoxVUBuhqvLoLKHlp6-3002">
          <mxGeometry width="518" height="224" as="geometry" />
        </mxCell>
        <mxCell id="MQtoxVUBuhqvLoLKHlp6-3004" value="FastMoney" style="text;html=1;align=center;verticalAlign=middle;whiteSpace=wrap;rounded=1;shadow=0;fontSize=23;fontStyle=1" vertex="1" parent="MQtoxVUBuhqvLoLKHlp6-3002">
          <mxGeometry x="2" width="141" height="49" as="geometry" />
        </mxCell>
        <mxCell id="MQtoxVUBuhqvLoLKHlp6-3005" value="" style="group" vertex="1" connectable="0" parent="1">
          <mxGeometry x="-1476" y="-3222" width="514" height="244" as="geometry" />
        </mxCell>
        <mxCell id="MQtoxVUBuhqvLoLKHlp6-3006" value="" style="rounded=1;whiteSpace=wrap;html=1;arcSize=5;fillColor=#fff2cc;strokeColor=#d6b656;" vertex="1" parent="MQtoxVUBuhqvLoLKHlp6-3005">
          <mxGeometry width="514" height="244" as="geometry" />
        </mxCell>
        <mxCell id="MQtoxVUBuhqvLoLKHlp6-3007" value="Яндекс.Pay" style="text;html=1;align=center;verticalAlign=middle;whiteSpace=wrap;rounded=1;shadow=0;fontSize=23;fontStyle=1" vertex="1" parent="MQtoxVUBuhqvLoLKHlp6-3005">
          <mxGeometry width="150" height="49" as="geometry" />
        </mxCell>
        <mxCell id="MQtoxVUBuhqvLoLKHlp6-3008" value="&lt;font style=&quot;font-size: 12px;&quot;&gt;[Транзакция.ID]&lt;/font&gt;" style="text;html=1;align=center;verticalAlign=middle;whiteSpace=wrap;rounded=1;fontSize=13;labelBackgroundColor=none;fontColor=#B8B8B8;" vertex="1" parent="1">
          <mxGeometry x="-1436" y="-2512" width="100" height="30" as="geometry" />
        </mxCell>
        <mxCell id="MQtoxVUBuhqvLoLKHlp6-3009" value="&lt;font style=&quot;font-size: 12px;&quot;&gt;[Транзакция.Статус]&lt;/font&gt;" style="text;html=1;align=center;verticalAlign=middle;whiteSpace=wrap;rounded=1;fontSize=13;labelBackgroundColor=none;fontColor=#B8B8B8;" vertex="1" parent="1">
          <mxGeometry x="-1356" y="-2512" width="160" height="30" as="geometry" />
        </mxCell>
        <mxCell id="MQtoxVUBuhqvLoLKHlp6-3010" value="&lt;font style=&quot;font-size: 12px;&quot;&gt;[Пользователь.ID]&lt;/font&gt;" style="text;html=1;align=center;verticalAlign=middle;whiteSpace=wrap;rounded=1;fontSize=13;labelBackgroundColor=none;fontColor=#007575;" vertex="1" parent="1">
          <mxGeometry x="-1566" y="-2612" width="160" height="30" as="geometry" />
        </mxCell>
        <mxCell id="MQtoxVUBuhqvLoLKHlp6-3011" value="&lt;font style=&quot;font-size: 12px;&quot;&gt;[Заказ.ID]&lt;/font&gt;" style="text;html=1;align=center;verticalAlign=middle;whiteSpace=wrap;rounded=1;fontSize=13;labelBackgroundColor=none;fontColor=#007575;" vertex="1" parent="1">
          <mxGeometry x="-1606" y="-2592" width="160" height="30" as="geometry" />
        </mxCell>
        <mxCell id="MQtoxVUBuhqvLoLKHlp6-3012" value="&lt;font style=&quot;font-size: 12px;&quot;&gt;[Заказ.Сумма]&lt;/font&gt;" style="text;html=1;align=center;verticalAlign=middle;whiteSpace=wrap;rounded=1;fontSize=13;labelBackgroundColor=none;fontColor=#007575;" vertex="1" parent="1">
          <mxGeometry x="-1536" y="-2592" width="160" height="30" as="geometry" />
        </mxCell>
        <mxCell id="MQtoxVUBuhqvLoLKHlp6-3013" value="&lt;font style=&quot;font-size: 12px;&quot;&gt;[Транзакция.ID]&lt;/font&gt;" style="text;html=1;align=center;verticalAlign=middle;whiteSpace=wrap;rounded=1;fontSize=13;labelBackgroundColor=none;fontColor=#B8B8B8;" vertex="1" parent="1">
          <mxGeometry x="-1556" y="-2432" width="100" height="30" as="geometry" />
        </mxCell>
        <mxCell id="MQtoxVUBuhqvLoLKHlp6-3014" value="&lt;font style=&quot;font-size: 12px;&quot;&gt;[Транзакция.ID]&lt;/font&gt;" style="text;html=1;align=center;verticalAlign=middle;whiteSpace=wrap;rounded=1;fontSize=13;labelBackgroundColor=none;fontColor=#B8B8B8;" vertex="1" parent="1">
          <mxGeometry x="-1556" y="-2352" width="100" height="30" as="geometry" />
        </mxCell>
        <mxCell id="MQtoxVUBuhqvLoLKHlp6-3015" value="&lt;font style=&quot;font-size: 12px;&quot;&gt;[Транзакция.Статус]&lt;/font&gt;" style="text;html=1;align=center;verticalAlign=middle;whiteSpace=wrap;rounded=1;fontSize=13;labelBackgroundColor=none;fontColor=#B8B8B8;" vertex="1" parent="1">
          <mxGeometry x="-1396" y="-2272" width="160" height="30" as="geometry" />
        </mxCell>
        <mxCell id="MQtoxVUBuhqvLoLKHlp6-3016" value="1" style="ellipse;whiteSpace=wrap;html=1;aspect=fixed;rounded=1;fillColor=#FF77BF;" vertex="1" parent="1">
          <mxGeometry x="-1606" y="-2572" width="23" height="23" as="geometry" />
        </mxCell>
        <mxCell id="MQtoxVUBuhqvLoLKHlp6-3017" value="2" style="ellipse;whiteSpace=wrap;html=1;aspect=fixed;rounded=1;fillColor=#FF77BF;" vertex="1" parent="1">
          <mxGeometry x="-1216" y="-2992" width="23" height="23" as="geometry" />
        </mxCell>
        <mxCell id="MQtoxVUBuhqvLoLKHlp6-3018" value="3" style="ellipse;whiteSpace=wrap;html=1;aspect=fixed;rounded=1;fillColor=#ff77bf;" vertex="1" parent="1">
          <mxGeometry x="-1606" y="-2412" width="23" height="23" as="geometry" />
        </mxCell>
        <mxCell id="MQtoxVUBuhqvLoLKHlp6-3019" value="4" style="ellipse;whiteSpace=wrap;html=1;aspect=fixed;rounded=1;fillColor=#FF77BF;" vertex="1" parent="1">
          <mxGeometry x="-1606" y="-2332" width="23" height="23" as="geometry" />
        </mxCell>
        <mxCell id="MQtoxVUBuhqvLoLKHlp6-3020" value="5" style="ellipse;whiteSpace=wrap;html=1;aspect=fixed;rounded=1;fillColor=#FF77BF;" vertex="1" parent="1">
          <mxGeometry x="-976" y="-2992" width="23" height="23" as="geometry" />
        </mxCell>
        <mxCell id="MQtoxVUBuhqvLoLKHlp6-3021" value="" style="strokeWidth=2;html=1;shape=mxgraph.flowchart.database;whiteSpace=wrap;rounded=1;movable=1;resizable=1;rotatable=1;deletable=1;editable=1;locked=0;connectable=1;" vertex="1" parent="1">
          <mxGeometry x="-1196" y="-3162" width="220" height="171" as="geometry" />
        </mxCell>
        <mxCell id="MQtoxVUBuhqvLoLKHlp6-3022" value="&lt;p style=&quot;margin: 0px 0px 0px 13px; text-indent: -13px; font-variant-numeric: normal; font-variant-east-asian: normal; font-variant-alternates: normal; font-kerning: auto; font-optical-sizing: auto; font-feature-settings: normal; font-variation-settings: normal; font-variant-position: normal; font-stretch: normal; font-size: 14px; line-height: normal; text-align: start;&quot; class=&quot;p1&quot;&gt;&lt;span style=&quot;font-size: 12px; text-align: center; text-indent: 0px;&quot;&gt;[Транзакция.Статус]&lt;/span&gt;&lt;br&gt;&lt;/p&gt;" style="rounded=1;whiteSpace=wrap;html=1;fillColor=#B8B8B8;strokeColor=#FFD966;" vertex="1" parent="1">
          <mxGeometry x="-1146" y="-3072" width="119" height="21" as="geometry" />
        </mxCell>
        <mxCell id="MQtoxVUBuhqvLoLKHlp6-3023" value="&lt;p style=&quot;margin: 0px 0px 0px 13px; text-indent: -13px; font-variant-numeric: normal; font-variant-east-asian: normal; font-variant-alternates: normal; font-kerning: auto; font-optical-sizing: auto; font-feature-settings: normal; font-variation-settings: normal; font-variant-position: normal; font-stretch: normal; font-size: 14px; line-height: normal; text-align: start;&quot; class=&quot;p1&quot;&gt;&lt;span style=&quot;font-size: 12px; text-align: center; text-indent: 0px;&quot;&gt;[Транзакция.ID]&lt;/span&gt;&lt;br&gt;&lt;/p&gt;" style="rounded=1;whiteSpace=wrap;html=1;fillColor=#B8B8B8;strokeColor=#FFD966;" vertex="1" parent="1">
          <mxGeometry x="-1146" y="-3042" width="119" height="21" as="geometry" />
        </mxCell>
        <mxCell id="MQtoxVUBuhqvLoLKHlp6-3024" value="" style="group" vertex="1" connectable="0" parent="1">
          <mxGeometry x="-1486" y="-3172" width="260" height="39" as="geometry" />
        </mxCell>
        <mxCell id="MQtoxVUBuhqvLoLKHlp6-3025" value="" style="rounded=1;whiteSpace=wrap;html=1;fillColor=#ffe6cc;strokeColor=#d79b00;" vertex="1" parent="MQtoxVUBuhqvLoLKHlp6-3024">
          <mxGeometry x="10" width="250" height="39" as="geometry" />
        </mxCell>
        <mxCell id="MQtoxVUBuhqvLoLKHlp6-3026" value="" style="sketch=0;outlineConnect=0;fontColor=#232F3E;gradientColor=none;fillColor=#232F3D;strokeColor=none;dashed=0;verticalLabelPosition=bottom;verticalAlign=top;align=center;html=1;fontSize=12;fontStyle=0;aspect=fixed;pointerEvents=1;shape=mxgraph.aws4.gear;rounded=1;" vertex="1" parent="MQtoxVUBuhqvLoLKHlp6-3024">
          <mxGeometry x="230" y="11" width="17" height="17" as="geometry" />
        </mxCell>
        <mxCell id="MQtoxVUBuhqvLoLKHlp6-3027" value="Инициировать платёж" style="text;html=1;align=center;verticalAlign=middle;whiteSpace=wrap;rounded=1;fontSize=13;" vertex="1" parent="MQtoxVUBuhqvLoLKHlp6-3024">
          <mxGeometry y="4.5" width="170" height="30" as="geometry" />
        </mxCell>
        <mxCell id="MQtoxVUBuhqvLoLKHlp6-3028" value="" style="group" vertex="1" connectable="0" parent="1">
          <mxGeometry x="-1486" y="-3122" width="260" height="39" as="geometry" />
        </mxCell>
        <mxCell id="MQtoxVUBuhqvLoLKHlp6-3029" value="" style="rounded=1;whiteSpace=wrap;html=1;fillColor=#ffe6cc;strokeColor=#d79b00;" vertex="1" parent="MQtoxVUBuhqvLoLKHlp6-3028">
          <mxGeometry x="10" width="250" height="39" as="geometry" />
        </mxCell>
        <mxCell id="MQtoxVUBuhqvLoLKHlp6-3030" value="" style="sketch=0;outlineConnect=0;fontColor=#232F3E;gradientColor=none;fillColor=#232F3D;strokeColor=none;dashed=0;verticalLabelPosition=bottom;verticalAlign=top;align=center;html=1;fontSize=12;fontStyle=0;aspect=fixed;pointerEvents=1;shape=mxgraph.aws4.gear;rounded=1;" vertex="1" parent="MQtoxVUBuhqvLoLKHlp6-3028">
          <mxGeometry x="230" y="11" width="17" height="17" as="geometry" />
        </mxCell>
        <mxCell id="MQtoxVUBuhqvLoLKHlp6-3031" value="Подтвердить платёж" style="text;html=1;align=center;verticalAlign=middle;whiteSpace=wrap;rounded=1;fontSize=13;" vertex="1" parent="MQtoxVUBuhqvLoLKHlp6-3028">
          <mxGeometry y="4.5" width="170" height="30" as="geometry" />
        </mxCell>
        <mxCell id="MQtoxVUBuhqvLoLKHlp6-3032" value="" style="group" vertex="1" connectable="0" parent="1">
          <mxGeometry x="-1476" y="-3072" width="250" height="39" as="geometry" />
        </mxCell>
        <mxCell id="MQtoxVUBuhqvLoLKHlp6-3033" value="" style="rounded=1;whiteSpace=wrap;html=1;fillColor=#ffe6cc;strokeColor=#d79b00;" vertex="1" parent="MQtoxVUBuhqvLoLKHlp6-3032">
          <mxGeometry width="250" height="39" as="geometry" />
        </mxCell>
        <mxCell id="MQtoxVUBuhqvLoLKHlp6-3034" value="" style="sketch=0;outlineConnect=0;fontColor=#232F3E;gradientColor=none;fillColor=#232F3D;strokeColor=none;dashed=0;verticalLabelPosition=bottom;verticalAlign=top;align=center;html=1;fontSize=12;fontStyle=0;aspect=fixed;pointerEvents=1;shape=mxgraph.aws4.gear;rounded=1;" vertex="1" parent="MQtoxVUBuhqvLoLKHlp6-3032">
          <mxGeometry x="220" y="11" width="17" height="17" as="geometry" />
        </mxCell>
        <mxCell id="MQtoxVUBuhqvLoLKHlp6-3035" value="Предоставить статус платежа" style="text;html=1;align=center;verticalAlign=middle;whiteSpace=wrap;rounded=1;fontSize=13;" vertex="1" parent="MQtoxVUBuhqvLoLKHlp6-3032">
          <mxGeometry y="4.5" width="200" height="30" as="geometry" />
        </mxCell>
        <mxCell id="MQtoxVUBuhqvLoLKHlp6-3036" value="" style="group" vertex="1" connectable="0" parent="1">
          <mxGeometry x="-1486" y="-3022" width="260" height="39" as="geometry" />
        </mxCell>
        <mxCell id="MQtoxVUBuhqvLoLKHlp6-3037" value="" style="rounded=1;whiteSpace=wrap;html=1;fillColor=#ffe6cc;strokeColor=#d79b00;" vertex="1" parent="MQtoxVUBuhqvLoLKHlp6-3036">
          <mxGeometry x="10" width="250" height="39" as="geometry" />
        </mxCell>
        <mxCell id="MQtoxVUBuhqvLoLKHlp6-3038" value="" style="sketch=0;outlineConnect=0;fontColor=#232F3E;gradientColor=none;fillColor=#232F3D;strokeColor=none;dashed=0;verticalLabelPosition=bottom;verticalAlign=top;align=center;html=1;fontSize=12;fontStyle=0;aspect=fixed;pointerEvents=1;shape=mxgraph.aws4.gear;rounded=1;" vertex="1" parent="MQtoxVUBuhqvLoLKHlp6-3036">
          <mxGeometry x="230" y="11" width="17" height="17" as="geometry" />
        </mxCell>
        <mxCell id="MQtoxVUBuhqvLoLKHlp6-3039" value="Подтвердить отмену платежа" style="text;html=1;align=center;verticalAlign=middle;whiteSpace=wrap;rounded=1;fontSize=13;" vertex="1" parent="MQtoxVUBuhqvLoLKHlp6-3036">
          <mxGeometry y="4.5" width="210" height="30" as="geometry" />
        </mxCell>
        <mxCell id="MQtoxVUBuhqvLoLKHlp6-3040" value="" style="endArrow=classic;html=1;rounded=0;" edge="1" parent="1">
          <mxGeometry width="50" height="50" relative="1" as="geometry">
            <mxPoint x="-493" y="-1629" as="sourcePoint" />
            <mxPoint x="-51" y="-1629" as="targetPoint" />
          </mxGeometry>
        </mxCell>
        <mxCell id="MQtoxVUBuhqvLoLKHlp6-2011" value="" style="rounded=1;whiteSpace=wrap;html=1;arcSize=4;movable=1;resizable=1;rotatable=1;deletable=1;editable=1;locked=0;connectable=1;fillColor=#f5f5f5;strokeColor=#1C57CD;strokeWidth=3;fontColor=#333333;" vertex="1" parent="1">
          <mxGeometry x="-3459.999144523655" y="-2593.9574672489084" width="350.3645495787427" height="236.0873362445415" as="geometry" />
        </mxCell>
        <mxCell id="MQtoxVUBuhqvLoLKHlp6-2140" value="" style="group" vertex="1" connectable="0" parent="1">
          <mxGeometry x="-3431.3374465327283" y="-2536.8395633187774" width="305.39533376539214" height="37.12663755458515" as="geometry" />
        </mxCell>
        <mxCell id="MQtoxVUBuhqvLoLKHlp6-2141" value="" style="rounded=1;whiteSpace=wrap;html=1;fillColor=#1C57CD;strokeColor=none;" vertex="1" parent="MQtoxVUBuhqvLoLKHlp6-2140">
          <mxGeometry width="305.39533376539214" height="37.12663755458515" as="geometry" />
        </mxCell>
        <mxCell id="MQtoxVUBuhqvLoLKHlp6-2142" value="" style="sketch=0;outlineConnect=0;fontColor=#232F3E;gradientColor=none;fillColor=#FFFFFF;strokeColor=none;dashed=0;verticalLabelPosition=bottom;verticalAlign=top;align=center;html=1;fontSize=12;fontStyle=0;aspect=fixed;pointerEvents=1;shape=mxgraph.aws4.gear;rounded=1;" vertex="1" parent="MQtoxVUBuhqvLoLKHlp6-2140">
          <mxGeometry x="282.66364225534676" y="10.471615720524017" width="14.868965931944064" height="14.868965931944064" as="geometry" />
        </mxCell>
        <mxCell id="MQtoxVUBuhqvLoLKHlp6-2143" value="Нотификация участника аукциона" style="text;html=1;align=center;verticalAlign=middle;whiteSpace=wrap;rounded=1;fontSize=13;fontColor=#FFFFFF;strokeColor=none;" vertex="1" parent="MQtoxVUBuhqvLoLKHlp6-2140">
          <mxGeometry x="2.9650032404407005" y="4.283842794759825" width="215.45690213869085" height="28.5589519650655" as="geometry" />
        </mxCell>
        <mxCell id="MQtoxVUBuhqvLoLKHlp6-2056" value="" style="group" vertex="1" connectable="0" parent="1">
          <mxGeometry x="-3432.3257809462084" y="-2492.097205240175" width="305.39533376539214" height="37.12663755458515" as="geometry" />
        </mxCell>
        <mxCell id="MQtoxVUBuhqvLoLKHlp6-2057" value="" style="rounded=1;whiteSpace=wrap;html=1;fillColor=#1C57CD;strokeColor=none;" vertex="1" parent="MQtoxVUBuhqvLoLKHlp6-2056">
          <mxGeometry width="305.39533376539214" height="37.12663755458515" as="geometry" />
        </mxCell>
        <mxCell id="MQtoxVUBuhqvLoLKHlp6-2058" value="" style="sketch=0;outlineConnect=0;fontColor=#232F3E;gradientColor=none;fillColor=default;strokeColor=none;dashed=0;verticalLabelPosition=bottom;verticalAlign=top;align=center;html=1;fontSize=12;fontStyle=0;aspect=fixed;pointerEvents=1;shape=mxgraph.aws4.gear;rounded=1;" vertex="1" parent="MQtoxVUBuhqvLoLKHlp6-2056">
          <mxGeometry x="276.7336357744653" y="10.471615720524017" width="14.868965931944064" height="14.868965931944064" as="geometry" />
        </mxCell>
        <mxCell id="MQtoxVUBuhqvLoLKHlp6-2059" value="Нотификация нового пользователя" style="text;html=1;align=center;verticalAlign=middle;whiteSpace=wrap;rounded=1;fontSize=13;fontColor=#FFFFFF;strokeColor=none;" vertex="1" parent="MQtoxVUBuhqvLoLKHlp6-2056">
          <mxGeometry x="2.9650032404407005" y="4.283842794759825" width="224.351911860013" height="28.5589519650655" as="geometry" />
        </mxCell>
        <mxCell id="MQtoxVUBuhqvLoLKHlp6-2018" value="Сервис уведомлений" style="text;html=1;align=center;verticalAlign=middle;whiteSpace=wrap;rounded=1;shadow=0;fontSize=23;fontStyle=1" vertex="1" parent="1">
          <mxGeometry x="-3412.559092676604" y="-2586.341746724891" width="257.9552819183409" height="46.646288209606986" as="geometry" />
        </mxCell>
        <mxCell id="MQtoxVUBuhqvLoLKHlp6-2015" value="" style="group" vertex="1" connectable="0" parent="1">
          <mxGeometry x="-3421.4541023979264" y="-2612.9967685589518" width="149.23849643551523" height="34.2707423580786" as="geometry" />
        </mxCell>
        <mxCell id="MQtoxVUBuhqvLoLKHlp6-2016" value="&lt;p style=&quot;margin: 0px 0px 0px 13px; text-indent: -13px; font-variant-numeric: normal; font-variant-east-asian: normal; font-variant-alternates: normal; font-kerning: auto; font-optical-sizing: auto; font-feature-settings: normal; font-variation-settings: normal; font-variant-position: normal; font-stretch: normal; font-size: 14px; line-height: normal; color: rgb(14, 14, 14); text-align: start;&quot; class=&quot;p1&quot;&gt;&lt;br&gt;&lt;/p&gt;" style="rounded=1;whiteSpace=wrap;html=1;fillColor=#FF77BF;strokeColor=none;arcSize=33;" vertex="1" parent="MQtoxVUBuhqvLoLKHlp6-2015">
          <mxGeometry y="4.759825327510917" width="149.23849643551523" height="29.510917030567686" as="geometry" />
        </mxCell>
        <mxCell id="MQtoxVUBuhqvLoLKHlp6-2017" value="&lt;font style=&quot;font-size: 18px;&quot;&gt;&lt;i&gt;Django/Python&lt;/i&gt;&lt;/font&gt;" style="text;html=1;align=center;verticalAlign=middle;whiteSpace=wrap;rounded=1;shadow=0;fontSize=23;fontStyle=1" vertex="1" parent="MQtoxVUBuhqvLoLKHlp6-2015">
          <mxGeometry x="29.650032404407" width="87.96176279974077" height="34.2707423580786" as="geometry" />
        </mxCell>
        <mxCell id="MQtoxVUBuhqvLoLKHlp6-3042" value="" style="endArrow=classic;html=1;rounded=0;" edge="1" parent="1" source="MQtoxVUBuhqvLoLKHlp6-2018">
          <mxGeometry width="50" height="50" relative="1" as="geometry">
            <mxPoint x="-2613" y="-1664" as="sourcePoint" />
            <mxPoint x="-2830" y="-3030" as="targetPoint" />
          </mxGeometry>
        </mxCell>
        <mxCell id="MQtoxVUBuhqvLoLKHlp6-3044" value="" style="endArrow=classic;html=1;rounded=0;" edge="1" parent="1">
          <mxGeometry width="50" height="50" relative="1" as="geometry">
            <mxPoint x="-522" y="-1688" as="sourcePoint" />
            <mxPoint x="-522" y="-2194" as="targetPoint" />
          </mxGeometry>
        </mxCell>
        <mxCell id="MQtoxVUBuhqvLoLKHlp6-3045" value="&lt;span style=&quot;font-size: 12px; text-wrap-mode: wrap;&quot;&gt;Сгенероивать отчет&lt;/span&gt;" style="edgeLabel;html=1;align=center;verticalAlign=middle;resizable=0;points=[];rounded=1;labelBorderColor=#FF0000;" vertex="1" connectable="0" parent="1">
          <mxGeometry x="-463.001515825531" y="-1957.998592899774" as="geometry">
            <mxPoint x="-8" y="2" as="offset" />
          </mxGeometry>
        </mxCell>
      </root>
    </mxGraphModel>
  </diagram>
</mxfile>
